<?xml version="1.0" encoding="utf-8" standalone="no"?>
<!DOCTYPE svg PUBLIC "-//W3C//DTD SVG 1.1//EN"
  "http://www.w3.org/Graphics/SVG/1.1/DTD/svg11.dtd">
<svg xmlns:xlink="http://www.w3.org/1999/xlink" width="376pt" height="49pt" viewBox="0 0 376 49" xmlns="http://www.w3.org/2000/svg" version="1.1">
 <metadata>
  <rdf:RDF xmlns:dc="http://purl.org/dc/elements/1.1/" xmlns:cc="http://creativecommons.org/ns#" xmlns:rdf="http://www.w3.org/1999/02/22-rdf-syntax-ns#">
   <cc:Work>
    <dc:type rdf:resource="http://purl.org/dc/dcmitype/StillImage"/>

    <dc:format>image/svg+xml</dc:format>
    <dc:creator>
     <cc:Agent>
      <dc:title>Matplotlib v3.11.0, https://matplotlib.org/</dc:title>
     </cc:Agent>
    </dc:creator>
   </cc:Work>
  </rdf:RDF>
 </metadata>
 <defs>
  <style type="text/css">*{stroke-linejoin: round; stroke-linecap: butt}</style>
 </defs>
 <g id="figure_1">
  <g id="patch_1">
   <path d="M 0 49
L 376 49
L 376 0
L 0 0
z
" style="fill: #ffffff"/>
  </g>
  <g id="text_1">
   <!-- $\mathbf{C}_t=(\mathbf{I}-\mathbf{n}\mathbf{n}^{\mathsf{T}})\left(\sum_{j\in B}\beta_j\Delta\mathbf{x}_j-\sum_{i\in A}\alpha_i\Delta\mathbf{x}_i\right)$ -->
   <g style="fill: #19313c" transform="translate(0 23) scale(0.22 -0.22)">
    <defs>
     <path id="DejaVuSans-Bold-26" d="M 4288 256
Q 3956 84 3597 -3
Q 3238 -91 2847 -91
Q 1681 -91 1000 561
Q 319 1213 319 2328
Q 319 3447 1000 4098
Q 1681 4750 2847 4750
Q 3238 4750 3597 4662
Q 3956 4575 4288 4403
L 4288 3438
Q 3953 3666 3628 3772
Q 3303 3878 2944 3878
Q 2300 3878 1931 3465
Q 1563 3053 1563 2328
Q 1563 1606 1931 1193
Q 2300 781 2944 781
Q 3303 781 3628 887
Q 3953 994 4288 1222
L 4288 256
z
" transform="scale(0.015625)"/>
     <path id="DejaVuSans-Oblique-57" d="M 2706 3500
L 2619 3053
L 1472 3053
L 1100 1153
Q 1081 1047 1072 975
Q 1063 903 1063 863
Q 1063 663 1183 572
Q 1303 481 1569 481
L 2150 481
L 2053 0
L 1503 0
Q 991 0 739 200
Q 488 400 488 806
Q 488 878 497 964
Q 506 1050 525 1153
L 897 3053
L 409 3053
L 500 3500
L 978 3500
L 1172 4494
L 1747 4494
L 1556 3500
L 2706 3500
z
" transform="scale(0.015625)"/>
     <path id="DejaVuSans-20" d="M 678 2906
L 4684 2906
L 4684 2381
L 678 2381
L 678 2906
z
M 678 1631
L 4684 1631
L 4684 1100
L 678 1100
L 678 1631
z
" transform="scale(0.015625)"/>
     <path id="DejaVuSans-b" d="M 1984 4856
Q 1566 4138 1362 3434
Q 1159 2731 1159 2009
Q 1159 1288 1364 580
Q 1569 -128 1984 -844
L 1484 -844
Q 1016 -109 783 600
Q 550 1309 550 2009
Q 550 2706 781 3412
Q 1013 4119 1484 4856
L 1984 4856
z
" transform="scale(0.015625)"/>
     <path id="DejaVuSans-Bold-2c" d="M 588 4666
L 1791 4666
L 1791 0
L 588 0
L 588 4666
z
" transform="scale(0.015625)"/>
     <path id="DejaVuSans-c9c" d="M 678 2272
L 4684 2272
L 4684 1741
L 678 1741
L 678 2272
z
" transform="scale(0.015625)"/>
     <path id="DejaVuSans-Bold-51" d="M 4056 2131
L 4056 0
L 2931 0
L 2931 347
L 2931 1631
Q 2931 2084 2911 2256
Q 2891 2428 2841 2509
Q 2775 2619 2662 2680
Q 2550 2741 2406 2741
Q 2056 2741 1856 2470
Q 1656 2200 1656 1722
L 1656 0
L 538 0
L 538 3500
L 1656 3500
L 1656 2988
Q 1909 3294 2193 3439
Q 2478 3584 2822 3584
Q 3428 3584 3742 3212
Q 4056 2841 4056 2131
z
" transform="scale(0.015625)"/>
     <path id="DejaVuSans-37" d="M -19 4666
L 3928 4666
L 3928 4134
L 2272 4134
L 2272 0
L 1638 0
L 1638 4134
L -19 4134
L -19 4666
z
" transform="scale(0.015625)"/>
     <path id="DejaVuSans-c" d="M 513 4856
L 1013 4856
Q 1481 4119 1714 3412
Q 1947 2706 1947 2009
Q 1947 1309 1714 600
Q 1481 -109 1013 -844
L 513 -844
Q 928 -128 1133 580
Q 1338 1288 1338 2009
Q 1338 2731 1133 3434
Q 928 4138 513 4856
z
" transform="scale(0.015625)"/>
     <path id="STIXSizeThreeSym-Regular-4" d="M 4269 -2214
L 4269 -2522
Q 2835 -1178 2000 838
Q 1165 2854 1165 5350
Q 1165 7878 2019 9990
Q 2874 12102 4269 13222
L 4269 12941
Q 3814 12467 3408 11785
Q 3002 11104 2646 10173
Q 2291 9242 2080 7990
Q 1869 6739 1869 5350
Q 1869 4218 2013 3190
Q 2157 2163 2381 1398
Q 2605 634 2934 -73
Q 3264 -781 3577 -1264
Q 3891 -1747 4269 -2214
z
" transform="scale(0.015625)"/>
     <path id="DejaVuSansDisplay-10" d="M 244 6509
L 5803 6509
L 5803 5656
L 1566 5656
L 4534 2488
L 1469 -888
L 5919 -888
L 5919 -1738
L 109 -1738
L 109 -1078
L 3316 2463
L 244 5728
L 244 6509
z
" transform="scale(0.015625)"/>
     <path id="DejaVuSans-Oblique-4d" d="M 928 3500
L 1503 3500
L 813 -63
L 809 -78
Q 694 -675 544 -897
Q 403 -1106 132 -1218
Q -138 -1331 -506 -1331
L -722 -1331
L -628 -844
L -481 -844
Q -144 -844 -1 -703
Q 141 -563 238 -63
L 928 3500
z
M 1197 4863
L 1772 4863
L 1631 4134
L 1056 4134
L 1197 4863
z
" transform="scale(0.015625)"/>
     <path id="DejaVuSans-c92" d="M 1072 1959
Q 1094 1728 1291 1353
Q 1522 919 1959 675
Q 2388 438 2850 434
L 5028 434
L 5028 -63
L 2850 -63
Q 2250 -63 1695 246
Q 1141 556 844 1106
Q 547 1656 547 2241
Q 547 2819 844 3369
Q 1141 3919 1695 4231
Q 2250 4544 2850 4544
L 5028 4544
L 5028 4047
L 2850 4047
Q 2388 4044 1959 3803
Q 1525 3556 1291 3125
Q 1091 2750 1063 2459
L 5028 2459
L 5028 1959
L 1072 1959
z
" transform="scale(0.015625)"/>
     <path id="DejaVuSans-Oblique-25" d="M 1081 4666
L 2694 4666
Q 3350 4666 3675 4422
Q 4000 4178 4000 3688
Q 4000 3238 3720 2911
Q 3441 2584 2988 2516
Q 3375 2428 3569 2181
Q 3763 1934 3763 1522
Q 3763 819 3242 409
Q 2722 0 1819 0
L 172 0
L 1081 4666
z
M 1234 2228
L 903 519
L 1919 519
Q 2491 519 2800 781
Q 3109 1044 3109 1522
Q 3109 1891 2904 2059
Q 2700 2228 2247 2228
L 1234 2228
z
M 1606 4147
L 1331 2741
L 2272 2741
Q 2775 2741 3058 2959
Q 3341 3178 3341 3566
Q 3341 3869 3150 4008
Q 2959 4147 2541 4147
L 1606 4147
z
" transform="scale(0.015625)"/>
     <path id="DejaVuSans-Oblique-346" d="M 872 216
L 572 -1331
L -6 -1331
L 928 3478
Q 1206 4903 2538 4903
Q 3888 4903 3659 3700
Q 3503 2844 2894 2531
Q 3713 2250 3553 1416
Q 3272 -69 1759 -66
Q 1097 -63 872 216
z
M 1019 966
Q 1259 422 1875 425
Q 2775 425 2966 1406
Q 3138 2288 1675 2219
L 1778 2750
Q 2909 2731 3106 3750
Q 3241 4438 2509 4434
Q 1691 4434 1503 3459
L 1019 966
z
" transform="scale(0.015625)"/>
     <path id="DejaVuSans-329" d="M 2188 4044
L 906 525
L 3472 525
L 2188 4044
z
M 50 0
L 1831 4666
L 2547 4666
L 4325 0
L 50 0
z
" transform="scale(0.015625)"/>
     <path id="DejaVuSans-Bold-5b" d="M 1422 1791
L 159 3500
L 1344 3500
L 2059 2463
L 2784 3500
L 3969 3500
L 2706 1797
L 4031 0
L 2847 0
L 2059 1106
L 1281 0
L 97 0
L 1422 1791
z
" transform="scale(0.015625)"/>
     <path id="DejaVuSans-Oblique-4c" d="M 1172 4863
L 1747 4863
L 1606 4134
L 1031 4134
L 1172 4863
z
M 909 3500
L 1484 3500
L 800 0
L 225 0
L 909 3500
z
" transform="scale(0.015625)"/>
     <path id="DejaVuSans-Oblique-24" d="M 2356 4666
L 3072 4666
L 3938 0
L 3278 0
L 3084 1197
L 984 1197
L 325 0
L -341 0
L 2356 4666
z
M 2584 4044
L 1275 1722
L 2988 1722
L 2584 4044
z
" transform="scale(0.015625)"/>
     <path id="DejaVuSans-Oblique-345" d="M 2619 1628
L 2622 2350
Q 2625 3088 2069 3091
Q 1653 3094 1394 2747
Q 1069 2319 959 1747
Q 825 1059 994 731
Q 1169 397 1547 397
Q 1966 397 2319 1063
L 2619 1628
z
M 2166 3578
Q 3141 3594 3128 2584
Q 3128 2584 3616 3500
L 4128 3500
L 3119 1603
L 3109 919
Q 3109 766 3194 638
Q 3291 488 3391 488
L 3669 488
L 3575 0
L 3228 0
Q 2934 0 2722 263
Q 2622 394 2619 669
Q 2416 334 2066 50
Q 1900 -81 1453 -78
Q 722 -72 456 397
Q 184 884 353 1747
Q 534 2675 1009 3097
Q 1544 3569 2166 3578
z
" transform="scale(0.015625)"/>
     <path id="STIXSizeThreeSym-Regular-5" d="M 531 12915
L 531 13222
Q 1965 11872 2800 9869
Q 3635 7866 3635 5350
Q 3635 2835 2777 716
Q 1920 -1402 531 -2522
L 531 -2240
Q 986 -1766 1392 -1084
Q 1798 -403 2153 528
Q 2509 1459 2720 2710
Q 2931 3962 2931 5350
Q 2931 9990 531 12915
z
" transform="scale(0.015625)"/>
    </defs>
    <use xlink:href="#DejaVuSans-Bold-26" transform="translate(0 0.296875)"/>
    <use xlink:href="#DejaVuSans-Oblique-57" transform="translate(74.345703 -14.703076) scale(0.7)"/>
    <use xlink:href="#DejaVuSans-20" transform="translate(124.008789 0.296875)"/>
    <use xlink:href="#DejaVuSans-b" transform="translate(227.280273 0.296875)"/>
    <use xlink:href="#DejaVuSans-Bold-2c" transform="translate(266.293945 0.296875)"/>
    <use xlink:href="#DejaVuSans-c9c" transform="translate(322.983398 0.296875)"/>
    <use xlink:href="#DejaVuSans-Bold-51" transform="translate(426.254883 0.296875)"/>
    <use xlink:href="#DejaVuSans-Bold-51" transform="translate(497.446289 0.296875)"/>
    <use xlink:href="#DejaVuSans-37" transform="translate(569.594727 41.596875) scale(0.7)"/>
    <use xlink:href="#DejaVuSans-c" transform="translate(615.087891 0.296875)"/>
    <use xlink:href="#STIXSizeThreeSym-Regular-4" transform="translate(654.101562 -78.871875) scale(0.875432)"/>
    <use xlink:href="#DejaVuSansDisplay-10" transform="translate(751.750061 0.296875)"/>
    <use xlink:href="#DejaVuSans-Oblique-4d" transform="translate(719.750061 -98.798438) scale(0.7)"/>
    <use xlink:href="#DejaVuSans-c92" transform="translate(752.835999 -98.798438) scale(0.7)"/>
    <use xlink:href="#DejaVuSans-Oblique-25" transform="translate(827.450256 -98.798438) scale(0.7)"/>
    <use xlink:href="#DejaVuSans-Oblique-346" transform="translate(875.472717 0.296875)"/>
    <use xlink:href="#DejaVuSans-Oblique-4d" transform="translate(939.291077 -14.703076) scale(0.7)"/>
    <use xlink:href="#DejaVuSans-329" transform="translate(961.473694 0.296875)"/>
    <use xlink:href="#DejaVuSans-Bold-5b" transform="translate(1029.881897 0.296875)"/>
    <use xlink:href="#DejaVuSans-Oblique-4d" transform="translate(1095.340881 -14.703076) scale(0.7)"/>
    <use xlink:href="#DejaVuSans-c9c" transform="translate(1137.00592 0.296875)"/>
    <use xlink:href="#DejaVuSansDisplay-10" transform="translate(1272.277405 0.296875)"/>
    <use xlink:href="#DejaVuSans-Oblique-4c" transform="translate(1240.277405 -98.798438) scale(0.7)"/>
    <use xlink:href="#DejaVuSans-c92" transform="translate(1273.363342 -98.798438) scale(0.7)"/>
    <use xlink:href="#DejaVuSans-Oblique-24" transform="translate(1347.9776 -98.798438) scale(0.7)"/>
    <use xlink:href="#DejaVuSans-Oblique-345" transform="translate(1395.863342 0.296875)"/>
    <use xlink:href="#DejaVuSans-Oblique-4c" transform="translate(1461.781311 -14.703076) scale(0.7)"/>
    <use xlink:href="#DejaVuSans-329" transform="translate(1483.963928 0.296875)"/>
    <use xlink:href="#DejaVuSans-Bold-5b" transform="translate(1552.372131 0.296875)"/>
    <use xlink:href="#DejaVuSans-Oblique-4c" transform="translate(1617.831116 -14.703076) scale(0.7)"/>
    <use xlink:href="#STIXSizeThreeSym-Regular-5" transform="translate(1640.013733 -78.871875) scale(0.875432)"/>
   </g>
  </g>
 </g>
</svg>
