# Supermarket T-shirt / vest carrier bag (smooth U-notch mouth, two side handles)
# Generated by make_supermarket_bag.py
# width: 0.3
# depth: 0.11
# body_height: 0.3
# notch_depth: 0.07
# handle_height: 0.12
# handle_width: 0.06
# handle_pinch: 0.55
# cell: 0.016
# nx: 19
# ny: 7
# r_body: 19
# r_handle: 8
# z_floor: 0.0
# z_shoulder: 0.3
# z_mouth: 0.22999999999999998
# z_handle_top: 0.42
# pin_z_threshold: 0.40199999999999997
# handle_x_left: [-0.15, -0.08684]
# handle_x_right: [0.08684, 0.15]
v -0.150000 -0.055000 0.000000
v -0.150000 -0.039286 0.000000
v -0.134211 -0.039286 0.000000
v -0.134211 -0.055000 0.000000
v -0.150000 -0.023571 0.000000
v -0.134211 -0.023571 0.000000
v -0.150000 -0.007857 0.000000
v -0.134211 -0.007857 0.000000
v -0.150000 0.007857 0.000000
v -0.134211 0.007857 0.000000
v -0.150000 0.023571 0.000000
v -0.134211 0.023571 0.000000
v -0.150000 0.039286 0.000000
v -0.134211 0.039286 0.000000
v -0.150000 0.055000 0.000000
v -0.134211 0.055000 0.000000
v -0.118421 -0.039286 0.000000
v -0.118421 -0.055000 0.000000
v -0.118421 -0.023571 0.000000
v -0.118421 -0.007857 0.000000
v -0.118421 0.007857 0.000000
v -0.118421 0.023571 0.000000
v -0.118421 0.039286 0.000000
v -0.118421 0.055000 0.000000
v -0.102632 -0.039286 0.000000
v -0.102632 -0.055000 0.000000
v -0.102632 -0.023571 0.000000
v -0.102632 -0.007857 0.000000
v -0.102632 0.007857 0.000000
v -0.102632 0.023571 0.000000
v -0.102632 0.039286 0.000000
v -0.102632 0.055000 0.000000
v -0.086842 -0.039286 0.000000
v -0.086842 -0.055000 0.000000
v -0.086842 -0.023571 0.000000
v -0.086842 -0.007857 0.000000
v -0.086842 0.007857 0.000000
v -0.086842 0.023571 0.000000
v -0.086842 0.039286 0.000000
v -0.086842 0.055000 0.000000
v -0.071053 -0.039286 0.000000
v -0.071053 -0.055000 0.000000
v -0.071053 -0.023571 0.000000
v -0.071053 -0.007857 0.000000
v -0.071053 0.007857 0.000000
v -0.071053 0.023571 0.000000
v -0.071053 0.039286 0.000000
v -0.071053 0.055000 0.000000
v -0.055263 -0.039286 0.000000
v -0.055263 -0.055000 0.000000
v -0.055263 -0.023571 0.000000
v -0.055263 -0.007857 0.000000
v -0.055263 0.007857 0.000000
v -0.055263 0.023571 0.000000
v -0.055263 0.039286 0.000000
v -0.055263 0.055000 0.000000
v -0.039474 -0.039286 0.000000
v -0.039474 -0.055000 0.000000
v -0.039474 -0.023571 0.000000
v -0.039474 -0.007857 0.000000
v -0.039474 0.007857 0.000000
v -0.039474 0.023571 0.000000
v -0.039474 0.039286 0.000000
v -0.039474 0.055000 0.000000
v -0.023684 -0.039286 0.000000
v -0.023684 -0.055000 0.000000
v -0.023684 -0.023571 0.000000
v -0.023684 -0.007857 0.000000
v -0.023684 0.007857 0.000000
v -0.023684 0.023571 0.000000
v -0.023684 0.039286 0.000000
v -0.023684 0.055000 0.000000
v -0.007895 -0.039286 0.000000
v -0.007895 -0.055000 0.000000
v -0.007895 -0.023571 0.000000
v -0.007895 -0.007857 0.000000
v -0.007895 0.007857 0.000000
v -0.007895 0.023571 0.000000
v -0.007895 0.039286 0.000000
v -0.007895 0.055000 0.000000
v 0.007895 -0.039286 0.000000
v 0.007895 -0.055000 0.000000
v 0.007895 -0.023571 0.000000
v 0.007895 -0.007857 0.000000
v 0.007895 0.007857 0.000000
v 0.007895 0.023571 0.000000
v 0.007895 0.039286 0.000000
v 0.007895 0.055000 0.000000
v 0.023684 -0.039286 0.000000
v 0.023684 -0.055000 0.000000
v 0.023684 -0.023571 0.000000
v 0.023684 -0.007857 0.000000
v 0.023684 0.007857 0.000000
v 0.023684 0.023571 0.000000
v 0.023684 0.039286 0.000000
v 0.023684 0.055000 0.000000
v 0.039474 -0.039286 0.000000
v 0.039474 -0.055000 0.000000
v 0.039474 -0.023571 0.000000
v 0.039474 -0.007857 0.000000
v 0.039474 0.007857 0.000000
v 0.039474 0.023571 0.000000
v 0.039474 0.039286 0.000000
v 0.039474 0.055000 0.000000
v 0.055263 -0.039286 0.000000
v 0.055263 -0.055000 0.000000
v 0.055263 -0.023571 0.000000
v 0.055263 -0.007857 0.000000
v 0.055263 0.007857 0.000000
v 0.055263 0.023571 0.000000
v 0.055263 0.039286 0.000000
v 0.055263 0.055000 0.000000
v 0.071053 -0.039286 0.000000
v 0.071053 -0.055000 0.000000
v 0.071053 -0.023571 0.000000
v 0.071053 -0.007857 0.000000
v 0.071053 0.007857 0.000000
v 0.071053 0.023571 0.000000
v 0.071053 0.039286 0.000000
v 0.071053 0.055000 0.000000
v 0.086842 -0.039286 0.000000
v 0.086842 -0.055000 0.000000
v 0.086842 -0.023571 0.000000
v 0.086842 -0.007857 0.000000
v 0.086842 0.007857 0.000000
v 0.086842 0.023571 0.000000
v 0.086842 0.039286 0.000000
v 0.086842 0.055000 0.000000
v 0.102632 -0.039286 0.000000
v 0.102632 -0.055000 0.000000
v 0.102632 -0.023571 0.000000
v 0.102632 -0.007857 0.000000
v 0.102632 0.007857 0.000000
v 0.102632 0.023571 0.000000
v 0.102632 0.039286 0.000000
v 0.102632 0.055000 0.000000
v 0.118421 -0.039286 0.000000
v 0.118421 -0.055000 0.000000
v 0.118421 -0.023571 0.000000
v 0.118421 -0.007857 0.000000
v 0.118421 0.007857 0.000000
v 0.118421 0.023571 0.000000
v 0.118421 0.039286 0.000000
v 0.118421 0.055000 0.000000
v 0.134211 -0.039286 0.000000
v 0.134211 -0.055000 0.000000
v 0.134211 -0.023571 0.000000
v 0.134211 -0.007857 0.000000
v 0.134211 0.007857 0.000000
v 0.134211 0.023571 0.000000
v 0.134211 0.039286 0.000000
v 0.134211 0.055000 0.000000
v 0.150000 -0.039286 0.000000
v 0.150000 -0.055000 0.000000
v 0.150000 -0.023571 0.000000
v 0.150000 -0.007857 0.000000
v 0.150000 0.007857 0.000000
v 0.150000 0.023571 0.000000
v 0.150000 0.039286 0.000000
v 0.150000 0.055000 0.000000
v -0.134211 -0.055000 0.015789
v -0.150000 -0.055000 0.015789
v -0.150000 0.055000 0.015789
v -0.134211 0.055000 0.015789
v -0.134211 -0.055000 0.031579
v -0.150000 -0.055000 0.031579
v -0.150000 0.055000 0.031579
v -0.134211 0.055000 0.031579
v -0.134211 -0.055000 0.047368
v -0.150000 -0.055000 0.047368
v -0.150000 0.055000 0.047368
v -0.134211 0.055000 0.047368
v -0.134211 -0.055000 0.063158
v -0.150000 -0.055000 0.063158
v -0.150000 0.055000 0.063158
v -0.134211 0.055000 0.063158
v -0.134211 -0.055000 0.078947
v -0.150000 -0.055000 0.078947
v -0.150000 0.055000 0.078947
v -0.134211 0.055000 0.078947
v -0.134211 -0.055000 0.094737
v -0.150000 -0.055000 0.094737
v -0.150000 0.055000 0.094737
v -0.134211 0.055000 0.094737
v -0.134211 -0.055000 0.110526
v -0.150000 -0.055000 0.110526
v -0.150000 0.055000 0.110526
v -0.134211 0.055000 0.110526
v -0.134211 -0.055000 0.126316
v -0.150000 -0.055000 0.126316
v -0.150000 0.055000 0.126316
v -0.134211 0.055000 0.126316
v -0.134211 -0.055000 0.142105
v -0.150000 -0.055000 0.142105
v -0.150000 0.055000 0.142105
v -0.134211 0.055000 0.142105
v -0.134211 -0.055000 0.157895
v -0.150000 -0.055000 0.157895
v -0.150000 0.055000 0.157895
v -0.134211 0.055000 0.157895
v -0.134211 -0.055000 0.173684
v -0.150000 -0.055000 0.173684
v -0.150000 0.055000 0.173684
v -0.134211 0.055000 0.173684
v -0.134211 -0.055000 0.189474
v -0.150000 -0.055000 0.189474
v -0.150000 0.055000 0.189474
v -0.134211 0.055000 0.189474
v -0.134211 -0.055000 0.205263
v -0.150000 -0.055000 0.205263
v -0.150000 0.055000 0.205263
v -0.134211 0.055000 0.205263
v -0.134211 -0.055000 0.221053
v -0.150000 -0.055000 0.221053
v -0.150000 0.055000 0.221053
v -0.134211 0.055000 0.221053
v -0.134211 -0.055000 0.236842
v -0.150000 -0.055000 0.236842
v -0.150000 0.055000 0.236842
v -0.134211 0.055000 0.236842
v -0.134211 -0.055000 0.252632
v -0.150000 -0.055000 0.252632
v -0.150000 0.055000 0.252632
v -0.134211 0.055000 0.252632
v -0.134211 -0.055000 0.268421
v -0.150000 -0.055000 0.268421
v -0.150000 0.055000 0.268421
v -0.134211 0.055000 0.268421
v -0.134211 -0.055000 0.284211
v -0.150000 -0.055000 0.284211
v -0.150000 0.055000 0.284211
v -0.134211 0.055000 0.284211
v -0.134211 -0.055000 0.300000
v -0.150000 -0.055000 0.300000
v -0.150000 0.055000 0.300000
v -0.134211 0.055000 0.300000
v -0.118421 -0.055000 0.015789
v -0.118421 0.055000 0.015789
v -0.118421 -0.055000 0.031579
v -0.118421 0.055000 0.031579
v -0.118421 -0.055000 0.047368
v -0.118421 0.055000 0.047368
v -0.118421 -0.055000 0.063158
v -0.118421 0.055000 0.063158
v -0.118421 -0.055000 0.078947
v -0.118421 0.055000 0.078947
v -0.118421 -0.055000 0.094737
v -0.118421 0.055000 0.094737
v -0.118421 -0.055000 0.110526
v -0.118421 0.055000 0.110526
v -0.118421 -0.055000 0.126316
v -0.118421 0.055000 0.126316
v -0.118421 -0.055000 0.142105
v -0.118421 0.055000 0.142105
v -0.118421 -0.055000 0.157895
v -0.118421 0.055000 0.157895
v -0.118421 -0.055000 0.173684
v -0.118421 0.055000 0.173684
v -0.118421 -0.055000 0.189474
v -0.118421 0.055000 0.189474
v -0.118421 -0.055000 0.205263
v -0.118421 0.055000 0.205263
v -0.118421 -0.055000 0.221053
v -0.118421 0.055000 0.221053
v -0.118421 -0.055000 0.236842
v -0.118421 0.055000 0.236842
v -0.118421 -0.055000 0.252632
v -0.118421 0.055000 0.252632
v -0.118421 -0.055000 0.268421
v -0.118421 0.055000 0.268421
v -0.118421 -0.055000 0.284211
v -0.118421 0.055000 0.284211
v -0.118421 -0.055000 0.300000
v -0.118421 0.055000 0.300000
v -0.102632 -0.055000 0.015789
v -0.102632 0.055000 0.015789
v -0.102632 -0.055000 0.031579
v -0.102632 0.055000 0.031579
v -0.102632 -0.055000 0.047368
v -0.102632 0.055000 0.047368
v -0.102632 -0.055000 0.063158
v -0.102632 0.055000 0.063158
v -0.102632 -0.055000 0.078947
v -0.102632 0.055000 0.078947
v -0.102632 -0.055000 0.094737
v -0.102632 0.055000 0.094737
v -0.102632 -0.055000 0.110526
v -0.102632 0.055000 0.110526
v -0.102632 -0.055000 0.126316
v -0.102632 0.055000 0.126316
v -0.102632 -0.055000 0.142105
v -0.102632 0.055000 0.142105
v -0.102632 -0.055000 0.157895
v -0.102632 0.055000 0.157895
v -0.102632 -0.055000 0.173684
v -0.102632 0.055000 0.173684
v -0.102632 -0.055000 0.189474
v -0.102632 0.055000 0.189474
v -0.102632 -0.055000 0.205263
v -0.102632 0.055000 0.205263
v -0.102632 -0.055000 0.221053
v -0.102632 0.055000 0.221053
v -0.102632 -0.055000 0.236842
v -0.102632 0.055000 0.236842
v -0.102632 -0.055000 0.252632
v -0.102632 0.055000 0.252632
v -0.102632 -0.055000 0.268421
v -0.102632 0.055000 0.268421
v -0.102632 -0.055000 0.284211
v -0.102632 0.055000 0.284211
v -0.102632 -0.055000 0.300000
v -0.102632 0.055000 0.300000
v -0.086842 -0.055000 0.015789
v -0.086842 0.055000 0.015789
v -0.086842 -0.055000 0.031579
v -0.086842 0.055000 0.031579
v -0.086842 -0.055000 0.047368
v -0.086842 0.055000 0.047368
v -0.086842 -0.055000 0.063158
v -0.086842 0.055000 0.063158
v -0.086842 -0.055000 0.078947
v -0.086842 0.055000 0.078947
v -0.086842 -0.055000 0.094737
v -0.086842 0.055000 0.094737
v -0.086842 -0.055000 0.110526
v -0.086842 0.055000 0.110526
v -0.086842 -0.055000 0.126316
v -0.086842 0.055000 0.126316
v -0.086842 -0.055000 0.142105
v -0.086842 0.055000 0.142105
v -0.086842 -0.055000 0.157895
v -0.086842 0.055000 0.157895
v -0.086842 -0.055000 0.173684
v -0.086842 0.055000 0.173684
v -0.086842 -0.055000 0.189474
v -0.086842 0.055000 0.189474
v -0.086842 -0.055000 0.205263
v -0.086842 0.055000 0.205263
v -0.086842 -0.055000 0.221053
v -0.086842 0.055000 0.221053
v -0.086842 -0.055000 0.236842
v -0.086842 0.055000 0.236842
v -0.086842 -0.055000 0.252632
v -0.086842 0.055000 0.252632
v -0.086842 -0.055000 0.268421
v -0.086842 0.055000 0.268421
v -0.086842 -0.055000 0.284211
v -0.086842 0.055000 0.284211
v -0.086842 -0.055000 0.300000
v -0.086842 0.055000 0.300000
v -0.071053 -0.055000 0.015497
v -0.071053 0.055000 0.015497
v -0.071053 -0.055000 0.030994
v -0.071053 0.055000 0.030994
v -0.071053 -0.055000 0.046491
v -0.071053 0.055000 0.046491
v -0.071053 -0.055000 0.061988
v -0.071053 0.055000 0.061988
v -0.071053 -0.055000 0.077485
v -0.071053 0.055000 0.077485
v -0.071053 -0.055000 0.092982
v -0.071053 0.055000 0.092982
v -0.071053 -0.055000 0.108479
v -0.071053 0.055000 0.108479
v -0.071053 -0.055000 0.123976
v -0.071053 0.055000 0.123976
v -0.071053 -0.055000 0.139473
v -0.071053 0.055000 0.139473
v -0.071053 -0.055000 0.154970
v -0.071053 0.055000 0.154970
v -0.071053 -0.055000 0.170468
v -0.071053 0.055000 0.170468
v -0.071053 -0.055000 0.185965
v -0.071053 0.055000 0.185965
v -0.071053 -0.055000 0.201462
v -0.071053 0.055000 0.201462
v -0.071053 -0.055000 0.216959
v -0.071053 0.055000 0.216959
v -0.071053 -0.055000 0.232456
v -0.071053 0.055000 0.232456
v -0.071053 -0.055000 0.247953
v -0.071053 0.055000 0.247953
v -0.071053 -0.055000 0.263450
v -0.071053 0.055000 0.263450
v -0.071053 -0.055000 0.278947
v -0.071053 0.055000 0.278947
v -0.071053 -0.055000 0.294444
v -0.071053 0.055000 0.294444
v -0.055263 -0.055000 0.014713
v -0.055263 0.055000 0.014713
v -0.055263 -0.055000 0.029425
v -0.055263 0.055000 0.029425
v -0.055263 -0.055000 0.044138
v -0.055263 0.055000 0.044138
v -0.055263 -0.055000 0.058850
v -0.055263 0.055000 0.058850
v -0.055263 -0.055000 0.073563
v -0.055263 0.055000 0.073563
v -0.055263 -0.055000 0.088276
v -0.055263 0.055000 0.088276
v -0.055263 -0.055000 0.102988
v -0.055263 0.055000 0.102988
v -0.055263 -0.055000 0.117701
v -0.055263 0.055000 0.117701
v -0.055263 -0.055000 0.132413
v -0.055263 0.055000 0.132413
v -0.055263 -0.055000 0.147126
v -0.055263 0.055000 0.147126
v -0.055263 -0.055000 0.161839
v -0.055263 0.055000 0.161839
v -0.055263 -0.055000 0.176551
v -0.055263 0.055000 0.176551
v -0.055263 -0.055000 0.191264
v -0.055263 0.055000 0.191264
v -0.055263 -0.055000 0.205976
v -0.055263 0.055000 0.205976
v -0.055263 -0.055000 0.220689
v -0.055263 0.055000 0.220689
v -0.055263 -0.055000 0.235402
v -0.055263 0.055000 0.235402
v -0.055263 -0.055000 0.250114
v -0.055263 0.055000 0.250114
v -0.055263 -0.055000 0.264827
v -0.055263 0.055000 0.264827
v -0.055263 -0.055000 0.279540
v -0.055263 0.055000 0.279540
v -0.039474 -0.055000 0.013685
v -0.039474 0.055000 0.013685
v -0.039474 -0.055000 0.027370
v -0.039474 0.055000 0.027370
v -0.039474 -0.055000 0.041056
v -0.039474 0.055000 0.041056
v -0.039474 -0.055000 0.054741
v -0.039474 0.055000 0.054741
v -0.039474 -0.055000 0.068426
v -0.039474 0.055000 0.068426
v -0.039474 -0.055000 0.082111
v -0.039474 0.055000 0.082111
v -0.039474 -0.055000 0.095796
v -0.039474 0.055000 0.095796
v -0.039474 -0.055000 0.109482
v -0.039474 0.055000 0.109482
v -0.039474 -0.055000 0.123167
v -0.039474 0.055000 0.123167
v -0.039474 -0.055000 0.136852
v -0.039474 0.055000 0.136852
v -0.039474 -0.055000 0.150537
v -0.039474 0.055000 0.150537
v -0.039474 -0.055000 0.164223
v -0.039474 0.055000 0.164223
v -0.039474 -0.055000 0.177908
v -0.039474 0.055000 0.177908
v -0.039474 -0.055000 0.191593
v -0.039474 0.055000 0.191593
v -0.039474 -0.055000 0.205278
v -0.039474 0.055000 0.205278
v -0.039474 -0.055000 0.218963
v -0.039474 0.055000 0.218963
v -0.039474 -0.055000 0.232649
v -0.039474 0.055000 0.232649
v -0.039474 -0.055000 0.246334
v -0.039474 0.055000 0.246334
v -0.039474 -0.055000 0.260019
v -0.039474 0.055000 0.260019
v -0.023684 -0.055000 0.012741
v -0.023684 0.055000 0.012741
v -0.023684 -0.055000 0.025482
v -0.023684 0.055000 0.025482
v -0.023684 -0.055000 0.038223
v -0.023684 0.055000 0.038223
v -0.023684 -0.055000 0.050964
v -0.023684 0.055000 0.050964
v -0.023684 -0.055000 0.063705
v -0.023684 0.055000 0.063705
v -0.023684 -0.055000 0.076446
v -0.023684 0.055000 0.076446
v -0.023684 -0.055000 0.089187
v -0.023684 0.055000 0.089187
v -0.023684 -0.055000 0.101928
v -0.023684 0.055000 0.101928
v -0.023684 -0.055000 0.114669
v -0.023684 0.055000 0.114669
v -0.023684 -0.055000 0.127410
v -0.023684 0.055000 0.127410
v -0.023684 -0.055000 0.140152
v -0.023684 0.055000 0.140152
v -0.023684 -0.055000 0.152893
v -0.023684 0.055000 0.152893
v -0.023684 -0.055000 0.165634
v -0.023684 0.055000 0.165634
v -0.023684 -0.055000 0.178375
v -0.023684 0.055000 0.178375
v -0.023684 -0.055000 0.191116
v -0.023684 0.055000 0.191116
v -0.023684 -0.055000 0.203857
v -0.023684 0.055000 0.203857
v -0.023684 -0.055000 0.216598
v -0.023684 0.055000 0.216598
v -0.023684 -0.055000 0.229339
v -0.023684 0.055000 0.229339
v -0.023684 -0.055000 0.242080
v -0.023684 0.055000 0.242080
v -0.007895 -0.055000 0.012180
v -0.007895 0.055000 0.012180
v -0.007895 -0.055000 0.024360
v -0.007895 0.055000 0.024360
v -0.007895 -0.055000 0.036540
v -0.007895 0.055000 0.036540
v -0.007895 -0.055000 0.048720
v -0.007895 0.055000 0.048720
v -0.007895 -0.055000 0.060899
v -0.007895 0.055000 0.060899
v -0.007895 -0.055000 0.073079
v -0.007895 0.055000 0.073079
v -0.007895 -0.055000 0.085259
v -0.007895 0.055000 0.085259
v -0.007895 -0.055000 0.097439
v -0.007895 0.055000 0.097439
v -0.007895 -0.055000 0.109619
v -0.007895 0.055000 0.109619
v -0.007895 -0.055000 0.121799
v -0.007895 0.055000 0.121799
v -0.007895 -0.055000 0.133979
v -0.007895 0.055000 0.133979
v -0.007895 -0.055000 0.146159
v -0.007895 0.055000 0.146159
v -0.007895 -0.055000 0.158338
v -0.007895 0.055000 0.158338
v -0.007895 -0.055000 0.170518
v -0.007895 0.055000 0.170518
v -0.007895 -0.055000 0.182698
v -0.007895 0.055000 0.182698
v -0.007895 -0.055000 0.194878
v -0.007895 0.055000 0.194878
v -0.007895 -0.055000 0.207058
v -0.007895 0.055000 0.207058
v -0.007895 -0.055000 0.219238
v -0.007895 0.055000 0.219238
v -0.007895 -0.055000 0.231418
v -0.007895 0.055000 0.231418
v 0.007895 -0.055000 0.012180
v 0.007895 0.055000 0.012180
v 0.007895 -0.055000 0.024360
v 0.007895 0.055000 0.024360
v 0.007895 -0.055000 0.036540
v 0.007895 0.055000 0.036540
v 0.007895 -0.055000 0.048720
v 0.007895 0.055000 0.048720
v 0.007895 -0.055000 0.060899
v 0.007895 0.055000 0.060899
v 0.007895 -0.055000 0.073079
v 0.007895 0.055000 0.073079
v 0.007895 -0.055000 0.085259
v 0.007895 0.055000 0.085259
v 0.007895 -0.055000 0.097439
v 0.007895 0.055000 0.097439
v 0.007895 -0.055000 0.109619
v 0.007895 0.055000 0.109619
v 0.007895 -0.055000 0.121799
v 0.007895 0.055000 0.121799
v 0.007895 -0.055000 0.133979
v 0.007895 0.055000 0.133979
v 0.007895 -0.055000 0.146159
v 0.007895 0.055000 0.146159
v 0.007895 -0.055000 0.158338
v 0.007895 0.055000 0.158338
v 0.007895 -0.055000 0.170518
v 0.007895 0.055000 0.170518
v 0.007895 -0.055000 0.182698
v 0.007895 0.055000 0.182698
v 0.007895 -0.055000 0.194878
v 0.007895 0.055000 0.194878
v 0.007895 -0.055000 0.207058
v 0.007895 0.055000 0.207058
v 0.007895 -0.055000 0.219238
v 0.007895 0.055000 0.219238
v 0.007895 -0.055000 0.231418
v 0.007895 0.055000 0.231418
v 0.023684 -0.055000 0.012741
v 0.023684 0.055000 0.012741
v 0.023684 -0.055000 0.025482
v 0.023684 0.055000 0.025482
v 0.023684 -0.055000 0.038223
v 0.023684 0.055000 0.038223
v 0.023684 -0.055000 0.050964
v 0.023684 0.055000 0.050964
v 0.023684 -0.055000 0.063705
v 0.023684 0.055000 0.063705
v 0.023684 -0.055000 0.076446
v 0.023684 0.055000 0.076446
v 0.023684 -0.055000 0.089187
v 0.023684 0.055000 0.089187
v 0.023684 -0.055000 0.101928
v 0.023684 0.055000 0.101928
v 0.023684 -0.055000 0.114669
v 0.023684 0.055000 0.114669
v 0.023684 -0.055000 0.127410
v 0.023684 0.055000 0.127410
v 0.023684 -0.055000 0.140152
v 0.023684 0.055000 0.140152
v 0.023684 -0.055000 0.152893
v 0.023684 0.055000 0.152893
v 0.023684 -0.055000 0.165634
v 0.023684 0.055000 0.165634
v 0.023684 -0.055000 0.178375
v 0.023684 0.055000 0.178375
v 0.023684 -0.055000 0.191116
v 0.023684 0.055000 0.191116
v 0.023684 -0.055000 0.203857
v 0.023684 0.055000 0.203857
v 0.023684 -0.055000 0.216598
v 0.023684 0.055000 0.216598
v 0.023684 -0.055000 0.229339
v 0.023684 0.055000 0.229339
v 0.023684 -0.055000 0.242080
v 0.023684 0.055000 0.242080
v 0.039474 -0.055000 0.013685
v 0.039474 0.055000 0.013685
v 0.039474 -0.055000 0.027370
v 0.039474 0.055000 0.027370
v 0.039474 -0.055000 0.041056
v 0.039474 0.055000 0.041056
v 0.039474 -0.055000 0.054741
v 0.039474 0.055000 0.054741
v 0.039474 -0.055000 0.068426
v 0.039474 0.055000 0.068426
v 0.039474 -0.055000 0.082111
v 0.039474 0.055000 0.082111
v 0.039474 -0.055000 0.095796
v 0.039474 0.055000 0.095796
v 0.039474 -0.055000 0.109482
v 0.039474 0.055000 0.109482
v 0.039474 -0.055000 0.123167
v 0.039474 0.055000 0.123167
v 0.039474 -0.055000 0.136852
v 0.039474 0.055000 0.136852
v 0.039474 -0.055000 0.150537
v 0.039474 0.055000 0.150537
v 0.039474 -0.055000 0.164223
v 0.039474 0.055000 0.164223
v 0.039474 -0.055000 0.177908
v 0.039474 0.055000 0.177908
v 0.039474 -0.055000 0.191593
v 0.039474 0.055000 0.191593
v 0.039474 -0.055000 0.205278
v 0.039474 0.055000 0.205278
v 0.039474 -0.055000 0.218963
v 0.039474 0.055000 0.218963
v 0.039474 -0.055000 0.232649
v 0.039474 0.055000 0.232649
v 0.039474 -0.055000 0.246334
v 0.039474 0.055000 0.246334
v 0.039474 -0.055000 0.260019
v 0.039474 0.055000 0.260019
v 0.055263 -0.055000 0.014713
v 0.055263 0.055000 0.014713
v 0.055263 -0.055000 0.029425
v 0.055263 0.055000 0.029425
v 0.055263 -0.055000 0.044138
v 0.055263 0.055000 0.044138
v 0.055263 -0.055000 0.058850
v 0.055263 0.055000 0.058850
v 0.055263 -0.055000 0.073563
v 0.055263 0.055000 0.073563
v 0.055263 -0.055000 0.088276
v 0.055263 0.055000 0.088276
v 0.055263 -0.055000 0.102988
v 0.055263 0.055000 0.102988
v 0.055263 -0.055000 0.117701
v 0.055263 0.055000 0.117701
v 0.055263 -0.055000 0.132413
v 0.055263 0.055000 0.132413
v 0.055263 -0.055000 0.147126
v 0.055263 0.055000 0.147126
v 0.055263 -0.055000 0.161839
v 0.055263 0.055000 0.161839
v 0.055263 -0.055000 0.176551
v 0.055263 0.055000 0.176551
v 0.055263 -0.055000 0.191264
v 0.055263 0.055000 0.191264
v 0.055263 -0.055000 0.205976
v 0.055263 0.055000 0.205976
v 0.055263 -0.055000 0.220689
v 0.055263 0.055000 0.220689
v 0.055263 -0.055000 0.235402
v 0.055263 0.055000 0.235402
v 0.055263 -0.055000 0.250114
v 0.055263 0.055000 0.250114
v 0.055263 -0.055000 0.264827
v 0.055263 0.055000 0.264827
v 0.055263 -0.055000 0.279540
v 0.055263 0.055000 0.279540
v 0.071053 -0.055000 0.015497
v 0.071053 0.055000 0.015497
v 0.071053 -0.055000 0.030994
v 0.071053 0.055000 0.030994
v 0.071053 -0.055000 0.046491
v 0.071053 0.055000 0.046491
v 0.071053 -0.055000 0.061988
v 0.071053 0.055000 0.061988
v 0.071053 -0.055000 0.077485
v 0.071053 0.055000 0.077485
v 0.071053 -0.055000 0.092982
v 0.071053 0.055000 0.092982
v 0.071053 -0.055000 0.108479
v 0.071053 0.055000 0.108479
v 0.071053 -0.055000 0.123976
v 0.071053 0.055000 0.123976
v 0.071053 -0.055000 0.139473
v 0.071053 0.055000 0.139473
v 0.071053 -0.055000 0.154970
v 0.071053 0.055000 0.154970
v 0.071053 -0.055000 0.170468
v 0.071053 0.055000 0.170468
v 0.071053 -0.055000 0.185965
v 0.071053 0.055000 0.185965
v 0.071053 -0.055000 0.201462
v 0.071053 0.055000 0.201462
v 0.071053 -0.055000 0.216959
v 0.071053 0.055000 0.216959
v 0.071053 -0.055000 0.232456
v 0.071053 0.055000 0.232456
v 0.071053 -0.055000 0.247953
v 0.071053 0.055000 0.247953
v 0.071053 -0.055000 0.263450
v 0.071053 0.055000 0.263450
v 0.071053 -0.055000 0.278947
v 0.071053 0.055000 0.278947
v 0.071053 -0.055000 0.294444
v 0.071053 0.055000 0.294444
v 0.086842 -0.055000 0.015789
v 0.086842 0.055000 0.015789
v 0.086842 -0.055000 0.031579
v 0.086842 0.055000 0.031579
v 0.086842 -0.055000 0.047368
v 0.086842 0.055000 0.047368
v 0.086842 -0.055000 0.063158
v 0.086842 0.055000 0.063158
v 0.086842 -0.055000 0.078947
v 0.086842 0.055000 0.078947
v 0.086842 -0.055000 0.094737
v 0.086842 0.055000 0.094737
v 0.086842 -0.055000 0.110526
v 0.086842 0.055000 0.110526
v 0.086842 -0.055000 0.126316
v 0.086842 0.055000 0.126316
v 0.086842 -0.055000 0.142105
v 0.086842 0.055000 0.142105
v 0.086842 -0.055000 0.157895
v 0.086842 0.055000 0.157895
v 0.086842 -0.055000 0.173684
v 0.086842 0.055000 0.173684
v 0.086842 -0.055000 0.189474
v 0.086842 0.055000 0.189474
v 0.086842 -0.055000 0.205263
v 0.086842 0.055000 0.205263
v 0.086842 -0.055000 0.221053
v 0.086842 0.055000 0.221053
v 0.086842 -0.055000 0.236842
v 0.086842 0.055000 0.236842
v 0.086842 -0.055000 0.252632
v 0.086842 0.055000 0.252632
v 0.086842 -0.055000 0.268421
v 0.086842 0.055000 0.268421
v 0.086842 -0.055000 0.284211
v 0.086842 0.055000 0.284211
v 0.086842 -0.055000 0.300000
v 0.086842 0.055000 0.300000
v 0.102632 -0.055000 0.015789
v 0.102632 0.055000 0.015789
v 0.102632 -0.055000 0.031579
v 0.102632 0.055000 0.031579
v 0.102632 -0.055000 0.047368
v 0.102632 0.055000 0.047368
v 0.102632 -0.055000 0.063158
v 0.102632 0.055000 0.063158
v 0.102632 -0.055000 0.078947
v 0.102632 0.055000 0.078947
v 0.102632 -0.055000 0.094737
v 0.102632 0.055000 0.094737
v 0.102632 -0.055000 0.110526
v 0.102632 0.055000 0.110526
v 0.102632 -0.055000 0.126316
v 0.102632 0.055000 0.126316
v 0.102632 -0.055000 0.142105
v 0.102632 0.055000 0.142105
v 0.102632 -0.055000 0.157895
v 0.102632 0.055000 0.157895
v 0.102632 -0.055000 0.173684
v 0.102632 0.055000 0.173684
v 0.102632 -0.055000 0.189474
v 0.102632 0.055000 0.189474
v 0.102632 -0.055000 0.205263
v 0.102632 0.055000 0.205263
v 0.102632 -0.055000 0.221053
v 0.102632 0.055000 0.221053
v 0.102632 -0.055000 0.236842
v 0.102632 0.055000 0.236842
v 0.102632 -0.055000 0.252632
v 0.102632 0.055000 0.252632
v 0.102632 -0.055000 0.268421
v 0.102632 0.055000 0.268421
v 0.102632 -0.055000 0.284211
v 0.102632 0.055000 0.284211
v 0.102632 -0.055000 0.300000
v 0.102632 0.055000 0.300000
v 0.118421 -0.055000 0.015789
v 0.118421 0.055000 0.015789
v 0.118421 -0.055000 0.031579
v 0.118421 0.055000 0.031579
v 0.118421 -0.055000 0.047368
v 0.118421 0.055000 0.047368
v 0.118421 -0.055000 0.063158
v 0.118421 0.055000 0.063158
v 0.118421 -0.055000 0.078947
v 0.118421 0.055000 0.078947
v 0.118421 -0.055000 0.094737
v 0.118421 0.055000 0.094737
v 0.118421 -0.055000 0.110526
v 0.118421 0.055000 0.110526
v 0.118421 -0.055000 0.126316
v 0.118421 0.055000 0.126316
v 0.118421 -0.055000 0.142105
v 0.118421 0.055000 0.142105
v 0.118421 -0.055000 0.157895
v 0.118421 0.055000 0.157895
v 0.118421 -0.055000 0.173684
v 0.118421 0.055000 0.173684
v 0.118421 -0.055000 0.189474
v 0.118421 0.055000 0.189474
v 0.118421 -0.055000 0.205263
v 0.118421 0.055000 0.205263
v 0.118421 -0.055000 0.221053
v 0.118421 0.055000 0.221053
v 0.118421 -0.055000 0.236842
v 0.118421 0.055000 0.236842
v 0.118421 -0.055000 0.252632
v 0.118421 0.055000 0.252632
v 0.118421 -0.055000 0.268421
v 0.118421 0.055000 0.268421
v 0.118421 -0.055000 0.284211
v 0.118421 0.055000 0.284211
v 0.118421 -0.055000 0.300000
v 0.118421 0.055000 0.300000
v 0.134211 -0.055000 0.015789
v 0.134211 0.055000 0.015789
v 0.134211 -0.055000 0.031579
v 0.134211 0.055000 0.031579
v 0.134211 -0.055000 0.047368
v 0.134211 0.055000 0.047368
v 0.134211 -0.055000 0.063158
v 0.134211 0.055000 0.063158
v 0.134211 -0.055000 0.078947
v 0.134211 0.055000 0.078947
v 0.134211 -0.055000 0.094737
v 0.134211 0.055000 0.094737
v 0.134211 -0.055000 0.110526
v 0.134211 0.055000 0.110526
v 0.134211 -0.055000 0.126316
v 0.134211 0.055000 0.126316
v 0.134211 -0.055000 0.142105
v 0.134211 0.055000 0.142105
v 0.134211 -0.055000 0.157895
v 0.134211 0.055000 0.157895
v 0.134211 -0.055000 0.173684
v 0.134211 0.055000 0.173684
v 0.134211 -0.055000 0.189474
v 0.134211 0.055000 0.189474
v 0.134211 -0.055000 0.205263
v 0.134211 0.055000 0.205263
v 0.134211 -0.055000 0.221053
v 0.134211 0.055000 0.221053
v 0.134211 -0.055000 0.236842
v 0.134211 0.055000 0.236842
v 0.134211 -0.055000 0.252632
v 0.134211 0.055000 0.252632
v 0.134211 -0.055000 0.268421
v 0.134211 0.055000 0.268421
v 0.134211 -0.055000 0.284211
v 0.134211 0.055000 0.284211
v 0.134211 -0.055000 0.300000
v 0.134211 0.055000 0.300000
v 0.150000 -0.055000 0.015789
v 0.150000 0.055000 0.015789
v 0.150000 -0.055000 0.031579
v 0.150000 0.055000 0.031579
v 0.150000 -0.055000 0.047368
v 0.150000 0.055000 0.047368
v 0.150000 -0.055000 0.063158
v 0.150000 0.055000 0.063158
v 0.150000 -0.055000 0.078947
v 0.150000 0.055000 0.078947
v 0.150000 -0.055000 0.094737
v 0.150000 0.055000 0.094737
v 0.150000 -0.055000 0.110526
v 0.150000 0.055000 0.110526
v 0.150000 -0.055000 0.126316
v 0.150000 0.055000 0.126316
v 0.150000 -0.055000 0.142105
v 0.150000 0.055000 0.142105
v 0.150000 -0.055000 0.157895
v 0.150000 0.055000 0.157895
v 0.150000 -0.055000 0.173684
v 0.150000 0.055000 0.173684
v 0.150000 -0.055000 0.189474
v 0.150000 0.055000 0.189474
v 0.150000 -0.055000 0.205263
v 0.150000 0.055000 0.205263
v 0.150000 -0.055000 0.221053
v 0.150000 0.055000 0.221053
v 0.150000 -0.055000 0.236842
v 0.150000 0.055000 0.236842
v 0.150000 -0.055000 0.252632
v 0.150000 0.055000 0.252632
v 0.150000 -0.055000 0.268421
v 0.150000 0.055000 0.268421
v 0.150000 -0.055000 0.284211
v 0.150000 0.055000 0.284211
v 0.150000 -0.055000 0.300000
v 0.150000 0.055000 0.300000
v -0.150000 -0.039286 0.015789
v 0.150000 -0.039286 0.015789
v -0.150000 -0.039286 0.031579
v 0.150000 -0.039286 0.031579
v -0.150000 -0.039286 0.047368
v 0.150000 -0.039286 0.047368
v -0.150000 -0.039286 0.063158
v 0.150000 -0.039286 0.063158
v -0.150000 -0.039286 0.078947
v 0.150000 -0.039286 0.078947
v -0.150000 -0.039286 0.094737
v 0.150000 -0.039286 0.094737
v -0.150000 -0.039286 0.110526
v 0.150000 -0.039286 0.110526
v -0.150000 -0.039286 0.126316
v 0.150000 -0.039286 0.126316
v -0.150000 -0.039286 0.142105
v 0.150000 -0.039286 0.142105
v -0.150000 -0.039286 0.157895
v 0.150000 -0.039286 0.157895
v -0.150000 -0.039286 0.173684
v 0.150000 -0.039286 0.173684
v -0.150000 -0.039286 0.189474
v 0.150000 -0.039286 0.189474
v -0.150000 -0.039286 0.205263
v 0.150000 -0.039286 0.205263
v -0.150000 -0.039286 0.221053
v 0.150000 -0.039286 0.221053
v -0.150000 -0.039286 0.236842
v 0.150000 -0.039286 0.236842
v -0.150000 -0.039286 0.252632
v 0.150000 -0.039286 0.252632
v -0.150000 -0.039286 0.268421
v 0.150000 -0.039286 0.268421
v -0.150000 -0.039286 0.284211
v 0.150000 -0.039286 0.284211
v -0.150000 -0.039286 0.300000
v 0.150000 -0.039286 0.300000
v -0.150000 -0.023571 0.015789
v 0.150000 -0.023571 0.015789
v -0.150000 -0.023571 0.031579
v 0.150000 -0.023571 0.031579
v -0.150000 -0.023571 0.047368
v 0.150000 -0.023571 0.047368
v -0.150000 -0.023571 0.063158
v 0.150000 -0.023571 0.063158
v -0.150000 -0.023571 0.078947
v 0.150000 -0.023571 0.078947
v -0.150000 -0.023571 0.094737
v 0.150000 -0.023571 0.094737
v -0.150000 -0.023571 0.110526
v 0.150000 -0.023571 0.110526
v -0.150000 -0.023571 0.126316
v 0.150000 -0.023571 0.126316
v -0.150000 -0.023571 0.142105
v 0.150000 -0.023571 0.142105
v -0.150000 -0.023571 0.157895
v 0.150000 -0.023571 0.157895
v -0.150000 -0.023571 0.173684
v 0.150000 -0.023571 0.173684
v -0.150000 -0.023571 0.189474
v 0.150000 -0.023571 0.189474
v -0.150000 -0.023571 0.205263
v 0.150000 -0.023571 0.205263
v -0.150000 -0.023571 0.221053
v 0.150000 -0.023571 0.221053
v -0.150000 -0.023571 0.236842
v 0.150000 -0.023571 0.236842
v -0.150000 -0.023571 0.252632
v 0.150000 -0.023571 0.252632
v -0.150000 -0.023571 0.268421
v 0.150000 -0.023571 0.268421
v -0.150000 -0.023571 0.284211
v 0.150000 -0.023571 0.284211
v -0.150000 -0.023571 0.300000
v 0.150000 -0.023571 0.300000
v -0.150000 -0.007857 0.015789
v 0.150000 -0.007857 0.015789
v -0.150000 -0.007857 0.031579
v 0.150000 -0.007857 0.031579
v -0.150000 -0.007857 0.047368
v 0.150000 -0.007857 0.047368
v -0.150000 -0.007857 0.063158
v 0.150000 -0.007857 0.063158
v -0.150000 -0.007857 0.078947
v 0.150000 -0.007857 0.078947
v -0.150000 -0.007857 0.094737
v 0.150000 -0.007857 0.094737
v -0.150000 -0.007857 0.110526
v 0.150000 -0.007857 0.110526
v -0.150000 -0.007857 0.126316
v 0.150000 -0.007857 0.126316
v -0.150000 -0.007857 0.142105
v 0.150000 -0.007857 0.142105
v -0.150000 -0.007857 0.157895
v 0.150000 -0.007857 0.157895
v -0.150000 -0.007857 0.173684
v 0.150000 -0.007857 0.173684
v -0.150000 -0.007857 0.189474
v 0.150000 -0.007857 0.189474
v -0.150000 -0.007857 0.205263
v 0.150000 -0.007857 0.205263
v -0.150000 -0.007857 0.221053
v 0.150000 -0.007857 0.221053
v -0.150000 -0.007857 0.236842
v 0.150000 -0.007857 0.236842
v -0.150000 -0.007857 0.252632
v 0.150000 -0.007857 0.252632
v -0.150000 -0.007857 0.268421
v 0.150000 -0.007857 0.268421
v -0.150000 -0.007857 0.284211
v 0.150000 -0.007857 0.284211
v -0.150000 -0.007857 0.300000
v 0.150000 -0.007857 0.300000
v -0.150000 0.007857 0.015789
v 0.150000 0.007857 0.015789
v -0.150000 0.007857 0.031579
v 0.150000 0.007857 0.031579
v -0.150000 0.007857 0.047368
v 0.150000 0.007857 0.047368
v -0.150000 0.007857 0.063158
v 0.150000 0.007857 0.063158
v -0.150000 0.007857 0.078947
v 0.150000 0.007857 0.078947
v -0.150000 0.007857 0.094737
v 0.150000 0.007857 0.094737
v -0.150000 0.007857 0.110526
v 0.150000 0.007857 0.110526
v -0.150000 0.007857 0.126316
v 0.150000 0.007857 0.126316
v -0.150000 0.007857 0.142105
v 0.150000 0.007857 0.142105
v -0.150000 0.007857 0.157895
v 0.150000 0.007857 0.157895
v -0.150000 0.007857 0.173684
v 0.150000 0.007857 0.173684
v -0.150000 0.007857 0.189474
v 0.150000 0.007857 0.189474
v -0.150000 0.007857 0.205263
v 0.150000 0.007857 0.205263
v -0.150000 0.007857 0.221053
v 0.150000 0.007857 0.221053
v -0.150000 0.007857 0.236842
v 0.150000 0.007857 0.236842
v -0.150000 0.007857 0.252632
v 0.150000 0.007857 0.252632
v -0.150000 0.007857 0.268421
v 0.150000 0.007857 0.268421
v -0.150000 0.007857 0.284211
v 0.150000 0.007857 0.284211
v -0.150000 0.007857 0.300000
v 0.150000 0.007857 0.300000
v -0.150000 0.023571 0.015789
v 0.150000 0.023571 0.015789
v -0.150000 0.023571 0.031579
v 0.150000 0.023571 0.031579
v -0.150000 0.023571 0.047368
v 0.150000 0.023571 0.047368
v -0.150000 0.023571 0.063158
v 0.150000 0.023571 0.063158
v -0.150000 0.023571 0.078947
v 0.150000 0.023571 0.078947
v -0.150000 0.023571 0.094737
v 0.150000 0.023571 0.094737
v -0.150000 0.023571 0.110526
v 0.150000 0.023571 0.110526
v -0.150000 0.023571 0.126316
v 0.150000 0.023571 0.126316
v -0.150000 0.023571 0.142105
v 0.150000 0.023571 0.142105
v -0.150000 0.023571 0.157895
v 0.150000 0.023571 0.157895
v -0.150000 0.023571 0.173684
v 0.150000 0.023571 0.173684
v -0.150000 0.023571 0.189474
v 0.150000 0.023571 0.189474
v -0.150000 0.023571 0.205263
v 0.150000 0.023571 0.205263
v -0.150000 0.023571 0.221053
v 0.150000 0.023571 0.221053
v -0.150000 0.023571 0.236842
v 0.150000 0.023571 0.236842
v -0.150000 0.023571 0.252632
v 0.150000 0.023571 0.252632
v -0.150000 0.023571 0.268421
v 0.150000 0.023571 0.268421
v -0.150000 0.023571 0.284211
v 0.150000 0.023571 0.284211
v -0.150000 0.023571 0.300000
v 0.150000 0.023571 0.300000
v -0.150000 0.039286 0.015789
v 0.150000 0.039286 0.015789
v -0.150000 0.039286 0.031579
v 0.150000 0.039286 0.031579
v -0.150000 0.039286 0.047368
v 0.150000 0.039286 0.047368
v -0.150000 0.039286 0.063158
v 0.150000 0.039286 0.063158
v -0.150000 0.039286 0.078947
v 0.150000 0.039286 0.078947
v -0.150000 0.039286 0.094737
v 0.150000 0.039286 0.094737
v -0.150000 0.039286 0.110526
v 0.150000 0.039286 0.110526
v -0.150000 0.039286 0.126316
v 0.150000 0.039286 0.126316
v -0.150000 0.039286 0.142105
v 0.150000 0.039286 0.142105
v -0.150000 0.039286 0.157895
v 0.150000 0.039286 0.157895
v -0.150000 0.039286 0.173684
v 0.150000 0.039286 0.173684
v -0.150000 0.039286 0.189474
v 0.150000 0.039286 0.189474
v -0.150000 0.039286 0.205263
v 0.150000 0.039286 0.205263
v -0.150000 0.039286 0.221053
v 0.150000 0.039286 0.221053
v -0.150000 0.039286 0.236842
v 0.150000 0.039286 0.236842
v -0.150000 0.039286 0.252632
v 0.150000 0.039286 0.252632
v -0.150000 0.039286 0.268421
v 0.150000 0.039286 0.268421
v -0.150000 0.039286 0.284211
v 0.150000 0.039286 0.284211
v -0.150000 0.039286 0.300000
v 0.150000 0.039286 0.300000
v -0.134211 -0.051219 0.315000
v -0.150000 -0.051219 0.315000
v -0.150000 0.051219 0.315000
v -0.134211 0.051219 0.315000
v -0.134211 -0.047438 0.330000
v -0.150000 -0.047438 0.330000
v -0.150000 0.047438 0.330000
v -0.134211 0.047438 0.330000
v -0.134211 -0.043656 0.345000
v -0.150000 -0.043656 0.345000
v -0.150000 0.043656 0.345000
v -0.134211 0.043656 0.345000
v -0.134211 -0.039875 0.360000
v -0.150000 -0.039875 0.360000
v -0.150000 0.039875 0.360000
v -0.134211 0.039875 0.360000
v -0.134211 -0.036094 0.375000
v -0.150000 -0.036094 0.375000
v -0.150000 0.036094 0.375000
v -0.134211 0.036094 0.375000
v -0.134211 -0.032312 0.390000
v -0.150000 -0.032312 0.390000
v -0.150000 0.032312 0.390000
v -0.134211 0.032312 0.390000
v -0.134211 -0.028531 0.405000
v -0.150000 -0.028531 0.405000
v -0.150000 0.028531 0.405000
v -0.134211 0.028531 0.405000
v -0.134211 -0.024750 0.420000
v -0.150000 -0.024750 0.420000
v -0.150000 0.024750 0.420000
v -0.134211 0.024750 0.420000
v -0.118421 -0.051219 0.315000
v -0.118421 0.051219 0.315000
v -0.118421 -0.047438 0.330000
v -0.118421 0.047438 0.330000
v -0.118421 -0.043656 0.345000
v -0.118421 0.043656 0.345000
v -0.118421 -0.039875 0.360000
v -0.118421 0.039875 0.360000
v -0.118421 -0.036094 0.375000
v -0.118421 0.036094 0.375000
v -0.118421 -0.032312 0.390000
v -0.118421 0.032312 0.390000
v -0.118421 -0.028531 0.405000
v -0.118421 0.028531 0.405000
v -0.118421 -0.024750 0.420000
v -0.118421 0.024750 0.420000
v -0.102632 -0.051219 0.315000
v -0.102632 0.051219 0.315000
v -0.102632 -0.047438 0.330000
v -0.102632 0.047438 0.330000
v -0.102632 -0.043656 0.345000
v -0.102632 0.043656 0.345000
v -0.102632 -0.039875 0.360000
v -0.102632 0.039875 0.360000
v -0.102632 -0.036094 0.375000
v -0.102632 0.036094 0.375000
v -0.102632 -0.032312 0.390000
v -0.102632 0.032312 0.390000
v -0.102632 -0.028531 0.405000
v -0.102632 0.028531 0.405000
v -0.102632 -0.024750 0.420000
v -0.102632 0.024750 0.420000
v -0.086842 -0.051219 0.315000
v -0.086842 0.051219 0.315000
v -0.086842 -0.047438 0.330000
v -0.086842 0.047438 0.330000
v -0.086842 -0.043656 0.345000
v -0.086842 0.043656 0.345000
v -0.086842 -0.039875 0.360000
v -0.086842 0.039875 0.360000
v -0.086842 -0.036094 0.375000
v -0.086842 0.036094 0.375000
v -0.086842 -0.032312 0.390000
v -0.086842 0.032312 0.390000
v -0.086842 -0.028531 0.405000
v -0.086842 0.028531 0.405000
v -0.086842 -0.024750 0.420000
v -0.086842 0.024750 0.420000
v 0.102632 -0.051219 0.315000
v 0.086842 -0.051219 0.315000
v 0.086842 0.051219 0.315000
v 0.102632 0.051219 0.315000
v 0.102632 -0.047438 0.330000
v 0.086842 -0.047438 0.330000
v 0.086842 0.047438 0.330000
v 0.102632 0.047438 0.330000
v 0.102632 -0.043656 0.345000
v 0.086842 -0.043656 0.345000
v 0.086842 0.043656 0.345000
v 0.102632 0.043656 0.345000
v 0.102632 -0.039875 0.360000
v 0.086842 -0.039875 0.360000
v 0.086842 0.039875 0.360000
v 0.102632 0.039875 0.360000
v 0.102632 -0.036094 0.375000
v 0.086842 -0.036094 0.375000
v 0.086842 0.036094 0.375000
v 0.102632 0.036094 0.375000
v 0.102632 -0.032312 0.390000
v 0.086842 -0.032312 0.390000
v 0.086842 0.032312 0.390000
v 0.102632 0.032312 0.390000
v 0.102632 -0.028531 0.405000
v 0.086842 -0.028531 0.405000
v 0.086842 0.028531 0.405000
v 0.102632 0.028531 0.405000
v 0.102632 -0.024750 0.420000
v 0.086842 -0.024750 0.420000
v 0.086842 0.024750 0.420000
v 0.102632 0.024750 0.420000
v 0.118421 -0.051219 0.315000
v 0.118421 0.051219 0.315000
v 0.118421 -0.047438 0.330000
v 0.118421 0.047438 0.330000
v 0.118421 -0.043656 0.345000
v 0.118421 0.043656 0.345000
v 0.118421 -0.039875 0.360000
v 0.118421 0.039875 0.360000
v 0.118421 -0.036094 0.375000
v 0.118421 0.036094 0.375000
v 0.118421 -0.032312 0.390000
v 0.118421 0.032312 0.390000
v 0.118421 -0.028531 0.405000
v 0.118421 0.028531 0.405000
v 0.118421 -0.024750 0.420000
v 0.118421 0.024750 0.420000
v 0.134211 -0.051219 0.315000
v 0.134211 0.051219 0.315000
v 0.134211 -0.047438 0.330000
v 0.134211 0.047438 0.330000
v 0.134211 -0.043656 0.345000
v 0.134211 0.043656 0.345000
v 0.134211 -0.039875 0.360000
v 0.134211 0.039875 0.360000
v 0.134211 -0.036094 0.375000
v 0.134211 0.036094 0.375000
v 0.134211 -0.032312 0.390000
v 0.134211 0.032312 0.390000
v 0.134211 -0.028531 0.405000
v 0.134211 0.028531 0.405000
v 0.134211 -0.024750 0.420000
v 0.134211 0.024750 0.420000
v 0.150000 -0.051219 0.315000
v 0.150000 0.051219 0.315000
v 0.150000 -0.047438 0.330000
v 0.150000 0.047438 0.330000
v 0.150000 -0.043656 0.345000
v 0.150000 0.043656 0.345000
v 0.150000 -0.039875 0.360000
v 0.150000 0.039875 0.360000
v 0.150000 -0.036094 0.375000
v 0.150000 0.036094 0.375000
v 0.150000 -0.032312 0.390000
v 0.150000 0.032312 0.390000
v 0.150000 -0.028531 0.405000
v 0.150000 0.028531 0.405000
v 0.150000 -0.024750 0.420000
v 0.150000 0.024750 0.420000
v -0.134211 -0.017679 0.420000
v -0.150000 -0.017679 0.420000
v -0.134211 -0.010607 0.420000
v -0.150000 -0.010607 0.420000
v -0.134211 -0.003536 0.420000
v -0.150000 -0.003536 0.420000
v -0.134211 0.003536 0.420000
v -0.150000 0.003536 0.420000
v -0.134211 0.010607 0.420000
v -0.150000 0.010607 0.420000
v -0.134211 0.017679 0.420000
v -0.150000 0.017679 0.420000
v -0.118421 -0.017679 0.420000
v -0.118421 -0.010607 0.420000
v -0.118421 -0.003536 0.420000
v -0.118421 0.003536 0.420000
v -0.118421 0.010607 0.420000
v -0.118421 0.017679 0.420000
v -0.102632 -0.017679 0.420000
v -0.102632 -0.010607 0.420000
v -0.102632 -0.003536 0.420000
v -0.102632 0.003536 0.420000
v -0.102632 0.010607 0.420000
v -0.102632 0.017679 0.420000
v -0.086842 -0.017679 0.420000
v -0.086842 -0.010607 0.420000
v -0.086842 -0.003536 0.420000
v -0.086842 0.003536 0.420000
v -0.086842 0.010607 0.420000
v -0.086842 0.017679 0.420000
v 0.102632 -0.017679 0.420000
v 0.086842 -0.017679 0.420000
v 0.102632 -0.010607 0.420000
v 0.086842 -0.010607 0.420000
v 0.102632 -0.003536 0.420000
v 0.086842 -0.003536 0.420000
v 0.102632 0.003536 0.420000
v 0.086842 0.003536 0.420000
v 0.102632 0.010607 0.420000
v 0.086842 0.010607 0.420000
v 0.102632 0.017679 0.420000
v 0.086842 0.017679 0.420000
v 0.118421 -0.017679 0.420000
v 0.118421 -0.010607 0.420000
v 0.118421 -0.003536 0.420000
v 0.118421 0.003536 0.420000
v 0.118421 0.010607 0.420000
v 0.118421 0.017679 0.420000
v 0.134211 -0.017679 0.420000
v 0.134211 -0.010607 0.420000
v 0.134211 -0.003536 0.420000
v 0.134211 0.003536 0.420000
v 0.134211 0.010607 0.420000
v 0.134211 0.017679 0.420000
v 0.150000 -0.017679 0.420000
v 0.150000 -0.010607 0.420000
v 0.150000 -0.003536 0.420000
v 0.150000 0.003536 0.420000
v 0.150000 0.010607 0.420000
v 0.150000 0.017679 0.420000
f 1 2 3
f 1 3 4
f 2 5 6
f 2 6 3
f 5 7 8
f 5 8 6
f 7 9 10
f 7 10 8
f 9 11 12
f 9 12 10
f 11 13 14
f 11 14 12
f 13 15 16
f 13 16 14
f 4 3 17
f 4 17 18
f 3 6 19
f 3 19 17
f 6 8 20
f 6 20 19
f 8 10 21
f 8 21 20
f 10 12 22
f 10 22 21
f 12 14 23
f 12 23 22
f 14 16 24
f 14 24 23
f 18 17 25
f 18 25 26
f 17 19 27
f 17 27 25
f 19 20 28
f 19 28 27
f 20 21 29
f 20 29 28
f 21 22 30
f 21 30 29
f 22 23 31
f 22 31 30
f 23 24 32
f 23 32 31
f 26 25 33
f 26 33 34
f 25 27 35
f 25 35 33
f 27 28 36
f 27 36 35
f 28 29 37
f 28 37 36
f 29 30 38
f 29 38 37
f 30 31 39
f 30 39 38
f 31 32 40
f 31 40 39
f 34 33 41
f 34 41 42
f 33 35 43
f 33 43 41
f 35 36 44
f 35 44 43
f 36 37 45
f 36 45 44
f 37 38 46
f 37 46 45
f 38 39 47
f 38 47 46
f 39 40 48
f 39 48 47
f 42 41 49
f 42 49 50
f 41 43 51
f 41 51 49
f 43 44 52
f 43 52 51
f 44 45 53
f 44 53 52
f 45 46 54
f 45 54 53
f 46 47 55
f 46 55 54
f 47 48 56
f 47 56 55
f 50 49 57
f 50 57 58
f 49 51 59
f 49 59 57
f 51 52 60
f 51 60 59
f 52 53 61
f 52 61 60
f 53 54 62
f 53 62 61
f 54 55 63
f 54 63 62
f 55 56 64
f 55 64 63
f 58 57 65
f 58 65 66
f 57 59 67
f 57 67 65
f 59 60 68
f 59 68 67
f 60 61 69
f 60 69 68
f 61 62 70
f 61 70 69
f 62 63 71
f 62 71 70
f 63 64 72
f 63 72 71
f 66 65 73
f 66 73 74
f 65 67 75
f 65 75 73
f 67 68 76
f 67 76 75
f 68 69 77
f 68 77 76
f 69 70 78
f 69 78 77
f 70 71 79
f 70 79 78
f 71 72 80
f 71 80 79
f 74 73 81
f 74 81 82
f 73 75 83
f 73 83 81
f 75 76 84
f 75 84 83
f 76 77 85
f 76 85 84
f 77 78 86
f 77 86 85
f 78 79 87
f 78 87 86
f 79 80 88
f 79 88 87
f 82 81 89
f 82 89 90
f 81 83 91
f 81 91 89
f 83 84 92
f 83 92 91
f 84 85 93
f 84 93 92
f 85 86 94
f 85 94 93
f 86 87 95
f 86 95 94
f 87 88 96
f 87 96 95
f 90 89 97
f 90 97 98
f 89 91 99
f 89 99 97
f 91 92 100
f 91 100 99
f 92 93 101
f 92 101 100
f 93 94 102
f 93 102 101
f 94 95 103
f 94 103 102
f 95 96 104
f 95 104 103
f 98 97 105
f 98 105 106
f 97 99 107
f 97 107 105
f 99 100 108
f 99 108 107
f 100 101 109
f 100 109 108
f 101 102 110
f 101 110 109
f 102 103 111
f 102 111 110
f 103 104 112
f 103 112 111
f 106 105 113
f 106 113 114
f 105 107 115
f 105 115 113
f 107 108 116
f 107 116 115
f 108 109 117
f 108 117 116
f 109 110 118
f 109 118 117
f 110 111 119
f 110 119 118
f 111 112 120
f 111 120 119
f 114 113 121
f 114 121 122
f 113 115 123
f 113 123 121
f 115 116 124
f 115 124 123
f 116 117 125
f 116 125 124
f 117 118 126
f 117 126 125
f 118 119 127
f 118 127 126
f 119 120 128
f 119 128 127
f 122 121 129
f 122 129 130
f 121 123 131
f 121 131 129
f 123 124 132
f 123 132 131
f 124 125 133
f 124 133 132
f 125 126 134
f 125 134 133
f 126 127 135
f 126 135 134
f 127 128 136
f 127 136 135
f 130 129 137
f 130 137 138
f 129 131 139
f 129 139 137
f 131 132 140
f 131 140 139
f 132 133 141
f 132 141 140
f 133 134 142
f 133 142 141
f 134 135 143
f 134 143 142
f 135 136 144
f 135 144 143
f 138 137 145
f 138 145 146
f 137 139 147
f 137 147 145
f 139 140 148
f 139 148 147
f 140 141 149
f 140 149 148
f 141 142 150
f 141 150 149
f 142 143 151
f 142 151 150
f 143 144 152
f 143 152 151
f 146 145 153
f 146 153 154
f 145 147 155
f 145 155 153
f 147 148 156
f 147 156 155
f 148 149 157
f 148 157 156
f 149 150 158
f 149 158 157
f 150 151 159
f 150 159 158
f 151 152 160
f 151 160 159
f 1 4 161
f 1 161 162
f 15 163 164
f 15 164 16
f 162 161 165
f 162 165 166
f 163 167 168
f 163 168 164
f 166 165 169
f 166 169 170
f 167 171 172
f 167 172 168
f 170 169 173
f 170 173 174
f 171 175 176
f 171 176 172
f 174 173 177
f 174 177 178
f 175 179 180
f 175 180 176
f 178 177 181
f 178 181 182
f 179 183 184
f 179 184 180
f 182 181 185
f 182 185 186
f 183 187 188
f 183 188 184
f 186 185 189
f 186 189 190
f 187 191 192
f 187 192 188
f 190 189 193
f 190 193 194
f 191 195 196
f 191 196 192
f 194 193 197
f 194 197 198
f 195 199 200
f 195 200 196
f 198 197 201
f 198 201 202
f 199 203 204
f 199 204 200
f 202 201 205
f 202 205 206
f 203 207 208
f 203 208 204
f 206 205 209
f 206 209 210
f 207 211 212
f 207 212 208
f 210 209 213
f 210 213 214
f 211 215 216
f 211 216 212
f 214 213 217
f 214 217 218
f 215 219 220
f 215 220 216
f 218 217 221
f 218 221 222
f 219 223 224
f 219 224 220
f 222 221 225
f 222 225 226
f 223 227 228
f 223 228 224
f 226 225 229
f 226 229 230
f 227 231 232
f 227 232 228
f 230 229 233
f 230 233 234
f 231 235 236
f 231 236 232
f 4 18 237
f 4 237 161
f 16 164 238
f 16 238 24
f 161 237 239
f 161 239 165
f 164 168 240
f 164 240 238
f 165 239 241
f 165 241 169
f 168 172 242
f 168 242 240
f 169 241 243
f 169 243 173
f 172 176 244
f 172 244 242
f 173 243 245
f 173 245 177
f 176 180 246
f 176 246 244
f 177 245 247
f 177 247 181
f 180 184 248
f 180 248 246
f 181 247 249
f 181 249 185
f 184 188 250
f 184 250 248
f 185 249 251
f 185 251 189
f 188 192 252
f 188 252 250
f 189 251 253
f 189 253 193
f 192 196 254
f 192 254 252
f 193 253 255
f 193 255 197
f 196 200 256
f 196 256 254
f 197 255 257
f 197 257 201
f 200 204 258
f 200 258 256
f 201 257 259
f 201 259 205
f 204 208 260
f 204 260 258
f 205 259 261
f 205 261 209
f 208 212 262
f 208 262 260
f 209 261 263
f 209 263 213
f 212 216 264
f 212 264 262
f 213 263 265
f 213 265 217
f 216 220 266
f 216 266 264
f 217 265 267
f 217 267 221
f 220 224 268
f 220 268 266
f 221 267 269
f 221 269 225
f 224 228 270
f 224 270 268
f 225 269 271
f 225 271 229
f 228 232 272
f 228 272 270
f 229 271 273
f 229 273 233
f 232 236 274
f 232 274 272
f 18 26 275
f 18 275 237
f 24 238 276
f 24 276 32
f 237 275 277
f 237 277 239
f 238 240 278
f 238 278 276
f 239 277 279
f 239 279 241
f 240 242 280
f 240 280 278
f 241 279 281
f 241 281 243
f 242 244 282
f 242 282 280
f 243 281 283
f 243 283 245
f 244 246 284
f 244 284 282
f 245 283 285
f 245 285 247
f 246 248 286
f 246 286 284
f 247 285 287
f 247 287 249
f 248 250 288
f 248 288 286
f 249 287 289
f 249 289 251
f 250 252 290
f 250 290 288
f 251 289 291
f 251 291 253
f 252 254 292
f 252 292 290
f 253 291 293
f 253 293 255
f 254 256 294
f 254 294 292
f 255 293 295
f 255 295 257
f 256 258 296
f 256 296 294
f 257 295 297
f 257 297 259
f 258 260 298
f 258 298 296
f 259 297 299
f 259 299 261
f 260 262 300
f 260 300 298
f 261 299 301
f 261 301 263
f 262 264 302
f 262 302 300
f 263 301 303
f 263 303 265
f 264 266 304
f 264 304 302
f 265 303 305
f 265 305 267
f 266 268 306
f 266 306 304
f 267 305 307
f 267 307 269
f 268 270 308
f 268 308 306
f 269 307 309
f 269 309 271
f 270 272 310
f 270 310 308
f 271 309 311
f 271 311 273
f 272 274 312
f 272 312 310
f 26 34 313
f 26 313 275
f 32 276 314
f 32 314 40
f 275 313 315
f 275 315 277
f 276 278 316
f 276 316 314
f 277 315 317
f 277 317 279
f 278 280 318
f 278 318 316
f 279 317 319
f 279 319 281
f 280 282 320
f 280 320 318
f 281 319 321
f 281 321 283
f 282 284 322
f 282 322 320
f 283 321 323
f 283 323 285
f 284 286 324
f 284 324 322
f 285 323 325
f 285 325 287
f 286 288 326
f 286 326 324
f 287 325 327
f 287 327 289
f 288 290 328
f 288 328 326
f 289 327 329
f 289 329 291
f 290 292 330
f 290 330 328
f 291 329 331
f 291 331 293
f 292 294 332
f 292 332 330
f 293 331 333
f 293 333 295
f 294 296 334
f 294 334 332
f 295 333 335
f 295 335 297
f 296 298 336
f 296 336 334
f 297 335 337
f 297 337 299
f 298 300 338
f 298 338 336
f 299 337 339
f 299 339 301
f 300 302 340
f 300 340 338
f 301 339 341
f 301 341 303
f 302 304 342
f 302 342 340
f 303 341 343
f 303 343 305
f 304 306 344
f 304 344 342
f 305 343 345
f 305 345 307
f 306 308 346
f 306 346 344
f 307 345 347
f 307 347 309
f 308 310 348
f 308 348 346
f 309 347 349
f 309 349 311
f 310 312 350
f 310 350 348
f 34 42 351
f 34 351 313
f 40 314 352
f 40 352 48
f 313 351 353
f 313 353 315
f 314 316 354
f 314 354 352
f 315 353 355
f 315 355 317
f 316 318 356
f 316 356 354
f 317 355 357
f 317 357 319
f 318 320 358
f 318 358 356
f 319 357 359
f 319 359 321
f 320 322 360
f 320 360 358
f 321 359 361
f 321 361 323
f 322 324 362
f 322 362 360
f 323 361 363
f 323 363 325
f 324 326 364
f 324 364 362
f 325 363 365
f 325 365 327
f 326 328 366
f 326 366 364
f 327 365 367
f 327 367 329
f 328 330 368
f 328 368 366
f 329 367 369
f 329 369 331
f 330 332 370
f 330 370 368
f 331 369 371
f 331 371 333
f 332 334 372
f 332 372 370
f 333 371 373
f 333 373 335
f 334 336 374
f 334 374 372
f 335 373 375
f 335 375 337
f 336 338 376
f 336 376 374
f 337 375 377
f 337 377 339
f 338 340 378
f 338 378 376
f 339 377 379
f 339 379 341
f 340 342 380
f 340 380 378
f 341 379 381
f 341 381 343
f 342 344 382
f 342 382 380
f 343 381 383
f 343 383 345
f 344 346 384
f 344 384 382
f 345 383 385
f 345 385 347
f 346 348 386
f 346 386 384
f 347 385 387
f 347 387 349
f 348 350 388
f 348 388 386
f 42 50 389
f 42 389 351
f 48 352 390
f 48 390 56
f 351 389 391
f 351 391 353
f 352 354 392
f 352 392 390
f 353 391 393
f 353 393 355
f 354 356 394
f 354 394 392
f 355 393 395
f 355 395 357
f 356 358 396
f 356 396 394
f 357 395 397
f 357 397 359
f 358 360 398
f 358 398 396
f 359 397 399
f 359 399 361
f 360 362 400
f 360 400 398
f 361 399 401
f 361 401 363
f 362 364 402
f 362 402 400
f 363 401 403
f 363 403 365
f 364 366 404
f 364 404 402
f 365 403 405
f 365 405 367
f 366 368 406
f 366 406 404
f 367 405 407
f 367 407 369
f 368 370 408
f 368 408 406
f 369 407 409
f 369 409 371
f 370 372 410
f 370 410 408
f 371 409 411
f 371 411 373
f 372 374 412
f 372 412 410
f 373 411 413
f 373 413 375
f 374 376 414
f 374 414 412
f 375 413 415
f 375 415 377
f 376 378 416
f 376 416 414
f 377 415 417
f 377 417 379
f 378 380 418
f 378 418 416
f 379 417 419
f 379 419 381
f 380 382 420
f 380 420 418
f 381 419 421
f 381 421 383
f 382 384 422
f 382 422 420
f 383 421 423
f 383 423 385
f 384 386 424
f 384 424 422
f 385 423 425
f 385 425 387
f 386 388 426
f 386 426 424
f 50 58 427
f 50 427 389
f 56 390 428
f 56 428 64
f 389 427 429
f 389 429 391
f 390 392 430
f 390 430 428
f 391 429 431
f 391 431 393
f 392 394 432
f 392 432 430
f 393 431 433
f 393 433 395
f 394 396 434
f 394 434 432
f 395 433 435
f 395 435 397
f 396 398 436
f 396 436 434
f 397 435 437
f 397 437 399
f 398 400 438
f 398 438 436
f 399 437 439
f 399 439 401
f 400 402 440
f 400 440 438
f 401 439 441
f 401 441 403
f 402 404 442
f 402 442 440
f 403 441 443
f 403 443 405
f 404 406 444
f 404 444 442
f 405 443 445
f 405 445 407
f 406 408 446
f 406 446 444
f 407 445 447
f 407 447 409
f 408 410 448
f 408 448 446
f 409 447 449
f 409 449 411
f 410 412 450
f 410 450 448
f 411 449 451
f 411 451 413
f 412 414 452
f 412 452 450
f 413 451 453
f 413 453 415
f 414 416 454
f 414 454 452
f 415 453 455
f 415 455 417
f 416 418 456
f 416 456 454
f 417 455 457
f 417 457 419
f 418 420 458
f 418 458 456
f 419 457 459
f 419 459 421
f 420 422 460
f 420 460 458
f 421 459 461
f 421 461 423
f 422 424 462
f 422 462 460
f 423 461 463
f 423 463 425
f 424 426 464
f 424 464 462
f 58 66 465
f 58 465 427
f 64 428 466
f 64 466 72
f 427 465 467
f 427 467 429
f 428 430 468
f 428 468 466
f 429 467 469
f 429 469 431
f 430 432 470
f 430 470 468
f 431 469 471
f 431 471 433
f 432 434 472
f 432 472 470
f 433 471 473
f 433 473 435
f 434 436 474
f 434 474 472
f 435 473 475
f 435 475 437
f 436 438 476
f 436 476 474
f 437 475 477
f 437 477 439
f 438 440 478
f 438 478 476
f 439 477 479
f 439 479 441
f 440 442 480
f 440 480 478
f 441 479 481
f 441 481 443
f 442 444 482
f 442 482 480
f 443 481 483
f 443 483 445
f 444 446 484
f 444 484 482
f 445 483 485
f 445 485 447
f 446 448 486
f 446 486 484
f 447 485 487
f 447 487 449
f 448 450 488
f 448 488 486
f 449 487 489
f 449 489 451
f 450 452 490
f 450 490 488
f 451 489 491
f 451 491 453
f 452 454 492
f 452 492 490
f 453 491 493
f 453 493 455
f 454 456 494
f 454 494 492
f 455 493 495
f 455 495 457
f 456 458 496
f 456 496 494
f 457 495 497
f 457 497 459
f 458 460 498
f 458 498 496
f 459 497 499
f 459 499 461
f 460 462 500
f 460 500 498
f 461 499 501
f 461 501 463
f 462 464 502
f 462 502 500
f 66 74 503
f 66 503 465
f 72 466 504
f 72 504 80
f 465 503 505
f 465 505 467
f 466 468 506
f 466 506 504
f 467 505 507
f 467 507 469
f 468 470 508
f 468 508 506
f 469 507 509
f 469 509 471
f 470 472 510
f 470 510 508
f 471 509 511
f 471 511 473
f 472 474 512
f 472 512 510
f 473 511 513
f 473 513 475
f 474 476 514
f 474 514 512
f 475 513 515
f 475 515 477
f 476 478 516
f 476 516 514
f 477 515 517
f 477 517 479
f 478 480 518
f 478 518 516
f 479 517 519
f 479 519 481
f 480 482 520
f 480 520 518
f 481 519 521
f 481 521 483
f 482 484 522
f 482 522 520
f 483 521 523
f 483 523 485
f 484 486 524
f 484 524 522
f 485 523 525
f 485 525 487
f 486 488 526
f 486 526 524
f 487 525 527
f 487 527 489
f 488 490 528
f 488 528 526
f 489 527 529
f 489 529 491
f 490 492 530
f 490 530 528
f 491 529 531
f 491 531 493
f 492 494 532
f 492 532 530
f 493 531 533
f 493 533 495
f 494 496 534
f 494 534 532
f 495 533 535
f 495 535 497
f 496 498 536
f 496 536 534
f 497 535 537
f 497 537 499
f 498 500 538
f 498 538 536
f 499 537 539
f 499 539 501
f 500 502 540
f 500 540 538
f 74 82 541
f 74 541 503
f 80 504 542
f 80 542 88
f 503 541 543
f 503 543 505
f 504 506 544
f 504 544 542
f 505 543 545
f 505 545 507
f 506 508 546
f 506 546 544
f 507 545 547
f 507 547 509
f 508 510 548
f 508 548 546
f 509 547 549
f 509 549 511
f 510 512 550
f 510 550 548
f 511 549 551
f 511 551 513
f 512 514 552
f 512 552 550
f 513 551 553
f 513 553 515
f 514 516 554
f 514 554 552
f 515 553 555
f 515 555 517
f 516 518 556
f 516 556 554
f 517 555 557
f 517 557 519
f 518 520 558
f 518 558 556
f 519 557 559
f 519 559 521
f 520 522 560
f 520 560 558
f 521 559 561
f 521 561 523
f 522 524 562
f 522 562 560
f 523 561 563
f 523 563 525
f 524 526 564
f 524 564 562
f 525 563 565
f 525 565 527
f 526 528 566
f 526 566 564
f 527 565 567
f 527 567 529
f 528 530 568
f 528 568 566
f 529 567 569
f 529 569 531
f 530 532 570
f 530 570 568
f 531 569 571
f 531 571 533
f 532 534 572
f 532 572 570
f 533 571 573
f 533 573 535
f 534 536 574
f 534 574 572
f 535 573 575
f 535 575 537
f 536 538 576
f 536 576 574
f 537 575 577
f 537 577 539
f 538 540 578
f 538 578 576
f 82 90 579
f 82 579 541
f 88 542 580
f 88 580 96
f 541 579 581
f 541 581 543
f 542 544 582
f 542 582 580
f 543 581 583
f 543 583 545
f 544 546 584
f 544 584 582
f 545 583 585
f 545 585 547
f 546 548 586
f 546 586 584
f 547 585 587
f 547 587 549
f 548 550 588
f 548 588 586
f 549 587 589
f 549 589 551
f 550 552 590
f 550 590 588
f 551 589 591
f 551 591 553
f 552 554 592
f 552 592 590
f 553 591 593
f 553 593 555
f 554 556 594
f 554 594 592
f 555 593 595
f 555 595 557
f 556 558 596
f 556 596 594
f 557 595 597
f 557 597 559
f 558 560 598
f 558 598 596
f 559 597 599
f 559 599 561
f 560 562 600
f 560 600 598
f 561 599 601
f 561 601 563
f 562 564 602
f 562 602 600
f 563 601 603
f 563 603 565
f 564 566 604
f 564 604 602
f 565 603 605
f 565 605 567
f 566 568 606
f 566 606 604
f 567 605 607
f 567 607 569
f 568 570 608
f 568 608 606
f 569 607 609
f 569 609 571
f 570 572 610
f 570 610 608
f 571 609 611
f 571 611 573
f 572 574 612
f 572 612 610
f 573 611 613
f 573 613 575
f 574 576 614
f 574 614 612
f 575 613 615
f 575 615 577
f 576 578 616
f 576 616 614
f 90 98 617
f 90 617 579
f 96 580 618
f 96 618 104
f 579 617 619
f 579 619 581
f 580 582 620
f 580 620 618
f 581 619 621
f 581 621 583
f 582 584 622
f 582 622 620
f 583 621 623
f 583 623 585
f 584 586 624
f 584 624 622
f 585 623 625
f 585 625 587
f 586 588 626
f 586 626 624
f 587 625 627
f 587 627 589
f 588 590 628
f 588 628 626
f 589 627 629
f 589 629 591
f 590 592 630
f 590 630 628
f 591 629 631
f 591 631 593
f 592 594 632
f 592 632 630
f 593 631 633
f 593 633 595
f 594 596 634
f 594 634 632
f 595 633 635
f 595 635 597
f 596 598 636
f 596 636 634
f 597 635 637
f 597 637 599
f 598 600 638
f 598 638 636
f 599 637 639
f 599 639 601
f 600 602 640
f 600 640 638
f 601 639 641
f 601 641 603
f 602 604 642
f 602 642 640
f 603 641 643
f 603 643 605
f 604 606 644
f 604 644 642
f 605 643 645
f 605 645 607
f 606 608 646
f 606 646 644
f 607 645 647
f 607 647 609
f 608 610 648
f 608 648 646
f 609 647 649
f 609 649 611
f 610 612 650
f 610 650 648
f 611 649 651
f 611 651 613
f 612 614 652
f 612 652 650
f 613 651 653
f 613 653 615
f 614 616 654
f 614 654 652
f 98 106 655
f 98 655 617
f 104 618 656
f 104 656 112
f 617 655 657
f 617 657 619
f 618 620 658
f 618 658 656
f 619 657 659
f 619 659 621
f 620 622 660
f 620 660 658
f 621 659 661
f 621 661 623
f 622 624 662
f 622 662 660
f 623 661 663
f 623 663 625
f 624 626 664
f 624 664 662
f 625 663 665
f 625 665 627
f 626 628 666
f 626 666 664
f 627 665 667
f 627 667 629
f 628 630 668
f 628 668 666
f 629 667 669
f 629 669 631
f 630 632 670
f 630 670 668
f 631 669 671
f 631 671 633
f 632 634 672
f 632 672 670
f 633 671 673
f 633 673 635
f 634 636 674
f 634 674 672
f 635 673 675
f 635 675 637
f 636 638 676
f 636 676 674
f 637 675 677
f 637 677 639
f 638 640 678
f 638 678 676
f 639 677 679
f 639 679 641
f 640 642 680
f 640 680 678
f 641 679 681
f 641 681 643
f 642 644 682
f 642 682 680
f 643 681 683
f 643 683 645
f 644 646 684
f 644 684 682
f 645 683 685
f 645 685 647
f 646 648 686
f 646 686 684
f 647 685 687
f 647 687 649
f 648 650 688
f 648 688 686
f 649 687 689
f 649 689 651
f 650 652 690
f 650 690 688
f 651 689 691
f 651 691 653
f 652 654 692
f 652 692 690
f 106 114 693
f 106 693 655
f 112 656 694
f 112 694 120
f 655 693 695
f 655 695 657
f 656 658 696
f 656 696 694
f 657 695 697
f 657 697 659
f 658 660 698
f 658 698 696
f 659 697 699
f 659 699 661
f 660 662 700
f 660 700 698
f 661 699 701
f 661 701 663
f 662 664 702
f 662 702 700
f 663 701 703
f 663 703 665
f 664 666 704
f 664 704 702
f 665 703 705
f 665 705 667
f 666 668 706
f 666 706 704
f 667 705 707
f 667 707 669
f 668 670 708
f 668 708 706
f 669 707 709
f 669 709 671
f 670 672 710
f 670 710 708
f 671 709 711
f 671 711 673
f 672 674 712
f 672 712 710
f 673 711 713
f 673 713 675
f 674 676 714
f 674 714 712
f 675 713 715
f 675 715 677
f 676 678 716
f 676 716 714
f 677 715 717
f 677 717 679
f 678 680 718
f 678 718 716
f 679 717 719
f 679 719 681
f 680 682 720
f 680 720 718
f 681 719 721
f 681 721 683
f 682 684 722
f 682 722 720
f 683 721 723
f 683 723 685
f 684 686 724
f 684 724 722
f 685 723 725
f 685 725 687
f 686 688 726
f 686 726 724
f 687 725 727
f 687 727 689
f 688 690 728
f 688 728 726
f 689 727 729
f 689 729 691
f 690 692 730
f 690 730 728
f 114 122 731
f 114 731 693
f 120 694 732
f 120 732 128
f 693 731 733
f 693 733 695
f 694 696 734
f 694 734 732
f 695 733 735
f 695 735 697
f 696 698 736
f 696 736 734
f 697 735 737
f 697 737 699
f 698 700 738
f 698 738 736
f 699 737 739
f 699 739 701
f 700 702 740
f 700 740 738
f 701 739 741
f 701 741 703
f 702 704 742
f 702 742 740
f 703 741 743
f 703 743 705
f 704 706 744
f 704 744 742
f 705 743 745
f 705 745 707
f 706 708 746
f 706 746 744
f 707 745 747
f 707 747 709
f 708 710 748
f 708 748 746
f 709 747 749
f 709 749 711
f 710 712 750
f 710 750 748
f 711 749 751
f 711 751 713
f 712 714 752
f 712 752 750
f 713 751 753
f 713 753 715
f 714 716 754
f 714 754 752
f 715 753 755
f 715 755 717
f 716 718 756
f 716 756 754
f 717 755 757
f 717 757 719
f 718 720 758
f 718 758 756
f 719 757 759
f 719 759 721
f 720 722 760
f 720 760 758
f 721 759 761
f 721 761 723
f 722 724 762
f 722 762 760
f 723 761 763
f 723 763 725
f 724 726 764
f 724 764 762
f 725 763 765
f 725 765 727
f 726 728 766
f 726 766 764
f 727 765 767
f 727 767 729
f 728 730 768
f 728 768 766
f 122 130 769
f 122 769 731
f 128 732 770
f 128 770 136
f 731 769 771
f 731 771 733
f 732 734 772
f 732 772 770
f 733 771 773
f 733 773 735
f 734 736 774
f 734 774 772
f 735 773 775
f 735 775 737
f 736 738 776
f 736 776 774
f 737 775 777
f 737 777 739
f 738 740 778
f 738 778 776
f 739 777 779
f 739 779 741
f 740 742 780
f 740 780 778
f 741 779 781
f 741 781 743
f 742 744 782
f 742 782 780
f 743 781 783
f 743 783 745
f 744 746 784
f 744 784 782
f 745 783 785
f 745 785 747
f 746 748 786
f 746 786 784
f 747 785 787
f 747 787 749
f 748 750 788
f 748 788 786
f 749 787 789
f 749 789 751
f 750 752 790
f 750 790 788
f 751 789 791
f 751 791 753
f 752 754 792
f 752 792 790
f 753 791 793
f 753 793 755
f 754 756 794
f 754 794 792
f 755 793 795
f 755 795 757
f 756 758 796
f 756 796 794
f 757 795 797
f 757 797 759
f 758 760 798
f 758 798 796
f 759 797 799
f 759 799 761
f 760 762 800
f 760 800 798
f 761 799 801
f 761 801 763
f 762 764 802
f 762 802 800
f 763 801 803
f 763 803 765
f 764 766 804
f 764 804 802
f 765 803 805
f 765 805 767
f 766 768 806
f 766 806 804
f 130 138 807
f 130 807 769
f 136 770 808
f 136 808 144
f 769 807 809
f 769 809 771
f 770 772 810
f 770 810 808
f 771 809 811
f 771 811 773
f 772 774 812
f 772 812 810
f 773 811 813
f 773 813 775
f 774 776 814
f 774 814 812
f 775 813 815
f 775 815 777
f 776 778 816
f 776 816 814
f 777 815 817
f 777 817 779
f 778 780 818
f 778 818 816
f 779 817 819
f 779 819 781
f 780 782 820
f 780 820 818
f 781 819 821
f 781 821 783
f 782 784 822
f 782 822 820
f 783 821 823
f 783 823 785
f 784 786 824
f 784 824 822
f 785 823 825
f 785 825 787
f 786 788 826
f 786 826 824
f 787 825 827
f 787 827 789
f 788 790 828
f 788 828 826
f 789 827 829
f 789 829 791
f 790 792 830
f 790 830 828
f 791 829 831
f 791 831 793
f 792 794 832
f 792 832 830
f 793 831 833
f 793 833 795
f 794 796 834
f 794 834 832
f 795 833 835
f 795 835 797
f 796 798 836
f 796 836 834
f 797 835 837
f 797 837 799
f 798 800 838
f 798 838 836
f 799 837 839
f 799 839 801
f 800 802 840
f 800 840 838
f 801 839 841
f 801 841 803
f 802 804 842
f 802 842 840
f 803 841 843
f 803 843 805
f 804 806 844
f 804 844 842
f 138 146 845
f 138 845 807
f 144 808 846
f 144 846 152
f 807 845 847
f 807 847 809
f 808 810 848
f 808 848 846
f 809 847 849
f 809 849 811
f 810 812 850
f 810 850 848
f 811 849 851
f 811 851 813
f 812 814 852
f 812 852 850
f 813 851 853
f 813 853 815
f 814 816 854
f 814 854 852
f 815 853 855
f 815 855 817
f 816 818 856
f 816 856 854
f 817 855 857
f 817 857 819
f 818 820 858
f 818 858 856
f 819 857 859
f 819 859 821
f 820 822 860
f 820 860 858
f 821 859 861
f 821 861 823
f 822 824 862
f 822 862 860
f 823 861 863
f 823 863 825
f 824 826 864
f 824 864 862
f 825 863 865
f 825 865 827
f 826 828 866
f 826 866 864
f 827 865 867
f 827 867 829
f 828 830 868
f 828 868 866
f 829 867 869
f 829 869 831
f 830 832 870
f 830 870 868
f 831 869 871
f 831 871 833
f 832 834 872
f 832 872 870
f 833 871 873
f 833 873 835
f 834 836 874
f 834 874 872
f 835 873 875
f 835 875 837
f 836 838 876
f 836 876 874
f 837 875 877
f 837 877 839
f 838 840 878
f 838 878 876
f 839 877 879
f 839 879 841
f 840 842 880
f 840 880 878
f 841 879 881
f 841 881 843
f 842 844 882
f 842 882 880
f 146 154 883
f 146 883 845
f 152 846 884
f 152 884 160
f 845 883 885
f 845 885 847
f 846 848 886
f 846 886 884
f 847 885 887
f 847 887 849
f 848 850 888
f 848 888 886
f 849 887 889
f 849 889 851
f 850 852 890
f 850 890 888
f 851 889 891
f 851 891 853
f 852 854 892
f 852 892 890
f 853 891 893
f 853 893 855
f 854 856 894
f 854 894 892
f 855 893 895
f 855 895 857
f 856 858 896
f 856 896 894
f 857 895 897
f 857 897 859
f 858 860 898
f 858 898 896
f 859 897 899
f 859 899 861
f 860 862 900
f 860 900 898
f 861 899 901
f 861 901 863
f 862 864 902
f 862 902 900
f 863 901 903
f 863 903 865
f 864 866 904
f 864 904 902
f 865 903 905
f 865 905 867
f 866 868 906
f 866 906 904
f 867 905 907
f 867 907 869
f 868 870 908
f 868 908 906
f 869 907 909
f 869 909 871
f 870 872 910
f 870 910 908
f 871 909 911
f 871 911 873
f 872 874 912
f 872 912 910
f 873 911 913
f 873 913 875
f 874 876 914
f 874 914 912
f 875 913 915
f 875 915 877
f 876 878 916
f 876 916 914
f 877 915 917
f 877 917 879
f 878 880 918
f 878 918 916
f 879 917 919
f 879 919 881
f 880 882 920
f 880 920 918
f 1 162 921
f 1 921 2
f 154 153 922
f 154 922 883
f 162 166 923
f 162 923 921
f 883 922 924
f 883 924 885
f 166 170 925
f 166 925 923
f 885 924 926
f 885 926 887
f 170 174 927
f 170 927 925
f 887 926 928
f 887 928 889
f 174 178 929
f 174 929 927
f 889 928 930
f 889 930 891
f 178 182 931
f 178 931 929
f 891 930 932
f 891 932 893
f 182 186 933
f 182 933 931
f 893 932 934
f 893 934 895
f 186 190 935
f 186 935 933
f 895 934 936
f 895 936 897
f 190 194 937
f 190 937 935
f 897 936 938
f 897 938 899
f 194 198 939
f 194 939 937
f 899 938 940
f 899 940 901
f 198 202 941
f 198 941 939
f 901 940 942
f 901 942 903
f 202 206 943
f 202 943 941
f 903 942 944
f 903 944 905
f 206 210 945
f 206 945 943
f 905 944 946
f 905 946 907
f 210 214 947
f 210 947 945
f 907 946 948
f 907 948 909
f 214 218 949
f 214 949 947
f 909 948 950
f 909 950 911
f 218 222 951
f 218 951 949
f 911 950 952
f 911 952 913
f 222 226 953
f 222 953 951
f 913 952 954
f 913 954 915
f 226 230 955
f 226 955 953
f 915 954 956
f 915 956 917
f 230 234 957
f 230 957 955
f 917 956 958
f 917 958 919
f 2 921 959
f 2 959 5
f 153 155 960
f 153 960 922
f 921 923 961
f 921 961 959
f 922 960 962
f 922 962 924
f 923 925 963
f 923 963 961
f 924 962 964
f 924 964 926
f 925 927 965
f 925 965 963
f 926 964 966
f 926 966 928
f 927 929 967
f 927 967 965
f 928 966 968
f 928 968 930
f 929 931 969
f 929 969 967
f 930 968 970
f 930 970 932
f 931 933 971
f 931 971 969
f 932 970 972
f 932 972 934
f 933 935 973
f 933 973 971
f 934 972 974
f 934 974 936
f 935 937 975
f 935 975 973
f 936 974 976
f 936 976 938
f 937 939 977
f 937 977 975
f 938 976 978
f 938 978 940
f 939 941 979
f 939 979 977
f 940 978 980
f 940 980 942
f 941 943 981
f 941 981 979
f 942 980 982
f 942 982 944
f 943 945 983
f 943 983 981
f 944 982 984
f 944 984 946
f 945 947 985
f 945 985 983
f 946 984 986
f 946 986 948
f 947 949 987
f 947 987 985
f 948 986 988
f 948 988 950
f 949 951 989
f 949 989 987
f 950 988 990
f 950 990 952
f 951 953 991
f 951 991 989
f 952 990 992
f 952 992 954
f 953 955 993
f 953 993 991
f 954 992 994
f 954 994 956
f 955 957 995
f 955 995 993
f 956 994 996
f 956 996 958
f 5 959 997
f 5 997 7
f 155 156 998
f 155 998 960
f 959 961 999
f 959 999 997
f 960 998 1000
f 960 1000 962
f 961 963 1001
f 961 1001 999
f 962 1000 1002
f 962 1002 964
f 963 965 1003
f 963 1003 1001
f 964 1002 1004
f 964 1004 966
f 965 967 1005
f 965 1005 1003
f 966 1004 1006
f 966 1006 968
f 967 969 1007
f 967 1007 1005
f 968 1006 1008
f 968 1008 970
f 969 971 1009
f 969 1009 1007
f 970 1008 1010
f 970 1010 972
f 971 973 1011
f 971 1011 1009
f 972 1010 1012
f 972 1012 974
f 973 975 1013
f 973 1013 1011
f 974 1012 1014
f 974 1014 976
f 975 977 1015
f 975 1015 1013
f 976 1014 1016
f 976 1016 978
f 977 979 1017
f 977 1017 1015
f 978 1016 1018
f 978 1018 980
f 979 981 1019
f 979 1019 1017
f 980 1018 1020
f 980 1020 982
f 981 983 1021
f 981 1021 1019
f 982 1020 1022
f 982 1022 984
f 983 985 1023
f 983 1023 1021
f 984 1022 1024
f 984 1024 986
f 985 987 1025
f 985 1025 1023
f 986 1024 1026
f 986 1026 988
f 987 989 1027
f 987 1027 1025
f 988 1026 1028
f 988 1028 990
f 989 991 1029
f 989 1029 1027
f 990 1028 1030
f 990 1030 992
f 991 993 1031
f 991 1031 1029
f 992 1030 1032
f 992 1032 994
f 993 995 1033
f 993 1033 1031
f 994 1032 1034
f 994 1034 996
f 7 997 1035
f 7 1035 9
f 156 157 1036
f 156 1036 998
f 997 999 1037
f 997 1037 1035
f 998 1036 1038
f 998 1038 1000
f 999 1001 1039
f 999 1039 1037
f 1000 1038 1040
f 1000 1040 1002
f 1001 1003 1041
f 1001 1041 1039
f 1002 1040 1042
f 1002 1042 1004
f 1003 1005 1043
f 1003 1043 1041
f 1004 1042 1044
f 1004 1044 1006
f 1005 1007 1045
f 1005 1045 1043
f 1006 1044 1046
f 1006 1046 1008
f 1007 1009 1047
f 1007 1047 1045
f 1008 1046 1048
f 1008 1048 1010
f 1009 1011 1049
f 1009 1049 1047
f 1010 1048 1050
f 1010 1050 1012
f 1011 1013 1051
f 1011 1051 1049
f 1012 1050 1052
f 1012 1052 1014
f 1013 1015 1053
f 1013 1053 1051
f 1014 1052 1054
f 1014 1054 1016
f 1015 1017 1055
f 1015 1055 1053
f 1016 1054 1056
f 1016 1056 1018
f 1017 1019 1057
f 1017 1057 1055
f 1018 1056 1058
f 1018 1058 1020
f 1019 1021 1059
f 1019 1059 1057
f 1020 1058 1060
f 1020 1060 1022
f 1021 1023 1061
f 1021 1061 1059
f 1022 1060 1062
f 1022 1062 1024
f 1023 1025 1063
f 1023 1063 1061
f 1024 1062 1064
f 1024 1064 1026
f 1025 1027 1065
f 1025 1065 1063
f 1026 1064 1066
f 1026 1066 1028
f 1027 1029 1067
f 1027 1067 1065
f 1028 1066 1068
f 1028 1068 1030
f 1029 1031 1069
f 1029 1069 1067
f 1030 1068 1070
f 1030 1070 1032
f 1031 1033 1071
f 1031 1071 1069
f 1032 1070 1072
f 1032 1072 1034
f 9 1035 1073
f 9 1073 11
f 157 158 1074
f 157 1074 1036
f 1035 1037 1075
f 1035 1075 1073
f 1036 1074 1076
f 1036 1076 1038
f 1037 1039 1077
f 1037 1077 1075
f 1038 1076 1078
f 1038 1078 1040
f 1039 1041 1079
f 1039 1079 1077
f 1040 1078 1080
f 1040 1080 1042
f 1041 1043 1081
f 1041 1081 1079
f 1042 1080 1082
f 1042 1082 1044
f 1043 1045 1083
f 1043 1083 1081
f 1044 1082 1084
f 1044 1084 1046
f 1045 1047 1085
f 1045 1085 1083
f 1046 1084 1086
f 1046 1086 1048
f 1047 1049 1087
f 1047 1087 1085
f 1048 1086 1088
f 1048 1088 1050
f 1049 1051 1089
f 1049 1089 1087
f 1050 1088 1090
f 1050 1090 1052
f 1051 1053 1091
f 1051 1091 1089
f 1052 1090 1092
f 1052 1092 1054
f 1053 1055 1093
f 1053 1093 1091
f 1054 1092 1094
f 1054 1094 1056
f 1055 1057 1095
f 1055 1095 1093
f 1056 1094 1096
f 1056 1096 1058
f 1057 1059 1097
f 1057 1097 1095
f 1058 1096 1098
f 1058 1098 1060
f 1059 1061 1099
f 1059 1099 1097
f 1060 1098 1100
f 1060 1100 1062
f 1061 1063 1101
f 1061 1101 1099
f 1062 1100 1102
f 1062 1102 1064
f 1063 1065 1103
f 1063 1103 1101
f 1064 1102 1104
f 1064 1104 1066
f 1065 1067 1105
f 1065 1105 1103
f 1066 1104 1106
f 1066 1106 1068
f 1067 1069 1107
f 1067 1107 1105
f 1068 1106 1108
f 1068 1108 1070
f 1069 1071 1109
f 1069 1109 1107
f 1070 1108 1110
f 1070 1110 1072
f 11 1073 1111
f 11 1111 13
f 158 159 1112
f 158 1112 1074
f 1073 1075 1113
f 1073 1113 1111
f 1074 1112 1114
f 1074 1114 1076
f 1075 1077 1115
f 1075 1115 1113
f 1076 1114 1116
f 1076 1116 1078
f 1077 1079 1117
f 1077 1117 1115
f 1078 1116 1118
f 1078 1118 1080
f 1079 1081 1119
f 1079 1119 1117
f 1080 1118 1120
f 1080 1120 1082
f 1081 1083 1121
f 1081 1121 1119
f 1082 1120 1122
f 1082 1122 1084
f 1083 1085 1123
f 1083 1123 1121
f 1084 1122 1124
f 1084 1124 1086
f 1085 1087 1125
f 1085 1125 1123
f 1086 1124 1126
f 1086 1126 1088
f 1087 1089 1127
f 1087 1127 1125
f 1088 1126 1128
f 1088 1128 1090
f 1089 1091 1129
f 1089 1129 1127
f 1090 1128 1130
f 1090 1130 1092
f 1091 1093 1131
f 1091 1131 1129
f 1092 1130 1132
f 1092 1132 1094
f 1093 1095 1133
f 1093 1133 1131
f 1094 1132 1134
f 1094 1134 1096
f 1095 1097 1135
f 1095 1135 1133
f 1096 1134 1136
f 1096 1136 1098
f 1097 1099 1137
f 1097 1137 1135
f 1098 1136 1138
f 1098 1138 1100
f 1099 1101 1139
f 1099 1139 1137
f 1100 1138 1140
f 1100 1140 1102
f 1101 1103 1141
f 1101 1141 1139
f 1102 1140 1142
f 1102 1142 1104
f 1103 1105 1143
f 1103 1143 1141
f 1104 1142 1144
f 1104 1144 1106
f 1105 1107 1145
f 1105 1145 1143
f 1106 1144 1146
f 1106 1146 1108
f 1107 1109 1147
f 1107 1147 1145
f 1108 1146 1148
f 1108 1148 1110
f 13 1111 163
f 13 163 15
f 159 160 884
f 159 884 1112
f 1111 1113 167
f 1111 167 163
f 1112 884 886
f 1112 886 1114
f 1113 1115 171
f 1113 171 167
f 1114 886 888
f 1114 888 1116
f 1115 1117 175
f 1115 175 171
f 1116 888 890
f 1116 890 1118
f 1117 1119 179
f 1117 179 175
f 1118 890 892
f 1118 892 1120
f 1119 1121 183
f 1119 183 179
f 1120 892 894
f 1120 894 1122
f 1121 1123 187
f 1121 187 183
f 1122 894 896
f 1122 896 1124
f 1123 1125 191
f 1123 191 187
f 1124 896 898
f 1124 898 1126
f 1125 1127 195
f 1125 195 191
f 1126 898 900
f 1126 900 1128
f 1127 1129 199
f 1127 199 195
f 1128 900 902
f 1128 902 1130
f 1129 1131 203
f 1129 203 199
f 1130 902 904
f 1130 904 1132
f 1131 1133 207
f 1131 207 203
f 1132 904 906
f 1132 906 1134
f 1133 1135 211
f 1133 211 207
f 1134 906 908
f 1134 908 1136
f 1135 1137 215
f 1135 215 211
f 1136 908 910
f 1136 910 1138
f 1137 1139 219
f 1137 219 215
f 1138 910 912
f 1138 912 1140
f 1139 1141 223
f 1139 223 219
f 1140 912 914
f 1140 914 1142
f 1141 1143 227
f 1141 227 223
f 1142 914 916
f 1142 916 1144
f 1143 1145 231
f 1143 231 227
f 1144 916 918
f 1144 918 1146
f 1145 1147 235
f 1145 235 231
f 1146 918 920
f 1146 920 1148
f 234 233 1149
f 234 1149 1150
f 235 1151 1152
f 235 1152 236
f 1150 1149 1153
f 1150 1153 1154
f 1151 1155 1156
f 1151 1156 1152
f 1154 1153 1157
f 1154 1157 1158
f 1155 1159 1160
f 1155 1160 1156
f 1158 1157 1161
f 1158 1161 1162
f 1159 1163 1164
f 1159 1164 1160
f 1162 1161 1165
f 1162 1165 1166
f 1163 1167 1168
f 1163 1168 1164
f 1166 1165 1169
f 1166 1169 1170
f 1167 1171 1172
f 1167 1172 1168
f 1170 1169 1173
f 1170 1173 1174
f 1171 1175 1176
f 1171 1176 1172
f 1174 1173 1177
f 1174 1177 1178
f 1175 1179 1180
f 1175 1180 1176
f 233 273 1181
f 233 1181 1149
f 236 1152 1182
f 236 1182 274
f 1149 1181 1183
f 1149 1183 1153
f 1152 1156 1184
f 1152 1184 1182
f 1153 1183 1185
f 1153 1185 1157
f 1156 1160 1186
f 1156 1186 1184
f 1157 1185 1187
f 1157 1187 1161
f 1160 1164 1188
f 1160 1188 1186
f 1161 1187 1189
f 1161 1189 1165
f 1164 1168 1190
f 1164 1190 1188
f 1165 1189 1191
f 1165 1191 1169
f 1168 1172 1192
f 1168 1192 1190
f 1169 1191 1193
f 1169 1193 1173
f 1172 1176 1194
f 1172 1194 1192
f 1173 1193 1195
f 1173 1195 1177
f 1176 1180 1196
f 1176 1196 1194
f 273 311 1197
f 273 1197 1181
f 274 1182 1198
f 274 1198 312
f 1181 1197 1199
f 1181 1199 1183
f 1182 1184 1200
f 1182 1200 1198
f 1183 1199 1201
f 1183 1201 1185
f 1184 1186 1202
f 1184 1202 1200
f 1185 1201 1203
f 1185 1203 1187
f 1186 1188 1204
f 1186 1204 1202
f 1187 1203 1205
f 1187 1205 1189
f 1188 1190 1206
f 1188 1206 1204
f 1189 1205 1207
f 1189 1207 1191
f 1190 1192 1208
f 1190 1208 1206
f 1191 1207 1209
f 1191 1209 1193
f 1192 1194 1210
f 1192 1210 1208
f 1193 1209 1211
f 1193 1211 1195
f 1194 1196 1212
f 1194 1212 1210
f 311 349 1213
f 311 1213 1197
f 312 1198 1214
f 312 1214 350
f 1197 1213 1215
f 1197 1215 1199
f 1198 1200 1216
f 1198 1216 1214
f 1199 1215 1217
f 1199 1217 1201
f 1200 1202 1218
f 1200 1218 1216
f 1201 1217 1219
f 1201 1219 1203
f 1202 1204 1220
f 1202 1220 1218
f 1203 1219 1221
f 1203 1221 1205
f 1204 1206 1222
f 1204 1222 1220
f 1205 1221 1223
f 1205 1223 1207
f 1206 1208 1224
f 1206 1224 1222
f 1207 1223 1225
f 1207 1225 1209
f 1208 1210 1226
f 1208 1226 1224
f 1209 1225 1227
f 1209 1227 1211
f 1210 1212 1228
f 1210 1228 1226
f 767 805 1229
f 767 1229 1230
f 768 1231 1232
f 768 1232 806
f 1230 1229 1233
f 1230 1233 1234
f 1231 1235 1236
f 1231 1236 1232
f 1234 1233 1237
f 1234 1237 1238
f 1235 1239 1240
f 1235 1240 1236
f 1238 1237 1241
f 1238 1241 1242
f 1239 1243 1244
f 1239 1244 1240
f 1242 1241 1245
f 1242 1245 1246
f 1243 1247 1248
f 1243 1248 1244
f 1246 1245 1249
f 1246 1249 1250
f 1247 1251 1252
f 1247 1252 1248
f 1250 1249 1253
f 1250 1253 1254
f 1251 1255 1256
f 1251 1256 1252
f 1254 1253 1257
f 1254 1257 1258
f 1255 1259 1260
f 1255 1260 1256
f 805 843 1261
f 805 1261 1229
f 806 1232 1262
f 806 1262 844
f 1229 1261 1263
f 1229 1263 1233
f 1232 1236 1264
f 1232 1264 1262
f 1233 1263 1265
f 1233 1265 1237
f 1236 1240 1266
f 1236 1266 1264
f 1237 1265 1267
f 1237 1267 1241
f 1240 1244 1268
f 1240 1268 1266
f 1241 1267 1269
f 1241 1269 1245
f 1244 1248 1270
f 1244 1270 1268
f 1245 1269 1271
f 1245 1271 1249
f 1248 1252 1272
f 1248 1272 1270
f 1249 1271 1273
f 1249 1273 1253
f 1252 1256 1274
f 1252 1274 1272
f 1253 1273 1275
f 1253 1275 1257
f 1256 1260 1276
f 1256 1276 1274
f 843 881 1277
f 843 1277 1261
f 844 1262 1278
f 844 1278 882
f 1261 1277 1279
f 1261 1279 1263
f 1262 1264 1280
f 1262 1280 1278
f 1263 1279 1281
f 1263 1281 1265
f 1264 1266 1282
f 1264 1282 1280
f 1265 1281 1283
f 1265 1283 1267
f 1266 1268 1284
f 1266 1284 1282
f 1267 1283 1285
f 1267 1285 1269
f 1268 1270 1286
f 1268 1286 1284
f 1269 1285 1287
f 1269 1287 1271
f 1270 1272 1288
f 1270 1288 1286
f 1271 1287 1289
f 1271 1289 1273
f 1272 1274 1290
f 1272 1290 1288
f 1273 1289 1291
f 1273 1291 1275
f 1274 1276 1292
f 1274 1292 1290
f 881 919 1293
f 881 1293 1277
f 882 1278 1294
f 882 1294 920
f 1277 1293 1295
f 1277 1295 1279
f 1278 1280 1296
f 1278 1296 1294
f 1279 1295 1297
f 1279 1297 1281
f 1280 1282 1298
f 1280 1298 1296
f 1281 1297 1299
f 1281 1299 1283
f 1282 1284 1300
f 1282 1300 1298
f 1283 1299 1301
f 1283 1301 1285
f 1284 1286 1302
f 1284 1302 1300
f 1285 1301 1303
f 1285 1303 1287
f 1286 1288 1304
f 1286 1304 1302
f 1287 1303 1305
f 1287 1305 1289
f 1288 1290 1306
f 1288 1306 1304
f 1289 1305 1307
f 1289 1307 1291
f 1290 1292 1308
f 1290 1308 1306
f 1178 1177 1309
f 1178 1309 1310
f 1310 1309 1311
f 1310 1311 1312
f 1312 1311 1313
f 1312 1313 1314
f 1314 1313 1315
f 1314 1315 1316
f 1316 1315 1317
f 1316 1317 1318
f 1318 1317 1319
f 1318 1319 1320
f 1320 1319 1180
f 1320 1180 1179
f 1177 1195 1321
f 1177 1321 1309
f 1309 1321 1322
f 1309 1322 1311
f 1311 1322 1323
f 1311 1323 1313
f 1313 1323 1324
f 1313 1324 1315
f 1315 1324 1325
f 1315 1325 1317
f 1317 1325 1326
f 1317 1326 1319
f 1319 1326 1196
f 1319 1196 1180
f 1195 1211 1327
f 1195 1327 1321
f 1321 1327 1328
f 1321 1328 1322
f 1322 1328 1329
f 1322 1329 1323
f 1323 1329 1330
f 1323 1330 1324
f 1324 1330 1331
f 1324 1331 1325
f 1325 1331 1332
f 1325 1332 1326
f 1326 1332 1212
f 1326 1212 1196
f 1211 1227 1333
f 1211 1333 1327
f 1327 1333 1334
f 1327 1334 1328
f 1328 1334 1335
f 1328 1335 1329
f 1329 1335 1336
f 1329 1336 1330
f 1330 1336 1337
f 1330 1337 1331
f 1331 1337 1338
f 1331 1338 1332
f 1332 1338 1228
f 1332 1228 1212
f 1258 1257 1339
f 1258 1339 1340
f 1340 1339 1341
f 1340 1341 1342
f 1342 1341 1343
f 1342 1343 1344
f 1344 1343 1345
f 1344 1345 1346
f 1346 1345 1347
f 1346 1347 1348
f 1348 1347 1349
f 1348 1349 1350
f 1350 1349 1260
f 1350 1260 1259
f 1257 1275 1351
f 1257 1351 1339
f 1339 1351 1352
f 1339 1352 1341
f 1341 1352 1353
f 1341 1353 1343
f 1343 1353 1354
f 1343 1354 1345
f 1345 1354 1355
f 1345 1355 1347
f 1347 1355 1356
f 1347 1356 1349
f 1349 1356 1276
f 1349 1276 1260
f 1275 1291 1357
f 1275 1357 1351
f 1351 1357 1358
f 1351 1358 1352
f 1352 1358 1359
f 1352 1359 1353
f 1353 1359 1360
f 1353 1360 1354
f 1354 1360 1361
f 1354 1361 1355
f 1355 1361 1362
f 1355 1362 1356
f 1356 1362 1292
f 1356 1292 1276
f 1291 1307 1363
f 1291 1363 1357
f 1357 1363 1364
f 1357 1364 1358
f 1358 1364 1365
f 1358 1365 1359
f 1359 1365 1366
f 1359 1366 1360
f 1360 1366 1367
f 1360 1367 1361
f 1361 1367 1368
f 1361 1368 1362
f 1362 1368 1308
f 1362 1308 1292
