# drawstring trash bag - generated by make_trash_bag.py
v 0.127952 0.017612 0.387000
v 0.127952 0.017612 0.389667
v 0.127952 0.017612 0.392333
v 0.127952 0.017612 0.395000
v 0.127453 0.020503 0.387000
v 0.127453 0.020503 0.389667
v 0.127453 0.020503 0.392333
v 0.127453 0.020503 0.395000
v 0.126998 0.023536 0.387000
v 0.126998 0.023536 0.389667
v 0.126998 0.023536 0.392333
v 0.126998 0.023536 0.395000
v 0.126596 0.026731 0.387000
v 0.126596 0.026731 0.389667
v 0.126596 0.026731 0.392333
v 0.126596 0.026731 0.395000
v 0.125812 0.029471 0.387000
v 0.125812 0.029471 0.389667
v 0.125812 0.029471 0.392333
v 0.125812 0.029471 0.395000
v 0.124965 0.032192 0.387000
v 0.124965 0.032192 0.389667
v 0.124965 0.032192 0.392333
v 0.124965 0.032192 0.395000
v 0.124169 0.035065 0.387000
v 0.124169 0.035065 0.389667
v 0.124169 0.035065 0.392333
v 0.124169 0.035065 0.395000
v 0.123431 0.038114 0.387000
v 0.123431 0.038114 0.389667
v 0.123431 0.038114 0.392333
v 0.123431 0.038114 0.395000
v 0.122644 0.041178 0.387000
v 0.122644 0.041178 0.389667
v 0.122644 0.041178 0.392333
v 0.122644 0.041178 0.395000
v 0.121446 0.043669 0.387000
v 0.121446 0.043669 0.389667
v 0.121446 0.043669 0.392333
v 0.121446 0.043669 0.395000
v 0.120306 0.046325 0.387000
v 0.120306 0.046325 0.389667
v 0.120306 0.046325 0.392333
v 0.120306 0.046325 0.395000
v 0.119232 0.049172 0.387000
v 0.119232 0.049172 0.389667
v 0.119232 0.049172 0.392333
v 0.119232 0.049172 0.395000
v 0.118236 0.052243 0.387000
v 0.118236 0.052243 0.389667
v 0.118236 0.052243 0.392333
v 0.118236 0.052243 0.395000
v 0.116938 0.054877 0.387000
v 0.116938 0.054877 0.389667
v 0.116938 0.054877 0.392333
v 0.116938 0.054877 0.395000
v 0.115451 0.057248 0.387000
v 0.115451 0.057248 0.389667
v 0.115451 0.057248 0.392333
v 0.115451 0.057248 0.395000
v 0.114040 0.059828 0.387000
v 0.114040 0.059828 0.389667
v 0.114040 0.059828 0.392333
v 0.114040 0.059828 0.395000
v 0.112716 0.062657 0.387000
v 0.112716 0.062657 0.389667
v 0.112716 0.062657 0.392333
v 0.112716 0.062657 0.395000
v 0.111496 0.065779 0.387000
v 0.111496 0.065779 0.389667
v 0.111496 0.065779 0.392333
v 0.111496 0.065779 0.395000
v 0.109659 0.067788 0.387000
v 0.109659 0.067788 0.389667
v 0.109659 0.067788 0.392333
v 0.109659 0.067788 0.395000
v 0.107909 0.070027 0.387000
v 0.107909 0.070027 0.389667
v 0.107909 0.070027 0.392333
v 0.107909 0.070027 0.395000
v 0.106257 0.072540 0.387000
v 0.106257 0.072540 0.389667
v 0.106257 0.072540 0.392333
v 0.106257 0.072540 0.395000
v 0.104722 0.075380 0.387000
v 0.104722 0.075380 0.389667
v 0.104722 0.075380 0.392333
v 0.104722 0.075380 0.395000
v 0.103000 0.077923 0.387000
v 0.103000 0.077923 0.389667
v 0.103000 0.077923 0.392333
v 0.103000 0.077923 0.395000
v 0.100909 0.079741 0.387000
v 0.100909 0.079741 0.389667
v 0.100909 0.079741 0.392333
v 0.100909 0.079741 0.395000
v 0.098929 0.081858 0.387000
v 0.098929 0.081858 0.389667
v 0.098929 0.081858 0.392333
v 0.098929 0.081858 0.395000
v 0.097078 0.084333 0.387000
v 0.097078 0.084333 0.389667
v 0.097078 0.084333 0.392333
v 0.097078 0.084333 0.395000
v 0.095374 0.087240 0.387000
v 0.095374 0.087240 0.389667
v 0.095374 0.087240 0.392333
v 0.095374 0.087240 0.395000
v 0.093118 0.088968 0.387000
v 0.093118 0.088968 0.389667
v 0.093118 0.088968 0.392333
v 0.093118 0.088968 0.395000
v 0.090815 0.090619 0.387000
v 0.090815 0.090619 0.389667
v 0.090815 0.090619 0.392333
v 0.090815 0.090619 0.395000
v 0.088652 0.092650 0.387000
v 0.088652 0.092650 0.389667
v 0.088652 0.092650 0.392333
v 0.088652 0.092650 0.395000
v 0.086645 0.095131 0.387000
v 0.086645 0.095131 0.389667
v 0.086645 0.095131 0.392333
v 0.086645 0.095131 0.395000
v 0.084619 0.097685 0.387000
v 0.084619 0.097685 0.389667
v 0.084619 0.097685 0.392333
v 0.084619 0.097685 0.395000
v 0.081992 0.098841 0.387000
v 0.081992 0.098841 0.389667
v 0.081992 0.098841 0.392333
v 0.081992 0.098841 0.395000
v 0.079525 0.100387 0.387000
v 0.079525 0.100387 0.389667
v 0.079525 0.100387 0.392333
v 0.079525 0.100387 0.395000
v 0.077227 0.102373 0.387000
v 0.077227 0.102373 0.389667
v 0.077227 0.102373 0.392333
v 0.077227 0.102373 0.395000
v 0.075104 0.104857 0.387000
v 0.075104 0.104857 0.389667
v 0.075104 0.104857 0.392333
v 0.075104 0.104857 0.395000
v 0.072536 0.106457 0.387000
v 0.072536 0.106457 0.389667
v 0.072536 0.106457 0.392333
v 0.072536 0.106457 0.395000
v 0.069749 0.107526 0.387000
v 0.069749 0.107526 0.389667
v 0.069749 0.107526 0.392333
v 0.069749 0.107526 0.395000
v 0.067167 0.109010 0.387000
v 0.067167 0.109010 0.389667
v 0.067167 0.109010 0.392333
v 0.067167 0.109010 0.395000
v 0.064787 0.110931 0.387000
v 0.064787 0.110931 0.389667
v 0.064787 0.110931 0.392333
v 0.064787 0.110931 0.395000
v 0.062605 0.113308 0.387000
v 0.062605 0.113308 0.389667
v 0.062605 0.113308 0.392333
v 0.062605 0.113308 0.395000
v 0.059431 0.113891 0.387000
v 0.059431 0.113891 0.389667
v 0.059431 0.113891 0.392333
v 0.059431 0.113891 0.395000
v 0.056538 0.114883 0.387000
v 0.056538 0.114883 0.389667
v 0.056538 0.114883 0.392333
v 0.056538 0.114883 0.395000
v 0.053907 0.116279 0.387000
v 0.053907 0.116279 0.389667
v 0.053907 0.116279 0.392333
v 0.053907 0.116279 0.395000
v 0.051519 0.118069 0.387000
v 0.051519 0.118069 0.389667
v 0.051519 0.118069 0.392333
v 0.051519 0.118069 0.395000
v 0.048798 0.119392 0.387000
v 0.048798 0.119392 0.389667
v 0.048798 0.119392 0.392333
v 0.048798 0.119392 0.395000
v 0.045565 0.119867 0.387000
v 0.045565 0.119867 0.389667
v 0.045565 0.119867 0.392333
v 0.045565 0.119867 0.395000
v 0.042661 0.120755 0.387000
v 0.042661 0.120755 0.389667
v 0.042661 0.120755 0.392333
v 0.042661 0.120755 0.395000
v 0.040039 0.122021 0.387000
v 0.040039 0.122021 0.389667
v 0.040039 0.122021 0.392333
v 0.040039 0.122021 0.395000
v 0.037662 0.123630 0.387000
v 0.037662 0.123630 0.389667
v 0.037662 0.123630 0.392333
v 0.037662 0.123630 0.395000
v 0.034421 0.123985 0.387000
v 0.034421 0.123985 0.389667
v 0.034421 0.123985 0.392333
v 0.034421 0.123985 0.395000
v 0.031253 0.124364 0.387000
v 0.031253 0.124364 0.389667
v 0.031253 0.124364 0.392333
v 0.031253 0.124364 0.395000
v 0.028382 0.125114 0.387000
v 0.028382 0.125114 0.389667
v 0.028382 0.125114 0.392333
v 0.028382 0.125114 0.395000
v 0.025758 0.126185 0.387000
v 0.025758 0.126185 0.389667
v 0.025758 0.126185 0.392333
v 0.025758 0.126185 0.395000
v 0.023095 0.127176 0.387000
v 0.023095 0.127176 0.389667
v 0.023095 0.127176 0.392333
v 0.023095 0.127176 0.395000
v 0.019727 0.127071 0.387000
v 0.019727 0.127071 0.389667
v 0.019727 0.127071 0.392333
v 0.019727 0.127071 0.395000
v 0.016646 0.127321 0.387000
v 0.016646 0.127321 0.389667
v 0.016646 0.127321 0.392333
v 0.016646 0.127321 0.395000
v 0.013800 0.127870 0.387000
v 0.013800 0.127870 0.389667
v 0.013800 0.127870 0.392333
v 0.013800 0.127870 0.395000
v 0.011149 0.128673 0.387000
v 0.011149 0.128673 0.389667
v 0.011149 0.128673 0.392333
v 0.011149 0.128673 0.395000
v 0.008079 0.128777 0.387000
v 0.008079 0.128777 0.389667
v 0.008079 0.128777 0.392333
v 0.008079 0.128777 0.395000
v 0.004857 0.128565 0.387000
v 0.004857 0.128565 0.389667
v 0.004857 0.128565 0.392333
v 0.004857 0.128565 0.395000
v 0.001851 0.128626 0.387000
v 0.001851 0.128626 0.389667
v 0.001851 0.128626 0.392333
v 0.001851 0.128626 0.395000
v -0.000976 0.128916 0.387000
v -0.000976 0.128916 0.389667
v -0.000976 0.128916 0.392333
v -0.000976 0.128916 0.395000
v -0.003655 0.129402 0.387000
v -0.003655 0.129402 0.389667
v -0.003655 0.129402 0.392333
v -0.003655 0.129402 0.395000
v -0.006948 0.128773 0.387000
v -0.006948 0.128773 0.389667
v -0.006948 0.128773 0.392333
v -0.006948 0.128773 0.395000
v -0.010046 0.128388 0.387000
v -0.010046 0.128388 0.389667
v -0.010046 0.128388 0.392333
v -0.010046 0.128388 0.395000
v -0.012982 0.128209 0.387000
v -0.012982 0.128209 0.389667
v -0.012982 0.128209 0.392333
v -0.012982 0.128209 0.395000
v -0.015781 0.128206 0.387000
v -0.015781 0.128206 0.389667
v -0.015781 0.128206 0.392333
v -0.015781 0.128206 0.395000
v -0.018701 0.127903 0.387000
v -0.018701 0.127903 0.389667
v -0.018701 0.127903 0.392333
v -0.018701 0.127903 0.395000
v -0.021831 0.127112 0.387000
v -0.021831 0.127112 0.389667
v -0.021831 0.127112 0.392333
v -0.021831 0.127112 0.395000
v -0.024813 0.126506 0.387000
v -0.024813 0.126506 0.389667
v -0.024813 0.126506 0.392333
v -0.024813 0.126506 0.395000
v -0.027669 0.126058 0.387000
v -0.027669 0.126058 0.389667
v -0.027669 0.126058 0.392333
v -0.027669 0.126058 0.395000
v -0.030415 0.125746 0.387000
v -0.030415 0.125746 0.389667
v -0.030415 0.125746 0.392333
v -0.030415 0.125746 0.395000
v -0.033428 0.124782 0.387000
v -0.033428 0.124782 0.389667
v -0.033428 0.124782 0.392333
v -0.033428 0.124782 0.395000
v -0.036401 0.123784 0.387000
v -0.036401 0.123784 0.389667
v -0.036401 0.123784 0.392333
v -0.036401 0.123784 0.395000
v -0.039258 0.122928 0.387000
v -0.039258 0.122928 0.389667
v -0.039258 0.122928 0.392333
v -0.039258 0.122928 0.395000
v -0.042013 0.122197 0.387000
v -0.042013 0.122197 0.389667
v -0.042013 0.122197 0.392333
v -0.042013 0.122197 0.395000
v -0.044749 0.121403 0.387000
v -0.044749 0.121403 0.389667
v -0.044749 0.121403 0.392333
v -0.044749 0.121403 0.395000
v -0.047668 0.120043 0.387000
v -0.047668 0.120043 0.389667
v -0.047668 0.120043 0.392333
v -0.047668 0.120043 0.395000
v -0.050478 0.118813 0.387000
v -0.050478 0.118813 0.389667
v -0.050478 0.118813 0.392333
v -0.050478 0.118813 0.395000
v -0.053191 0.117698 0.387000
v -0.053191 0.117698 0.389667
v -0.053191 0.117698 0.392333
v -0.053191 0.117698 0.395000
v -0.055930 0.116275 0.387000
v -0.055930 0.116275 0.389667
v -0.055930 0.116275 0.392333
v -0.055930 0.116275 0.395000
v -0.059068 0.113391 0.387000
v -0.059068 0.113391 0.389667
v -0.059068 0.113391 0.392333
v -0.059068 0.113391 0.395000
v -0.062348 0.109571 0.387000
v -0.062348 0.109571 0.389667
v -0.062348 0.109571 0.392333
v -0.062348 0.109571 0.395000
v -0.065605 0.105139 0.387000
v -0.065605 0.105139 0.389667
v -0.065605 0.105139 0.392333
v -0.065605 0.105139 0.395000
v -0.068442 0.101826 0.387000
v -0.068442 0.101826 0.389667
v -0.068442 0.101826 0.392333
v -0.068442 0.101826 0.395000
v -0.071173 0.098230 0.387000
v -0.071173 0.098230 0.389667
v -0.071173 0.098230 0.392333
v -0.071173 0.098230 0.395000
v -0.073785 0.094261 0.387000
v -0.073785 0.094261 0.389667
v -0.073785 0.094261 0.392333
v -0.073785 0.094261 0.395000
v -0.076134 0.092037 0.387000
v -0.076134 0.092037 0.389667
v -0.076134 0.092037 0.392333
v -0.076134 0.092037 0.395000
v -0.078386 0.089594 0.387000
v -0.078386 0.089594 0.389667
v -0.078386 0.089594 0.392333
v -0.078386 0.089594 0.395000
v -0.080522 0.086896 0.387000
v -0.080522 0.086896 0.389667
v -0.080522 0.086896 0.392333
v -0.080522 0.086896 0.395000
v -0.082583 0.084227 0.387000
v -0.082583 0.084227 0.389667
v -0.082583 0.084227 0.392333
v -0.082583 0.084227 0.395000
v -0.084702 0.082111 0.387000
v -0.084702 0.082111 0.389667
v -0.084702 0.082111 0.392333
v -0.084702 0.082111 0.395000
v -0.086692 0.079795 0.387000
v -0.086692 0.079795 0.389667
v -0.086692 0.079795 0.392333
v -0.086692 0.079795 0.395000
v -0.089286 0.076844 0.387136
v -0.088786 0.077146 0.389712
v -0.088285 0.077449 0.392288
v -0.087782 0.077753 0.394864
v -0.091410 0.078070 0.388732
v -0.090551 0.077842 0.391081
v -0.089692 0.077614 0.393429
v -0.088832 0.077387 0.395778
v -0.092998 0.078465 0.389983
v -0.092140 0.078248 0.392333
v -0.091281 0.078031 0.394683
v -0.090422 0.077815 0.397033
v -0.094637 0.078906 0.391231
v -0.093732 0.078634 0.393582
v -0.092874 0.078429 0.395934
v -0.092015 0.078224 0.398285
v -0.096349 0.079401 0.392480
v -0.095428 0.079132 0.394830
v -0.094507 0.078863 0.397180
v -0.093603 0.078619 0.399530
v -0.098076 0.079855 0.393742
v -0.097144 0.079603 0.396088
v -0.096211 0.079351 0.398435
v -0.095278 0.079100 0.400781
v -0.099804 0.080277 0.395004
v -0.098866 0.080041 0.397350
v -0.097928 0.079805 0.399696
v -0.096989 0.079569 0.402042
v -0.101533 0.080677 0.396257
v -0.100595 0.080456 0.398606
v -0.099656 0.080234 0.400954
v -0.098716 0.080012 0.403302
v -0.103278 0.081048 0.397510
v -0.102335 0.080844 0.399858
v -0.101391 0.080639 0.402207
v -0.100447 0.080434 0.404555
v -0.105042 0.081374 0.398770
v -0.104088 0.081192 0.401116
v -0.103133 0.081009 0.403461
v -0.102177 0.080827 0.405806
v -0.106811 0.081650 0.400036
v -0.105849 0.081491 0.402380
v -0.104887 0.081331 0.404725
v -0.103925 0.081170 0.407070
v -0.108579 0.081897 0.401289
v -0.107618 0.081757 0.403637
v -0.106657 0.081617 0.405985
v -0.105694 0.081477 0.408333
v -0.110366 0.082100 0.402538
v -0.109401 0.081985 0.404888
v -0.108435 0.081869 0.407237
v -0.107469 0.081753 0.409587
v -0.112173 0.082241 0.403795
v -0.111198 0.082157 0.406142
v -0.110222 0.082072 0.408490
v -0.109246 0.081988 0.410837
v -0.113982 0.082318 0.405052
v -0.113003 0.082265 0.407401
v -0.112023 0.082212 0.409750
v -0.111043 0.082159 0.412098
v -0.115794 0.082344 0.406291
v -0.114819 0.082322 0.408646
v -0.113843 0.082299 0.411001
v -0.112866 0.082276 0.413356
v -0.117633 0.082296 0.407526
v -0.116653 0.082315 0.409882
v -0.115671 0.082333 0.412238
v -0.114689 0.082352 0.414593
v -0.119480 0.082139 0.408769
v -0.118496 0.082207 0.411126
v -0.117511 0.082274 0.413484
v -0.116525 0.082341 0.415841
v -0.121320 0.081900 0.409985
v -0.120348 0.082014 0.412352
v -0.119373 0.082128 0.414719
v -0.118398 0.082241 0.417086
v -0.123277 0.081630 0.411181
v -0.122262 0.081757 0.413556
v -0.121251 0.081886 0.415931
v -0.120285 0.082047 0.418306
v -0.125240 0.081255 0.412365
v -0.124237 0.081437 0.414751
v -0.123234 0.081619 0.417136
v -0.122230 0.081800 0.419522
v -0.127190 0.080722 0.413497
v -0.126224 0.080973 0.415905
v -0.125257 0.081223 0.418313
v -0.124288 0.081472 0.420721
v -0.129122 0.079998 0.414557
v -0.128219 0.080324 0.416998
v -0.127316 0.080649 0.419438
v -0.126411 0.080973 0.421879
v -0.130993 0.079040 0.415509
v -0.130202 0.079437 0.417997
v -0.129410 0.079833 0.420484
v -0.128617 0.080228 0.422971
v -0.132722 0.077818 0.416291
v -0.132123 0.078245 0.418844
v -0.131523 0.078672 0.421397
v -0.130921 0.079097 0.423950
v -0.134184 0.076364 0.416815
v -0.133878 0.076688 0.419443
v -0.133573 0.077011 0.422072
v -0.133266 0.077335 0.424700
v -0.135313 0.074763 0.417000
v -0.135313 0.074763 0.419667
v -0.135313 0.074763 0.422333
v -0.135313 0.074763 0.425000
v -0.136067 0.072955 0.416815
v -0.136179 0.072524 0.419443
v -0.136290 0.072093 0.422072
v -0.136401 0.071662 0.424700
v -0.136520 0.070943 0.416291
v -0.136563 0.070209 0.418844
v -0.136604 0.069474 0.421397
v -0.136645 0.068739 0.423950
v -0.136635 0.068830 0.415509
v -0.136550 0.067949 0.417997
v -0.136464 0.067067 0.420484
v -0.136376 0.066185 0.422971
v -0.136450 0.066735 0.414557
v -0.136245 0.065798 0.416998
v -0.136040 0.064860 0.419438
v -0.135832 0.063922 0.421879
v -0.136035 0.064715 0.413497
v -0.135733 0.063763 0.415905
v -0.135429 0.062811 0.418313
v -0.135124 0.061859 0.420721
v -0.135447 0.062780 0.412365
v -0.135068 0.061834 0.414751
v -0.134688 0.060888 0.417136
v -0.134307 0.059942 0.419522
v -0.134721 0.060919 0.411181
v -0.134288 0.059992 0.413556
v -0.133859 0.059067 0.415931
v -0.133481 0.058164 0.418306
v -0.133908 0.059118 0.409985
v -0.133486 0.058234 0.412352
v -0.133064 0.057349 0.414719
v -0.132641 0.056463 0.417086
v -0.133131 0.057434 0.408769
v -0.132664 0.056565 0.411126
v -0.132197 0.055695 0.413484
v -0.131729 0.054824 0.415841
v -0.132280 0.055786 0.407526
v -0.131774 0.054946 0.409882
v -0.131268 0.054105 0.412238
v -0.130761 0.053264 0.414593
v -0.131342 0.054203 0.406291
v -0.130804 0.053390 0.408646
v -0.130265 0.052575 0.411001
v -0.129726 0.051761 0.413356
v -0.130356 0.052684 0.405052
v -0.129790 0.051883 0.407401
v -0.129224 0.051082 0.409750
v -0.128657 0.050280 0.412098
v -0.129328 0.051192 0.403795
v -0.128737 0.050412 0.406142
v -0.128147 0.049631 0.408490
v -0.127555 0.048849 0.410837
v -0.128247 0.049738 0.402538
v -0.127635 0.048982 0.404888
v -0.127024 0.048226 0.407237
v -0.126411 0.047470 0.409587
v -0.127124 0.048334 0.401289
v -0.126494 0.047595 0.403637
v -0.125863 0.046855 0.405985
v -0.125232 0.046115 0.408333
v -0.125974 0.046968 0.400036
v -0.125327 0.046239 0.402380
v -0.124679 0.045510 0.404725
v -0.124031 0.044780 0.407070
v -0.124798 0.045618 0.398770
v -0.124136 0.044907 0.401116
v -0.123473 0.044195 0.403461
v -0.122810 0.043483 0.405806
v -0.123583 0.044297 0.397510
v -0.122908 0.043608 0.399858
v -0.122233 0.042918 0.402207
v -0.121557 0.042227 0.404555
v -0.122341 0.043018 0.396257
v -0.121654 0.042341 0.398606
v -0.120967 0.041664 0.400954
v -0.120279 0.040987 0.403302
v -0.121082 0.041767 0.395004
v -0.120383 0.041098 0.397350
v -0.119684 0.040430 0.399696
v -0.118984 0.039761 0.402042
v -0.119805 0.040529 0.393742
v -0.119096 0.039874 0.396088
v -0.118386 0.039218 0.398435
v -0.117676 0.038562 0.400781
v -0.118501 0.039308 0.392480
v -0.117784 0.038672 0.394830
v -0.117066 0.038035 0.397180
v -0.116378 0.037400 0.399530
v -0.117171 0.038122 0.391231
v -0.116458 0.037501 0.393582
v -0.115828 0.036883 0.395934
v -0.115198 0.036265 0.398285
v -0.115925 0.036969 0.389983
v -0.115285 0.036358 0.392333
v -0.114644 0.035747 0.394683
v -0.114004 0.035134 0.397033
v -0.114746 0.035835 0.388732
v -0.114096 0.035229 0.391081
v -0.113445 0.034623 0.393429
v -0.112795 0.034016 0.395778
v -0.112577 0.034689 0.387136
v -0.112567 0.034106 0.389712
v -0.112557 0.033520 0.392288
v -0.112546 0.032933 0.394864
v -0.113695 0.030922 0.387000
v -0.113695 0.030922 0.389667
v -0.113695 0.030922 0.392333
v -0.113695 0.030922 0.395000
v -0.114596 0.028005 0.387000
v -0.114596 0.028005 0.389667
v -0.114596 0.028005 0.392333
v -0.114596 0.028005 0.395000
v -0.115260 0.025085 0.387000
v -0.115260 0.025085 0.389667
v -0.115260 0.025085 0.392333
v -0.115260 0.025085 0.395000
v -0.116423 0.021920 0.387000
v -0.116423 0.021920 0.389667
v -0.116423 0.021920 0.392333
v -0.116423 0.021920 0.395000
v -0.117570 0.018676 0.387000
v -0.117570 0.018676 0.389667
v -0.117570 0.018676 0.392333
v -0.117570 0.018676 0.395000
v -0.118440 0.015469 0.387000
v -0.118440 0.015469 0.389667
v -0.118440 0.015469 0.392333
v -0.118440 0.015469 0.395000
v -0.119072 0.012297 0.387000
v -0.119072 0.012297 0.389667
v -0.119072 0.012297 0.392333
v -0.119072 0.012297 0.395000
v -0.121042 0.007972 0.387000
v -0.121042 0.007972 0.389667
v -0.121042 0.007972 0.392333
v -0.121042 0.007972 0.395000
v -0.122633 0.003746 0.387000
v -0.122633 0.003746 0.389667
v -0.122633 0.003746 0.392333
v -0.122633 0.003746 0.395000
v -0.123928 -0.000419 0.387000
v -0.123928 -0.000419 0.389667
v -0.123928 -0.000419 0.392333
v -0.123928 -0.000419 0.395000
v -0.125946 -0.005535 0.387000
v -0.125946 -0.005535 0.389667
v -0.125946 -0.005535 0.392333
v -0.125946 -0.005535 0.395000
v -0.127435 -0.010345 0.387000
v -0.127435 -0.010345 0.389667
v -0.127435 -0.010345 0.392333
v -0.127435 -0.010345 0.395000
v -0.128205 -0.014536 0.387000
v -0.128205 -0.014536 0.389667
v -0.128205 -0.014536 0.392333
v -0.128205 -0.014536 0.395000
v -0.127952 -0.017612 0.387000
v -0.127952 -0.017612 0.389667
v -0.127952 -0.017612 0.392333
v -0.127952 -0.017612 0.395000
v -0.127453 -0.020503 0.387000
v -0.127453 -0.020503 0.389667
v -0.127453 -0.020503 0.392333
v -0.127453 -0.020503 0.395000
v -0.126998 -0.023536 0.387000
v -0.126998 -0.023536 0.389667
v -0.126998 -0.023536 0.392333
v -0.126998 -0.023536 0.395000
v -0.126596 -0.026731 0.387000
v -0.126596 -0.026731 0.389667
v -0.126596 -0.026731 0.392333
v -0.126596 -0.026731 0.395000
v -0.125812 -0.029471 0.387000
v -0.125812 -0.029471 0.389667
v -0.125812 -0.029471 0.392333
v -0.125812 -0.029471 0.395000
v -0.124965 -0.032192 0.387000
v -0.124965 -0.032192 0.389667
v -0.124965 -0.032192 0.392333
v -0.124965 -0.032192 0.395000
v -0.124169 -0.035065 0.387000
v -0.124169 -0.035065 0.389667
v -0.124169 -0.035065 0.392333
v -0.124169 -0.035065 0.395000
v -0.123431 -0.038114 0.387000
v -0.123431 -0.038114 0.389667
v -0.123431 -0.038114 0.392333
v -0.123431 -0.038114 0.395000
v -0.122644 -0.041178 0.387000
v -0.122644 -0.041178 0.389667
v -0.122644 -0.041178 0.392333
v -0.122644 -0.041178 0.395000
v -0.121446 -0.043669 0.387000
v -0.121446 -0.043669 0.389667
v -0.121446 -0.043669 0.392333
v -0.121446 -0.043669 0.395000
v -0.120306 -0.046325 0.387000
v -0.120306 -0.046325 0.389667
v -0.120306 -0.046325 0.392333
v -0.120306 -0.046325 0.395000
v -0.119232 -0.049172 0.387000
v -0.119232 -0.049172 0.389667
v -0.119232 -0.049172 0.392333
v -0.119232 -0.049172 0.395000
v -0.118236 -0.052243 0.387000
v -0.118236 -0.052243 0.389667
v -0.118236 -0.052243 0.392333
v -0.118236 -0.052243 0.395000
v -0.116938 -0.054877 0.387000
v -0.116938 -0.054877 0.389667
v -0.116938 -0.054877 0.392333
v -0.116938 -0.054877 0.395000
v -0.115451 -0.057248 0.387000
v -0.115451 -0.057248 0.389667
v -0.115451 -0.057248 0.392333
v -0.115451 -0.057248 0.395000
v -0.114040 -0.059828 0.387000
v -0.114040 -0.059828 0.389667
v -0.114040 -0.059828 0.392333
v -0.114040 -0.059828 0.395000
v -0.112716 -0.062657 0.387000
v -0.112716 -0.062657 0.389667
v -0.112716 -0.062657 0.392333
v -0.112716 -0.062657 0.395000
v -0.111496 -0.065779 0.387000
v -0.111496 -0.065779 0.389667
v -0.111496 -0.065779 0.392333
v -0.111496 -0.065779 0.395000
v -0.109659 -0.067788 0.387000
v -0.109659 -0.067788 0.389667
v -0.109659 -0.067788 0.392333
v -0.109659 -0.067788 0.395000
v -0.107909 -0.070027 0.387000
v -0.107909 -0.070027 0.389667
v -0.107909 -0.070027 0.392333
v -0.107909 -0.070027 0.395000
v -0.106257 -0.072540 0.387000
v -0.106257 -0.072540 0.389667
v -0.106257 -0.072540 0.392333
v -0.106257 -0.072540 0.395000
v -0.104722 -0.075380 0.387000
v -0.104722 -0.075380 0.389667
v -0.104722 -0.075380 0.392333
v -0.104722 -0.075380 0.395000
v -0.103000 -0.077923 0.387000
v -0.103000 -0.077923 0.389667
v -0.103000 -0.077923 0.392333
v -0.103000 -0.077923 0.395000
v -0.100909 -0.079741 0.387000
v -0.100909 -0.079741 0.389667
v -0.100909 -0.079741 0.392333
v -0.100909 -0.079741 0.395000
v -0.098929 -0.081858 0.387000
v -0.098929 -0.081858 0.389667
v -0.098929 -0.081858 0.392333
v -0.098929 -0.081858 0.395000
v -0.097078 -0.084333 0.387000
v -0.097078 -0.084333 0.389667
v -0.097078 -0.084333 0.392333
v -0.097078 -0.084333 0.395000
v -0.095374 -0.087240 0.387000
v -0.095374 -0.087240 0.389667
v -0.095374 -0.087240 0.392333
v -0.095374 -0.087240 0.395000
v -0.093118 -0.088968 0.387000
v -0.093118 -0.088968 0.389667
v -0.093118 -0.088968 0.392333
v -0.093118 -0.088968 0.395000
v -0.090815 -0.090619 0.387000
v -0.090815 -0.090619 0.389667
v -0.090815 -0.090619 0.392333
v -0.090815 -0.090619 0.395000
v -0.088652 -0.092650 0.387000
v -0.088652 -0.092650 0.389667
v -0.088652 -0.092650 0.392333
v -0.088652 -0.092650 0.395000
v -0.086645 -0.095131 0.387000
v -0.086645 -0.095131 0.389667
v -0.086645 -0.095131 0.392333
v -0.086645 -0.095131 0.395000
v -0.084619 -0.097685 0.387000
v -0.084619 -0.097685 0.389667
v -0.084619 -0.097685 0.392333
v -0.084619 -0.097685 0.395000
v -0.081992 -0.098841 0.387000
v -0.081992 -0.098841 0.389667
v -0.081992 -0.098841 0.392333
v -0.081992 -0.098841 0.395000
v -0.079525 -0.100387 0.387000
v -0.079525 -0.100387 0.389667
v -0.079525 -0.100387 0.392333
v -0.079525 -0.100387 0.395000
v -0.077227 -0.102373 0.387000
v -0.077227 -0.102373 0.389667
v -0.077227 -0.102373 0.392333
v -0.077227 -0.102373 0.395000
v -0.075104 -0.104857 0.387000
v -0.075104 -0.104857 0.389667
v -0.075104 -0.104857 0.392333
v -0.075104 -0.104857 0.395000
v -0.072536 -0.106457 0.387000
v -0.072536 -0.106457 0.389667
v -0.072536 -0.106457 0.392333
v -0.072536 -0.106457 0.395000
v -0.069749 -0.107526 0.387000
v -0.069749 -0.107526 0.389667
v -0.069749 -0.107526 0.392333
v -0.069749 -0.107526 0.395000
v -0.067167 -0.109010 0.387000
v -0.067167 -0.109010 0.389667
v -0.067167 -0.109010 0.392333
v -0.067167 -0.109010 0.395000
v -0.064787 -0.110931 0.387000
v -0.064787 -0.110931 0.389667
v -0.064787 -0.110931 0.392333
v -0.064787 -0.110931 0.395000
v -0.062605 -0.113308 0.387000
v -0.062605 -0.113308 0.389667
v -0.062605 -0.113308 0.392333
v -0.062605 -0.113308 0.395000
v -0.059431 -0.113891 0.387000
v -0.059431 -0.113891 0.389667
v -0.059431 -0.113891 0.392333
v -0.059431 -0.113891 0.395000
v -0.056538 -0.114883 0.387000
v -0.056538 -0.114883 0.389667
v -0.056538 -0.114883 0.392333
v -0.056538 -0.114883 0.395000
v -0.053907 -0.116279 0.387000
v -0.053907 -0.116279 0.389667
v -0.053907 -0.116279 0.392333
v -0.053907 -0.116279 0.395000
v -0.051519 -0.118069 0.387000
v -0.051519 -0.118069 0.389667
v -0.051519 -0.118069 0.392333
v -0.051519 -0.118069 0.395000
v -0.048798 -0.119392 0.387000
v -0.048798 -0.119392 0.389667
v -0.048798 -0.119392 0.392333
v -0.048798 -0.119392 0.395000
v -0.045565 -0.119867 0.387000
v -0.045565 -0.119867 0.389667
v -0.045565 -0.119867 0.392333
v -0.045565 -0.119867 0.395000
v -0.042661 -0.120755 0.387000
v -0.042661 -0.120755 0.389667
v -0.042661 -0.120755 0.392333
v -0.042661 -0.120755 0.395000
v -0.040039 -0.122021 0.387000
v -0.040039 -0.122021 0.389667
v -0.040039 -0.122021 0.392333
v -0.040039 -0.122021 0.395000
v -0.037662 -0.123630 0.387000
v -0.037662 -0.123630 0.389667
v -0.037662 -0.123630 0.392333
v -0.037662 -0.123630 0.395000
v -0.034421 -0.123985 0.387000
v -0.034421 -0.123985 0.389667
v -0.034421 -0.123985 0.392333
v -0.034421 -0.123985 0.395000
v -0.031253 -0.124364 0.387000
v -0.031253 -0.124364 0.389667
v -0.031253 -0.124364 0.392333
v -0.031253 -0.124364 0.395000
v -0.028382 -0.125114 0.387000
v -0.028382 -0.125114 0.389667
v -0.028382 -0.125114 0.392333
v -0.028382 -0.125114 0.395000
v -0.025758 -0.126185 0.387000
v -0.025758 -0.126185 0.389667
v -0.025758 -0.126185 0.392333
v -0.025758 -0.126185 0.395000
v -0.023095 -0.127176 0.387000
v -0.023095 -0.127176 0.389667
v -0.023095 -0.127176 0.392333
v -0.023095 -0.127176 0.395000
v -0.019727 -0.127071 0.387000
v -0.019727 -0.127071 0.389667
v -0.019727 -0.127071 0.392333
v -0.019727 -0.127071 0.395000
v -0.016646 -0.127321 0.387000
v -0.016646 -0.127321 0.389667
v -0.016646 -0.127321 0.392333
v -0.016646 -0.127321 0.395000
v -0.013800 -0.127870 0.387000
v -0.013800 -0.127870 0.389667
v -0.013800 -0.127870 0.392333
v -0.013800 -0.127870 0.395000
v -0.011149 -0.128673 0.387000
v -0.011149 -0.128673 0.389667
v -0.011149 -0.128673 0.392333
v -0.011149 -0.128673 0.395000
v -0.008079 -0.128777 0.387000
v -0.008079 -0.128777 0.389667
v -0.008079 -0.128777 0.392333
v -0.008079 -0.128777 0.395000
v -0.004857 -0.128565 0.387000
v -0.004857 -0.128565 0.389667
v -0.004857 -0.128565 0.392333
v -0.004857 -0.128565 0.395000
v -0.001851 -0.128626 0.387000
v -0.001851 -0.128626 0.389667
v -0.001851 -0.128626 0.392333
v -0.001851 -0.128626 0.395000
v 0.000976 -0.128916 0.387000
v 0.000976 -0.128916 0.389667
v 0.000976 -0.128916 0.392333
v 0.000976 -0.128916 0.395000
v 0.003655 -0.129402 0.387000
v 0.003655 -0.129402 0.389667
v 0.003655 -0.129402 0.392333
v 0.003655 -0.129402 0.395000
v 0.006948 -0.128773 0.387000
v 0.006948 -0.128773 0.389667
v 0.006948 -0.128773 0.392333
v 0.006948 -0.128773 0.395000
v 0.010046 -0.128388 0.387000
v 0.010046 -0.128388 0.389667
v 0.010046 -0.128388 0.392333
v 0.010046 -0.128388 0.395000
v 0.012982 -0.128209 0.387000
v 0.012982 -0.128209 0.389667
v 0.012982 -0.128209 0.392333
v 0.012982 -0.128209 0.395000
v 0.015781 -0.128206 0.387000
v 0.015781 -0.128206 0.389667
v 0.015781 -0.128206 0.392333
v 0.015781 -0.128206 0.395000
v 0.018701 -0.127903 0.387000
v 0.018701 -0.127903 0.389667
v 0.018701 -0.127903 0.392333
v 0.018701 -0.127903 0.395000
v 0.021831 -0.127112 0.387000
v 0.021831 -0.127112 0.389667
v 0.021831 -0.127112 0.392333
v 0.021831 -0.127112 0.395000
v 0.024813 -0.126506 0.387000
v 0.024813 -0.126506 0.389667
v 0.024813 -0.126506 0.392333
v 0.024813 -0.126506 0.395000
v 0.027669 -0.126058 0.387000
v 0.027669 -0.126058 0.389667
v 0.027669 -0.126058 0.392333
v 0.027669 -0.126058 0.395000
v 0.030415 -0.125746 0.387000
v 0.030415 -0.125746 0.389667
v 0.030415 -0.125746 0.392333
v 0.030415 -0.125746 0.395000
v 0.033428 -0.124782 0.387000
v 0.033428 -0.124782 0.389667
v 0.033428 -0.124782 0.392333
v 0.033428 -0.124782 0.395000
v 0.036401 -0.123784 0.387000
v 0.036401 -0.123784 0.389667
v 0.036401 -0.123784 0.392333
v 0.036401 -0.123784 0.395000
v 0.039258 -0.122928 0.387000
v 0.039258 -0.122928 0.389667
v 0.039258 -0.122928 0.392333
v 0.039258 -0.122928 0.395000
v 0.042013 -0.122197 0.387000
v 0.042013 -0.122197 0.389667
v 0.042013 -0.122197 0.392333
v 0.042013 -0.122197 0.395000
v 0.044749 -0.121403 0.387000
v 0.044749 -0.121403 0.389667
v 0.044749 -0.121403 0.392333
v 0.044749 -0.121403 0.395000
v 0.047668 -0.120043 0.387000
v 0.047668 -0.120043 0.389667
v 0.047668 -0.120043 0.392333
v 0.047668 -0.120043 0.395000
v 0.050478 -0.118813 0.387000
v 0.050478 -0.118813 0.389667
v 0.050478 -0.118813 0.392333
v 0.050478 -0.118813 0.395000
v 0.053191 -0.117698 0.387000
v 0.053191 -0.117698 0.389667
v 0.053191 -0.117698 0.392333
v 0.053191 -0.117698 0.395000
v 0.055930 -0.116275 0.387000
v 0.055930 -0.116275 0.389667
v 0.055930 -0.116275 0.392333
v 0.055930 -0.116275 0.395000
v 0.059068 -0.113391 0.387000
v 0.059068 -0.113391 0.389667
v 0.059068 -0.113391 0.392333
v 0.059068 -0.113391 0.395000
v 0.062348 -0.109571 0.387000
v 0.062348 -0.109571 0.389667
v 0.062348 -0.109571 0.392333
v 0.062348 -0.109571 0.395000
v 0.065605 -0.105139 0.387000
v 0.065605 -0.105139 0.389667
v 0.065605 -0.105139 0.392333
v 0.065605 -0.105139 0.395000
v 0.068442 -0.101826 0.387000
v 0.068442 -0.101826 0.389667
v 0.068442 -0.101826 0.392333
v 0.068442 -0.101826 0.395000
v 0.071173 -0.098230 0.387000
v 0.071173 -0.098230 0.389667
v 0.071173 -0.098230 0.392333
v 0.071173 -0.098230 0.395000
v 0.073785 -0.094261 0.387000
v 0.073785 -0.094261 0.389667
v 0.073785 -0.094261 0.392333
v 0.073785 -0.094261 0.395000
v 0.076134 -0.092037 0.387000
v 0.076134 -0.092037 0.389667
v 0.076134 -0.092037 0.392333
v 0.076134 -0.092037 0.395000
v 0.078386 -0.089594 0.387000
v 0.078386 -0.089594 0.389667
v 0.078386 -0.089594 0.392333
v 0.078386 -0.089594 0.395000
v 0.080522 -0.086896 0.387000
v 0.080522 -0.086896 0.389667
v 0.080522 -0.086896 0.392333
v 0.080522 -0.086896 0.395000
v 0.082583 -0.084227 0.387000
v 0.082583 -0.084227 0.389667
v 0.082583 -0.084227 0.392333
v 0.082583 -0.084227 0.395000
v 0.084702 -0.082111 0.387000
v 0.084702 -0.082111 0.389667
v 0.084702 -0.082111 0.392333
v 0.084702 -0.082111 0.395000
v 0.086692 -0.079795 0.387000
v 0.086692 -0.079795 0.389667
v 0.086692 -0.079795 0.392333
v 0.086692 -0.079795 0.395000
v 0.089286 -0.076844 0.387136
v 0.088786 -0.077146 0.389712
v 0.088285 -0.077449 0.392288
v 0.087782 -0.077753 0.394864
v 0.091410 -0.078070 0.388732
v 0.090551 -0.077842 0.391081
v 0.089692 -0.077614 0.393429
v 0.088832 -0.077387 0.395778
v 0.092998 -0.078465 0.389983
v 0.092140 -0.078248 0.392333
v 0.091281 -0.078031 0.394683
v 0.090422 -0.077815 0.397033
v 0.094637 -0.078906 0.391231
v 0.093732 -0.078634 0.393582
v 0.092874 -0.078429 0.395934
v 0.092015 -0.078224 0.398285
v 0.096349 -0.079401 0.392480
v 0.095428 -0.079132 0.394830
v 0.094507 -0.078863 0.397180
v 0.093603 -0.078619 0.399530
v 0.098076 -0.079855 0.393742
v 0.097144 -0.079603 0.396088
v 0.096211 -0.079351 0.398435
v 0.095278 -0.079100 0.400781
v 0.099804 -0.080277 0.395004
v 0.098866 -0.080041 0.397350
v 0.097928 -0.079805 0.399696
v 0.096989 -0.079569 0.402042
v 0.101533 -0.080677 0.396257
v 0.100595 -0.080456 0.398606
v 0.099656 -0.080234 0.400954
v 0.098716 -0.080012 0.403302
v 0.103278 -0.081048 0.397510
v 0.102335 -0.080844 0.399858
v 0.101391 -0.080639 0.402207
v 0.100447 -0.080434 0.404555
v 0.105042 -0.081374 0.398770
v 0.104088 -0.081192 0.401116
v 0.103133 -0.081009 0.403461
v 0.102177 -0.080827 0.405806
v 0.106811 -0.081650 0.400036
v 0.105849 -0.081491 0.402380
v 0.104887 -0.081331 0.404725
v 0.103925 -0.081170 0.407070
v 0.108579 -0.081897 0.401289
v 0.107618 -0.081757 0.403637
v 0.106657 -0.081617 0.405985
v 0.105694 -0.081477 0.408333
v 0.110366 -0.082100 0.402538
v 0.109401 -0.081985 0.404888
v 0.108435 -0.081869 0.407237
v 0.107469 -0.081753 0.409587
v 0.112173 -0.082241 0.403795
v 0.111198 -0.082157 0.406142
v 0.110222 -0.082072 0.408490
v 0.109246 -0.081988 0.410837
v 0.113982 -0.082318 0.405052
v 0.113003 -0.082265 0.407401
v 0.112023 -0.082212 0.409750
v 0.111043 -0.082159 0.412098
v 0.115794 -0.082344 0.406291
v 0.114819 -0.082322 0.408646
v 0.113843 -0.082299 0.411001
v 0.112866 -0.082276 0.413356
v 0.117633 -0.082296 0.407526
v 0.116653 -0.082315 0.409882
v 0.115671 -0.082333 0.412238
v 0.114689 -0.082352 0.414593
v 0.119480 -0.082139 0.408769
v 0.118496 -0.082207 0.411126
v 0.117511 -0.082274 0.413484
v 0.116525 -0.082341 0.415841
v 0.121320 -0.081900 0.409985
v 0.120348 -0.082014 0.412352
v 0.119373 -0.082128 0.414719
v 0.118398 -0.082241 0.417086
v 0.123277 -0.081630 0.411181
v 0.122262 -0.081757 0.413556
v 0.121251 -0.081886 0.415931
v 0.120285 -0.082047 0.418306
v 0.125240 -0.081255 0.412365
v 0.124237 -0.081437 0.414751
v 0.123234 -0.081619 0.417136
v 0.122230 -0.081800 0.419522
v 0.127190 -0.080722 0.413497
v 0.126224 -0.080973 0.415905
v 0.125257 -0.081223 0.418313
v 0.124288 -0.081472 0.420721
v 0.129122 -0.079998 0.414557
v 0.128219 -0.080324 0.416998
v 0.127316 -0.080649 0.419438
v 0.126411 -0.080973 0.421879
v 0.130993 -0.079040 0.415509
v 0.130202 -0.079437 0.417997
v 0.129410 -0.079833 0.420484
v 0.128617 -0.080228 0.422971
v 0.132722 -0.077818 0.416291
v 0.132123 -0.078245 0.418844
v 0.131523 -0.078672 0.421397
v 0.130921 -0.079097 0.423950
v 0.134184 -0.076364 0.416815
v 0.133878 -0.076688 0.419443
v 0.133573 -0.077011 0.422072
v 0.133266 -0.077335 0.424700
v 0.135313 -0.074763 0.417000
v 0.135313 -0.074763 0.419667
v 0.135313 -0.074763 0.422333
v 0.135313 -0.074763 0.425000
v 0.136067 -0.072955 0.416815
v 0.136179 -0.072524 0.419443
v 0.136290 -0.072093 0.422072
v 0.136401 -0.071662 0.424700
v 0.136520 -0.070943 0.416291
v 0.136563 -0.070209 0.418844
v 0.136604 -0.069474 0.421397
v 0.136645 -0.068739 0.423950
v 0.136635 -0.068830 0.415509
v 0.136550 -0.067949 0.417997
v 0.136464 -0.067067 0.420484
v 0.136376 -0.066185 0.422971
v 0.136450 -0.066735 0.414557
v 0.136245 -0.065798 0.416998
v 0.136040 -0.064860 0.419438
v 0.135832 -0.063922 0.421879
v 0.136035 -0.064715 0.413497
v 0.135733 -0.063763 0.415905
v 0.135429 -0.062811 0.418313
v 0.135124 -0.061859 0.420721
v 0.135447 -0.062780 0.412365
v 0.135068 -0.061834 0.414751
v 0.134688 -0.060888 0.417136
v 0.134307 -0.059942 0.419522
v 0.134721 -0.060919 0.411181
v 0.134288 -0.059992 0.413556
v 0.133859 -0.059067 0.415931
v 0.133481 -0.058164 0.418306
v 0.133908 -0.059118 0.409985
v 0.133486 -0.058234 0.412352
v 0.133064 -0.057349 0.414719
v 0.132641 -0.056463 0.417086
v 0.133131 -0.057434 0.408769
v 0.132664 -0.056565 0.411126
v 0.132197 -0.055695 0.413484
v 0.131729 -0.054824 0.415841
v 0.132280 -0.055786 0.407526
v 0.131774 -0.054946 0.409882
v 0.131268 -0.054105 0.412238
v 0.130761 -0.053264 0.414593
v 0.131342 -0.054203 0.406291
v 0.130804 -0.053390 0.408646
v 0.130265 -0.052575 0.411001
v 0.129726 -0.051761 0.413356
v 0.130356 -0.052684 0.405052
v 0.129790 -0.051883 0.407401
v 0.129224 -0.051082 0.409750
v 0.128657 -0.050280 0.412098
v 0.129328 -0.051192 0.403795
v 0.128737 -0.050412 0.406142
v 0.128147 -0.049631 0.408490
v 0.127555 -0.048849 0.410837
v 0.128247 -0.049738 0.402538
v 0.127635 -0.048982 0.404888
v 0.127024 -0.048226 0.407237
v 0.126411 -0.047470 0.409587
v 0.127124 -0.048334 0.401289
v 0.126494 -0.047595 0.403637
v 0.125863 -0.046855 0.405985
v 0.125232 -0.046115 0.408333
v 0.125974 -0.046968 0.400036
v 0.125327 -0.046239 0.402380
v 0.124679 -0.045510 0.404725
v 0.124031 -0.044780 0.407070
v 0.124798 -0.045618 0.398770
v 0.124136 -0.044907 0.401116
v 0.123473 -0.044195 0.403461
v 0.122810 -0.043483 0.405806
v 0.123583 -0.044297 0.397510
v 0.122908 -0.043608 0.399858
v 0.122233 -0.042918 0.402207
v 0.121557 -0.042227 0.404555
v 0.122341 -0.043018 0.396257
v 0.121654 -0.042341 0.398606
v 0.120967 -0.041664 0.400954
v 0.120279 -0.040987 0.403302
v 0.121082 -0.041767 0.395004
v 0.120383 -0.041098 0.397350
v 0.119684 -0.040430 0.399696
v 0.118984 -0.039761 0.402042
v 0.119805 -0.040529 0.393742
v 0.119096 -0.039874 0.396088
v 0.118386 -0.039218 0.398435
v 0.117676 -0.038562 0.400781
v 0.118501 -0.039308 0.392480
v 0.117784 -0.038672 0.394830
v 0.117066 -0.038035 0.397180
v 0.116378 -0.037400 0.399530
v 0.117171 -0.038122 0.391231
v 0.116458 -0.037501 0.393582
v 0.115828 -0.036883 0.395934
v 0.115198 -0.036265 0.398285
v 0.115925 -0.036969 0.389983
v 0.115285 -0.036358 0.392333
v 0.114644 -0.035747 0.394683
v 0.114004 -0.035134 0.397033
v 0.114746 -0.035835 0.388732
v 0.114096 -0.035229 0.391081
v 0.113445 -0.034623 0.393429
v 0.112795 -0.034016 0.395778
v 0.112577 -0.034689 0.387136
v 0.112567 -0.034106 0.389712
v 0.112557 -0.033520 0.392288
v 0.112546 -0.032933 0.394864
v 0.113695 -0.030922 0.387000
v 0.113695 -0.030922 0.389667
v 0.113695 -0.030922 0.392333
v 0.113695 -0.030922 0.395000
v 0.114596 -0.028005 0.387000
v 0.114596 -0.028005 0.389667
v 0.114596 -0.028005 0.392333
v 0.114596 -0.028005 0.395000
v 0.115260 -0.025085 0.387000
v 0.115260 -0.025085 0.389667
v 0.115260 -0.025085 0.392333
v 0.115260 -0.025085 0.395000
v 0.116423 -0.021920 0.387000
v 0.116423 -0.021920 0.389667
v 0.116423 -0.021920 0.392333
v 0.116423 -0.021920 0.395000
v 0.117570 -0.018676 0.387000
v 0.117570 -0.018676 0.389667
v 0.117570 -0.018676 0.392333
v 0.117570 -0.018676 0.395000
v 0.118440 -0.015469 0.387000
v 0.118440 -0.015469 0.389667
v 0.118440 -0.015469 0.392333
v 0.118440 -0.015469 0.395000
v 0.119072 -0.012297 0.387000
v 0.119072 -0.012297 0.389667
v 0.119072 -0.012297 0.392333
v 0.119072 -0.012297 0.395000
v 0.121042 -0.007972 0.387000
v 0.121042 -0.007972 0.389667
v 0.121042 -0.007972 0.392333
v 0.121042 -0.007972 0.395000
v 0.122633 -0.003746 0.387000
v 0.122633 -0.003746 0.389667
v 0.122633 -0.003746 0.392333
v 0.122633 -0.003746 0.395000
v 0.123928 0.000419 0.387000
v 0.123928 0.000419 0.389667
v 0.123928 0.000419 0.392333
v 0.123928 0.000419 0.395000
v 0.125946 0.005535 0.387000
v 0.125946 0.005535 0.389667
v 0.125946 0.005535 0.392333
v 0.125946 0.005535 0.395000
v 0.127435 0.010345 0.387000
v 0.127435 0.010345 0.389667
v 0.127435 0.010345 0.392333
v 0.127435 0.010345 0.395000
v 0.128205 0.014536 0.387000
v 0.128205 0.014536 0.389667
v 0.128205 0.014536 0.392333
v 0.128205 0.014536 0.395000
f 1 2 6
f 1 6 5
f 2 3 7
f 2 7 6
f 3 4 8
f 3 8 7
f 5 6 10
f 5 10 9
f 6 7 11
f 6 11 10
f 7 8 12
f 7 12 11
f 9 10 14
f 9 14 13
f 10 11 15
f 10 15 14
f 11 12 16
f 11 16 15
f 13 14 18
f 13 18 17
f 14 15 19
f 14 19 18
f 15 16 20
f 15 20 19
f 17 18 22
f 17 22 21
f 18 19 23
f 18 23 22
f 19 20 24
f 19 24 23
f 21 22 26
f 21 26 25
f 22 23 27
f 22 27 26
f 23 24 28
f 23 28 27
f 25 26 30
f 25 30 29
f 26 27 31
f 26 31 30
f 27 28 32
f 27 32 31
f 29 30 34
f 29 34 33
f 30 31 35
f 30 35 34
f 31 32 36
f 31 36 35
f 33 34 38
f 33 38 37
f 34 35 39
f 34 39 38
f 35 36 40
f 35 40 39
f 37 38 42
f 37 42 41
f 38 39 43
f 38 43 42
f 39 40 44
f 39 44 43
f 41 42 46
f 41 46 45
f 42 43 47
f 42 47 46
f 43 44 48
f 43 48 47
f 45 46 50
f 45 50 49
f 46 47 51
f 46 51 50
f 47 48 52
f 47 52 51
f 49 50 54
f 49 54 53
f 50 51 55
f 50 55 54
f 51 52 56
f 51 56 55
f 53 54 58
f 53 58 57
f 54 55 59
f 54 59 58
f 55 56 60
f 55 60 59
f 57 58 62
f 57 62 61
f 58 59 63
f 58 63 62
f 59 60 64
f 59 64 63
f 61 62 66
f 61 66 65
f 62 63 67
f 62 67 66
f 63 64 68
f 63 68 67
f 65 66 70
f 65 70 69
f 66 67 71
f 66 71 70
f 67 68 72
f 67 72 71
f 69 70 74
f 69 74 73
f 70 71 75
f 70 75 74
f 71 72 76
f 71 76 75
f 73 74 78
f 73 78 77
f 74 75 79
f 74 79 78
f 75 76 80
f 75 80 79
f 77 78 82
f 77 82 81
f 78 79 83
f 78 83 82
f 79 80 84
f 79 84 83
f 81 82 86
f 81 86 85
f 82 83 87
f 82 87 86
f 83 84 88
f 83 88 87
f 85 86 90
f 85 90 89
f 86 87 91
f 86 91 90
f 87 88 92
f 87 92 91
f 89 90 94
f 89 94 93
f 90 91 95
f 90 95 94
f 91 92 96
f 91 96 95
f 93 94 98
f 93 98 97
f 94 95 99
f 94 99 98
f 95 96 100
f 95 100 99
f 97 98 102
f 97 102 101
f 98 99 103
f 98 103 102
f 99 100 104
f 99 104 103
f 101 102 106
f 101 106 105
f 102 103 107
f 102 107 106
f 103 104 108
f 103 108 107
f 105 106 110
f 105 110 109
f 106 107 111
f 106 111 110
f 107 108 112
f 107 112 111
f 109 110 114
f 109 114 113
f 110 111 115
f 110 115 114
f 111 112 116
f 111 116 115
f 113 114 118
f 113 118 117
f 114 115 119
f 114 119 118
f 115 116 120
f 115 120 119
f 117 118 122
f 117 122 121
f 118 119 123
f 118 123 122
f 119 120 124
f 119 124 123
f 121 122 126
f 121 126 125
f 122 123 127
f 122 127 126
f 123 124 128
f 123 128 127
f 125 126 130
f 125 130 129
f 126 127 131
f 126 131 130
f 127 128 132
f 127 132 131
f 129 130 134
f 129 134 133
f 130 131 135
f 130 135 134
f 131 132 136
f 131 136 135
f 133 134 138
f 133 138 137
f 134 135 139
f 134 139 138
f 135 136 140
f 135 140 139
f 137 138 142
f 137 142 141
f 138 139 143
f 138 143 142
f 139 140 144
f 139 144 143
f 141 142 146
f 141 146 145
f 142 143 147
f 142 147 146
f 143 144 148
f 143 148 147
f 145 146 150
f 145 150 149
f 146 147 151
f 146 151 150
f 147 148 152
f 147 152 151
f 149 150 154
f 149 154 153
f 150 151 155
f 150 155 154
f 151 152 156
f 151 156 155
f 153 154 158
f 153 158 157
f 154 155 159
f 154 159 158
f 155 156 160
f 155 160 159
f 157 158 162
f 157 162 161
f 158 159 163
f 158 163 162
f 159 160 164
f 159 164 163
f 161 162 166
f 161 166 165
f 162 163 167
f 162 167 166
f 163 164 168
f 163 168 167
f 165 166 170
f 165 170 169
f 166 167 171
f 166 171 170
f 167 168 172
f 167 172 171
f 169 170 174
f 169 174 173
f 170 171 175
f 170 175 174
f 171 172 176
f 171 176 175
f 173 174 178
f 173 178 177
f 174 175 179
f 174 179 178
f 175 176 180
f 175 180 179
f 177 178 182
f 177 182 181
f 178 179 183
f 178 183 182
f 179 180 184
f 179 184 183
f 181 182 186
f 181 186 185
f 182 183 187
f 182 187 186
f 183 184 188
f 183 188 187
f 185 186 190
f 185 190 189
f 186 187 191
f 186 191 190
f 187 188 192
f 187 192 191
f 189 190 194
f 189 194 193
f 190 191 195
f 190 195 194
f 191 192 196
f 191 196 195
f 193 194 198
f 193 198 197
f 194 195 199
f 194 199 198
f 195 196 200
f 195 200 199
f 197 198 202
f 197 202 201
f 198 199 203
f 198 203 202
f 199 200 204
f 199 204 203
f 201 202 206
f 201 206 205
f 202 203 207
f 202 207 206
f 203 204 208
f 203 208 207
f 205 206 210
f 205 210 209
f 206 207 211
f 206 211 210
f 207 208 212
f 207 212 211
f 209 210 214
f 209 214 213
f 210 211 215
f 210 215 214
f 211 212 216
f 211 216 215
f 213 214 218
f 213 218 217
f 214 215 219
f 214 219 218
f 215 216 220
f 215 220 219
f 217 218 222
f 217 222 221
f 218 219 223
f 218 223 222
f 219 220 224
f 219 224 223
f 221 222 226
f 221 226 225
f 222 223 227
f 222 227 226
f 223 224 228
f 223 228 227
f 225 226 230
f 225 230 229
f 226 227 231
f 226 231 230
f 227 228 232
f 227 232 231
f 229 230 234
f 229 234 233
f 230 231 235
f 230 235 234
f 231 232 236
f 231 236 235
f 233 234 238
f 233 238 237
f 234 235 239
f 234 239 238
f 235 236 240
f 235 240 239
f 237 238 242
f 237 242 241
f 238 239 243
f 238 243 242
f 239 240 244
f 239 244 243
f 241 242 246
f 241 246 245
f 242 243 247
f 242 247 246
f 243 244 248
f 243 248 247
f 245 246 250
f 245 250 249
f 246 247 251
f 246 251 250
f 247 248 252
f 247 252 251
f 249 250 254
f 249 254 253
f 250 251 255
f 250 255 254
f 251 252 256
f 251 256 255
f 253 254 258
f 253 258 257
f 254 255 259
f 254 259 258
f 255 256 260
f 255 260 259
f 257 258 262
f 257 262 261
f 258 259 263
f 258 263 262
f 259 260 264
f 259 264 263
f 261 262 266
f 261 266 265
f 262 263 267
f 262 267 266
f 263 264 268
f 263 268 267
f 265 266 270
f 265 270 269
f 266 267 271
f 266 271 270
f 267 268 272
f 267 272 271
f 269 270 274
f 269 274 273
f 270 271 275
f 270 275 274
f 271 272 276
f 271 276 275
f 273 274 278
f 273 278 277
f 274 275 279
f 274 279 278
f 275 276 280
f 275 280 279
f 277 278 282
f 277 282 281
f 278 279 283
f 278 283 282
f 279 280 284
f 279 284 283
f 281 282 286
f 281 286 285
f 282 283 287
f 282 287 286
f 283 284 288
f 283 288 287
f 285 286 290
f 285 290 289
f 286 287 291
f 286 291 290
f 287 288 292
f 287 292 291
f 289 290 294
f 289 294 293
f 290 291 295
f 290 295 294
f 291 292 296
f 291 296 295
f 293 294 298
f 293 298 297
f 294 295 299
f 294 299 298
f 295 296 300
f 295 300 299
f 297 298 302
f 297 302 301
f 298 299 303
f 298 303 302
f 299 300 304
f 299 304 303
f 301 302 306
f 301 306 305
f 302 303 307
f 302 307 306
f 303 304 308
f 303 308 307
f 305 306 310
f 305 310 309
f 306 307 311
f 306 311 310
f 307 308 312
f 307 312 311
f 309 310 314
f 309 314 313
f 310 311 315
f 310 315 314
f 311 312 316
f 311 316 315
f 313 314 318
f 313 318 317
f 314 315 319
f 314 319 318
f 315 316 320
f 315 320 319
f 317 318 322
f 317 322 321
f 318 319 323
f 318 323 322
f 319 320 324
f 319 324 323
f 321 322 326
f 321 326 325
f 322 323 327
f 322 327 326
f 323 324 328
f 323 328 327
f 325 326 330
f 325 330 329
f 326 327 331
f 326 331 330
f 327 328 332
f 327 332 331
f 329 330 334
f 329 334 333
f 330 331 335
f 330 335 334
f 331 332 336
f 331 336 335
f 333 334 338
f 333 338 337
f 334 335 339
f 334 339 338
f 335 336 340
f 335 340 339
f 337 338 342
f 337 342 341
f 338 339 343
f 338 343 342
f 339 340 344
f 339 344 343
f 341 342 346
f 341 346 345
f 342 343 347
f 342 347 346
f 343 344 348
f 343 348 347
f 345 346 350
f 345 350 349
f 346 347 351
f 346 351 350
f 347 348 352
f 347 352 351
f 349 350 354
f 349 354 353
f 350 351 355
f 350 355 354
f 351 352 356
f 351 356 355
f 353 354 358
f 353 358 357
f 354 355 359
f 354 359 358
f 355 356 360
f 355 360 359
f 357 358 362
f 357 362 361
f 358 359 363
f 358 363 362
f 359 360 364
f 359 364 363
f 361 362 366
f 361 366 365
f 362 363 367
f 362 367 366
f 363 364 368
f 363 368 367
f 365 366 370
f 365 370 369
f 366 367 371
f 366 371 370
f 367 368 372
f 367 372 371
f 369 370 374
f 369 374 373
f 370 371 375
f 370 375 374
f 371 372 376
f 371 376 375
f 373 374 378
f 373 378 377
f 374 375 379
f 374 379 378
f 375 376 380
f 375 380 379
f 377 378 382
f 377 382 381
f 378 379 383
f 378 383 382
f 379 380 384
f 379 384 383
f 381 382 386
f 381 386 385
f 382 383 387
f 382 387 386
f 383 384 388
f 383 388 387
f 385 386 390
f 385 390 389
f 386 387 391
f 386 391 390
f 387 388 392
f 387 392 391
f 389 390 394
f 389 394 393
f 390 391 395
f 390 395 394
f 391 392 396
f 391 396 395
f 393 394 398
f 393 398 397
f 394 395 399
f 394 399 398
f 395 396 400
f 395 400 399
f 397 398 402
f 397 402 401
f 398 399 403
f 398 403 402
f 399 400 404
f 399 404 403
f 401 402 406
f 401 406 405
f 402 403 407
f 402 407 406
f 403 404 408
f 403 408 407
f 405 406 410
f 405 410 409
f 406 407 411
f 406 411 410
f 407 408 412
f 407 412 411
f 409 410 414
f 409 414 413
f 410 411 415
f 410 415 414
f 411 412 416
f 411 416 415
f 413 414 418
f 413 418 417
f 414 415 419
f 414 419 418
f 415 416 420
f 415 420 419
f 417 418 422
f 417 422 421
f 418 419 423
f 418 423 422
f 419 420 424
f 419 424 423
f 421 422 426
f 421 426 425
f 422 423 427
f 422 427 426
f 423 424 428
f 423 428 427
f 425 426 430
f 425 430 429
f 426 427 431
f 426 431 430
f 427 428 432
f 427 432 431
f 429 430 434
f 429 434 433
f 430 431 435
f 430 435 434
f 431 432 436
f 431 436 435
f 433 434 438
f 433 438 437
f 434 435 439
f 434 439 438
f 435 436 440
f 435 440 439
f 437 438 442
f 437 442 441
f 438 439 443
f 438 443 442
f 439 440 444
f 439 444 443
f 441 442 446
f 441 446 445
f 442 443 447
f 442 447 446
f 443 444 448
f 443 448 447
f 445 446 450
f 445 450 449
f 446 447 451
f 446 451 450
f 447 448 452
f 447 452 451
f 449 450 454
f 449 454 453
f 450 451 455
f 450 455 454
f 451 452 456
f 451 456 455
f 453 454 458
f 453 458 457
f 454 455 459
f 454 459 458
f 455 456 460
f 455 460 459
f 457 458 462
f 457 462 461
f 458 459 463
f 458 463 462
f 459 460 464
f 459 464 463
f 461 462 466
f 461 466 465
f 462 463 467
f 462 467 466
f 463 464 468
f 463 468 467
f 465 466 470
f 465 470 469
f 466 467 471
f 466 471 470
f 467 468 472
f 467 472 471
f 469 470 474
f 469 474 473
f 470 471 475
f 470 475 474
f 471 472 476
f 471 476 475
f 473 474 478
f 473 478 477
f 474 475 479
f 474 479 478
f 475 476 480
f 475 480 479
f 477 478 482
f 477 482 481
f 478 479 483
f 478 483 482
f 479 480 484
f 479 484 483
f 481 482 486
f 481 486 485
f 482 483 487
f 482 487 486
f 483 484 488
f 483 488 487
f 485 486 490
f 485 490 489
f 486 487 491
f 486 491 490
f 487 488 492
f 487 492 491
f 489 490 494
f 489 494 493
f 490 491 495
f 490 495 494
f 491 492 496
f 491 496 495
f 493 494 498
f 493 498 497
f 494 495 499
f 494 499 498
f 495 496 500
f 495 500 499
f 497 498 502
f 497 502 501
f 498 499 503
f 498 503 502
f 499 500 504
f 499 504 503
f 501 502 506
f 501 506 505
f 502 503 507
f 502 507 506
f 503 504 508
f 503 508 507
f 505 506 510
f 505 510 509
f 506 507 511
f 506 511 510
f 507 508 512
f 507 512 511
f 509 510 514
f 509 514 513
f 510 511 515
f 510 515 514
f 511 512 516
f 511 516 515
f 513 514 518
f 513 518 517
f 514 515 519
f 514 519 518
f 515 516 520
f 515 520 519
f 517 518 522
f 517 522 521
f 518 519 523
f 518 523 522
f 519 520 524
f 519 524 523
f 521 522 526
f 521 526 525
f 522 523 527
f 522 527 526
f 523 524 528
f 523 528 527
f 525 526 530
f 525 530 529
f 526 527 531
f 526 531 530
f 527 528 532
f 527 532 531
f 529 530 534
f 529 534 533
f 530 531 535
f 530 535 534
f 531 532 536
f 531 536 535
f 533 534 538
f 533 538 537
f 534 535 539
f 534 539 538
f 535 536 540
f 535 540 539
f 537 538 542
f 537 542 541
f 538 539 543
f 538 543 542
f 539 540 544
f 539 544 543
f 541 542 546
f 541 546 545
f 542 543 547
f 542 547 546
f 543 544 548
f 543 548 547
f 545 546 550
f 545 550 549
f 546 547 551
f 546 551 550
f 547 548 552
f 547 552 551
f 549 550 554
f 549 554 553
f 550 551 555
f 550 555 554
f 551 552 556
f 551 556 555
f 553 554 558
f 553 558 557
f 554 555 559
f 554 559 558
f 555 556 560
f 555 560 559
f 557 558 562
f 557 562 561
f 558 559 563
f 558 563 562
f 559 560 564
f 559 564 563
f 561 562 566
f 561 566 565
f 562 563 567
f 562 567 566
f 563 564 568
f 563 568 567
f 565 566 570
f 565 570 569
f 566 567 571
f 566 571 570
f 567 568 572
f 567 572 571
f 569 570 574
f 569 574 573
f 570 571 575
f 570 575 574
f 571 572 576
f 571 576 575
f 573 574 578
f 573 578 577
f 574 575 579
f 574 579 578
f 575 576 580
f 575 580 579
f 577 578 582
f 577 582 581
f 578 579 583
f 578 583 582
f 579 580 584
f 579 584 583
f 581 582 586
f 581 586 585
f 582 583 587
f 582 587 586
f 583 584 588
f 583 588 587
f 585 586 590
f 585 590 589
f 586 587 591
f 586 591 590
f 587 588 592
f 587 592 591
f 589 590 594
f 589 594 593
f 590 591 595
f 590 595 594
f 591 592 596
f 591 596 595
f 593 594 598
f 593 598 597
f 594 595 599
f 594 599 598
f 595 596 600
f 595 600 599
f 597 598 602
f 597 602 601
f 598 599 603
f 598 603 602
f 599 600 604
f 599 604 603
f 601 602 606
f 601 606 605
f 602 603 607
f 602 607 606
f 603 604 608
f 603 608 607
f 605 606 610
f 605 610 609
f 606 607 611
f 606 611 610
f 607 608 612
f 607 612 611
f 609 610 614
f 609 614 613
f 610 611 615
f 610 615 614
f 611 612 616
f 611 616 615
f 613 614 618
f 613 618 617
f 614 615 619
f 614 619 618
f 615 616 620
f 615 620 619
f 617 618 622
f 617 622 621
f 618 619 623
f 618 623 622
f 619 620 624
f 619 624 623
f 621 622 626
f 621 626 625
f 622 623 627
f 622 627 626
f 623 624 628
f 623 628 627
f 625 626 630
f 625 630 629
f 626 627 631
f 626 631 630
f 627 628 632
f 627 632 631
f 629 630 634
f 629 634 633
f 630 631 635
f 630 635 634
f 631 632 636
f 631 636 635
f 633 634 638
f 633 638 637
f 634 635 639
f 634 639 638
f 635 636 640
f 635 640 639
f 637 638 642
f 637 642 641
f 638 639 643
f 638 643 642
f 639 640 644
f 639 644 643
f 641 642 646
f 641 646 645
f 642 643 647
f 642 647 646
f 643 644 648
f 643 648 647
f 645 646 650
f 645 650 649
f 646 647 651
f 646 651 650
f 647 648 652
f 647 652 651
f 649 650 654
f 649 654 653
f 650 651 655
f 650 655 654
f 651 652 656
f 651 656 655
f 653 654 658
f 653 658 657
f 654 655 659
f 654 659 658
f 655 656 660
f 655 660 659
f 657 658 662
f 657 662 661
f 658 659 663
f 658 663 662
f 659 660 664
f 659 664 663
f 661 662 666
f 661 666 665
f 662 663 667
f 662 667 666
f 663 664 668
f 663 668 667
f 665 666 670
f 665 670 669
f 666 667 671
f 666 671 670
f 667 668 672
f 667 672 671
f 669 670 674
f 669 674 673
f 670 671 675
f 670 675 674
f 671 672 676
f 671 676 675
f 673 674 678
f 673 678 677
f 674 675 679
f 674 679 678
f 675 676 680
f 675 680 679
f 677 678 682
f 677 682 681
f 678 679 683
f 678 683 682
f 679 680 684
f 679 684 683
f 681 682 686
f 681 686 685
f 682 683 687
f 682 687 686
f 683 684 688
f 683 688 687
f 685 686 690
f 685 690 689
f 686 687 691
f 686 691 690
f 687 688 692
f 687 692 691
f 689 690 694
f 689 694 693
f 690 691 695
f 690 695 694
f 691 692 696
f 691 696 695
f 693 694 698
f 693 698 697
f 694 695 699
f 694 699 698
f 695 696 700
f 695 700 699
f 697 698 702
f 697 702 701
f 698 699 703
f 698 703 702
f 699 700 704
f 699 704 703
f 701 702 706
f 701 706 705
f 702 703 707
f 702 707 706
f 703 704 708
f 703 708 707
f 705 706 710
f 705 710 709
f 706 707 711
f 706 711 710
f 707 708 712
f 707 712 711
f 709 710 714
f 709 714 713
f 710 711 715
f 710 715 714
f 711 712 716
f 711 716 715
f 713 714 718
f 713 718 717
f 714 715 719
f 714 719 718
f 715 716 720
f 715 720 719
f 717 718 722
f 717 722 721
f 718 719 723
f 718 723 722
f 719 720 724
f 719 724 723
f 721 722 726
f 721 726 725
f 722 723 727
f 722 727 726
f 723 724 728
f 723 728 727
f 725 726 730
f 725 730 729
f 726 727 731
f 726 731 730
f 727 728 732
f 727 732 731
f 729 730 734
f 729 734 733
f 730 731 735
f 730 735 734
f 731 732 736
f 731 736 735
f 733 734 738
f 733 738 737
f 734 735 739
f 734 739 738
f 735 736 740
f 735 740 739
f 737 738 742
f 737 742 741
f 738 739 743
f 738 743 742
f 739 740 744
f 739 744 743
f 741 742 746
f 741 746 745
f 742 743 747
f 742 747 746
f 743 744 748
f 743 748 747
f 745 746 750
f 745 750 749
f 746 747 751
f 746 751 750
f 747 748 752
f 747 752 751
f 749 750 754
f 749 754 753
f 750 751 755
f 750 755 754
f 751 752 756
f 751 756 755
f 753 754 758
f 753 758 757
f 754 755 759
f 754 759 758
f 755 756 760
f 755 760 759
f 757 758 762
f 757 762 761
f 758 759 763
f 758 763 762
f 759 760 764
f 759 764 763
f 761 762 766
f 761 766 765
f 762 763 767
f 762 767 766
f 763 764 768
f 763 768 767
f 765 766 770
f 765 770 769
f 766 767 771
f 766 771 770
f 767 768 772
f 767 772 771
f 769 770 774
f 769 774 773
f 770 771 775
f 770 775 774
f 771 772 776
f 771 776 775
f 773 774 778
f 773 778 777
f 774 775 779
f 774 779 778
f 775 776 780
f 775 780 779
f 777 778 782
f 777 782 781
f 778 779 783
f 778 783 782
f 779 780 784
f 779 784 783
f 781 782 786
f 781 786 785
f 782 783 787
f 782 787 786
f 783 784 788
f 783 788 787
f 785 786 790
f 785 790 789
f 786 787 791
f 786 791 790
f 787 788 792
f 787 792 791
f 789 790 794
f 789 794 793
f 790 791 795
f 790 795 794
f 791 792 796
f 791 796 795
f 793 794 798
f 793 798 797
f 794 795 799
f 794 799 798
f 795 796 800
f 795 800 799
f 797 798 802
f 797 802 801
f 798 799 803
f 798 803 802
f 799 800 804
f 799 804 803
f 801 802 806
f 801 806 805
f 802 803 807
f 802 807 806
f 803 804 808
f 803 808 807
f 805 806 810
f 805 810 809
f 806 807 811
f 806 811 810
f 807 808 812
f 807 812 811
f 809 810 814
f 809 814 813
f 810 811 815
f 810 815 814
f 811 812 816
f 811 816 815
f 813 814 818
f 813 818 817
f 814 815 819
f 814 819 818
f 815 816 820
f 815 820 819
f 817 818 822
f 817 822 821
f 818 819 823
f 818 823 822
f 819 820 824
f 819 824 823
f 821 822 826
f 821 826 825
f 822 823 827
f 822 827 826
f 823 824 828
f 823 828 827
f 825 826 830
f 825 830 829
f 826 827 831
f 826 831 830
f 827 828 832
f 827 832 831
f 829 830 834
f 829 834 833
f 830 831 835
f 830 835 834
f 831 832 836
f 831 836 835
f 833 834 838
f 833 838 837
f 834 835 839
f 834 839 838
f 835 836 840
f 835 840 839
f 837 838 842
f 837 842 841
f 838 839 843
f 838 843 842
f 839 840 844
f 839 844 843
f 841 842 846
f 841 846 845
f 842 843 847
f 842 847 846
f 843 844 848
f 843 848 847
f 845 846 850
f 845 850 849
f 846 847 851
f 846 851 850
f 847 848 852
f 847 852 851
f 849 850 854
f 849 854 853
f 850 851 855
f 850 855 854
f 851 852 856
f 851 856 855
f 853 854 858
f 853 858 857
f 854 855 859
f 854 859 858
f 855 856 860
f 855 860 859
f 857 858 862
f 857 862 861
f 858 859 863
f 858 863 862
f 859 860 864
f 859 864 863
f 861 862 866
f 861 866 865
f 862 863 867
f 862 867 866
f 863 864 868
f 863 868 867
f 865 866 870
f 865 870 869
f 866 867 871
f 866 871 870
f 867 868 872
f 867 872 871
f 869 870 874
f 869 874 873
f 870 871 875
f 870 875 874
f 871 872 876
f 871 876 875
f 873 874 878
f 873 878 877
f 874 875 879
f 874 879 878
f 875 876 880
f 875 880 879
f 877 878 882
f 877 882 881
f 878 879 883
f 878 883 882
f 879 880 884
f 879 884 883
f 881 882 886
f 881 886 885
f 882 883 887
f 882 887 886
f 883 884 888
f 883 888 887
f 885 886 890
f 885 890 889
f 886 887 891
f 886 891 890
f 887 888 892
f 887 892 891
f 889 890 894
f 889 894 893
f 890 891 895
f 890 895 894
f 891 892 896
f 891 896 895
f 893 894 898
f 893 898 897
f 894 895 899
f 894 899 898
f 895 896 900
f 895 900 899
f 897 898 902
f 897 902 901
f 898 899 903
f 898 903 902
f 899 900 904
f 899 904 903
f 901 902 906
f 901 906 905
f 902 903 907
f 902 907 906
f 903 904 908
f 903 908 907
f 905 906 910
f 905 910 909
f 906 907 911
f 906 911 910
f 907 908 912
f 907 912 911
f 909 910 914
f 909 914 913
f 910 911 915
f 910 915 914
f 911 912 916
f 911 916 915
f 913 914 918
f 913 918 917
f 914 915 919
f 914 919 918
f 915 916 920
f 915 920 919
f 917 918 922
f 917 922 921
f 918 919 923
f 918 923 922
f 919 920 924
f 919 924 923
f 921 922 926
f 921 926 925
f 922 923 927
f 922 927 926
f 923 924 928
f 923 928 927
f 925 926 930
f 925 930 929
f 926 927 931
f 926 931 930
f 927 928 932
f 927 932 931
f 929 930 934
f 929 934 933
f 930 931 935
f 930 935 934
f 931 932 936
f 931 936 935
f 933 934 938
f 933 938 937
f 934 935 939
f 934 939 938
f 935 936 940
f 935 940 939
f 937 938 942
f 937 942 941
f 938 939 943
f 938 943 942
f 939 940 944
f 939 944 943
f 941 942 946
f 941 946 945
f 942 943 947
f 942 947 946
f 943 944 948
f 943 948 947
f 945 946 950
f 945 950 949
f 946 947 951
f 946 951 950
f 947 948 952
f 947 952 951
f 949 950 954
f 949 954 953
f 950 951 955
f 950 955 954
f 951 952 956
f 951 956 955
f 953 954 958
f 953 958 957
f 954 955 959
f 954 959 958
f 955 956 960
f 955 960 959
f 957 958 962
f 957 962 961
f 958 959 963
f 958 963 962
f 959 960 964
f 959 964 963
f 961 962 966
f 961 966 965
f 962 963 967
f 962 967 966
f 963 964 968
f 963 968 967
f 965 966 970
f 965 970 969
f 966 967 971
f 966 971 970
f 967 968 972
f 967 972 971
f 969 970 974
f 969 974 973
f 970 971 975
f 970 975 974
f 971 972 976
f 971 976 975
f 973 974 978
f 973 978 977
f 974 975 979
f 974 979 978
f 975 976 980
f 975 980 979
f 977 978 982
f 977 982 981
f 978 979 983
f 978 983 982
f 979 980 984
f 979 984 983
f 981 982 986
f 981 986 985
f 982 983 987
f 982 987 986
f 983 984 988
f 983 988 987
f 985 986 990
f 985 990 989
f 986 987 991
f 986 991 990
f 987 988 992
f 987 992 991
f 989 990 994
f 989 994 993
f 990 991 995
f 990 995 994
f 991 992 996
f 991 996 995
f 993 994 998
f 993 998 997
f 994 995 999
f 994 999 998
f 995 996 1000
f 995 1000 999
f 997 998 1002
f 997 1002 1001
f 998 999 1003
f 998 1003 1002
f 999 1000 1004
f 999 1004 1003
f 1001 1002 1006
f 1001 1006 1005
f 1002 1003 1007
f 1002 1007 1006
f 1003 1004 1008
f 1003 1008 1007
f 1005 1006 1010
f 1005 1010 1009
f 1006 1007 1011
f 1006 1011 1010
f 1007 1008 1012
f 1007 1012 1011
f 1009 1010 1014
f 1009 1014 1013
f 1010 1011 1015
f 1010 1015 1014
f 1011 1012 1016
f 1011 1016 1015
f 1013 1014 1018
f 1013 1018 1017
f 1014 1015 1019
f 1014 1019 1018
f 1015 1016 1020
f 1015 1020 1019
f 1017 1018 1022
f 1017 1022 1021
f 1018 1019 1023
f 1018 1023 1022
f 1019 1020 1024
f 1019 1024 1023
f 1021 1022 1026
f 1021 1026 1025
f 1022 1023 1027
f 1022 1027 1026
f 1023 1024 1028
f 1023 1028 1027
f 1025 1026 1030
f 1025 1030 1029
f 1026 1027 1031
f 1026 1031 1030
f 1027 1028 1032
f 1027 1032 1031
f 1029 1030 1034
f 1029 1034 1033
f 1030 1031 1035
f 1030 1035 1034
f 1031 1032 1036
f 1031 1036 1035
f 1033 1034 1038
f 1033 1038 1037
f 1034 1035 1039
f 1034 1039 1038
f 1035 1036 1040
f 1035 1040 1039
f 1037 1038 1042
f 1037 1042 1041
f 1038 1039 1043
f 1038 1043 1042
f 1039 1040 1044
f 1039 1044 1043
f 1041 1042 1046
f 1041 1046 1045
f 1042 1043 1047
f 1042 1047 1046
f 1043 1044 1048
f 1043 1048 1047
f 1045 1046 1050
f 1045 1050 1049
f 1046 1047 1051
f 1046 1051 1050
f 1047 1048 1052
f 1047 1052 1051
f 1049 1050 1054
f 1049 1054 1053
f 1050 1051 1055
f 1050 1055 1054
f 1051 1052 1056
f 1051 1056 1055
f 1053 1054 1058
f 1053 1058 1057
f 1054 1055 1059
f 1054 1059 1058
f 1055 1056 1060
f 1055 1060 1059
f 1057 1058 1062
f 1057 1062 1061
f 1058 1059 1063
f 1058 1063 1062
f 1059 1060 1064
f 1059 1064 1063
f 1061 1062 1066
f 1061 1066 1065
f 1062 1063 1067
f 1062 1067 1066
f 1063 1064 1068
f 1063 1068 1067
f 1065 1066 1070
f 1065 1070 1069
f 1066 1067 1071
f 1066 1071 1070
f 1067 1068 1072
f 1067 1072 1071
f 1069 1070 1074
f 1069 1074 1073
f 1070 1071 1075
f 1070 1075 1074
f 1071 1072 1076
f 1071 1076 1075
f 1073 1074 1078
f 1073 1078 1077
f 1074 1075 1079
f 1074 1079 1078
f 1075 1076 1080
f 1075 1080 1079
f 1077 1078 1082
f 1077 1082 1081
f 1078 1079 1083
f 1078 1083 1082
f 1079 1080 1084
f 1079 1084 1083
f 1081 1082 1086
f 1081 1086 1085
f 1082 1083 1087
f 1082 1087 1086
f 1083 1084 1088
f 1083 1088 1087
f 1085 1086 1090
f 1085 1090 1089
f 1086 1087 1091
f 1086 1091 1090
f 1087 1088 1092
f 1087 1092 1091
f 1089 1090 1094
f 1089 1094 1093
f 1090 1091 1095
f 1090 1095 1094
f 1091 1092 1096
f 1091 1096 1095
f 1093 1094 1098
f 1093 1098 1097
f 1094 1095 1099
f 1094 1099 1098
f 1095 1096 1100
f 1095 1100 1099
f 1097 1098 1102
f 1097 1102 1101
f 1098 1099 1103
f 1098 1103 1102
f 1099 1100 1104
f 1099 1104 1103
f 1101 1102 1106
f 1101 1106 1105
f 1102 1103 1107
f 1102 1107 1106
f 1103 1104 1108
f 1103 1108 1107
f 1105 1106 1110
f 1105 1110 1109
f 1106 1107 1111
f 1106 1111 1110
f 1107 1108 1112
f 1107 1112 1111
f 1109 1110 1114
f 1109 1114 1113
f 1110 1111 1115
f 1110 1115 1114
f 1111 1112 1116
f 1111 1116 1115
f 1113 1114 1118
f 1113 1118 1117
f 1114 1115 1119
f 1114 1119 1118
f 1115 1116 1120
f 1115 1120 1119
f 1117 1118 1122
f 1117 1122 1121
f 1118 1119 1123
f 1118 1123 1122
f 1119 1120 1124
f 1119 1124 1123
f 1121 1122 1126
f 1121 1126 1125
f 1122 1123 1127
f 1122 1127 1126
f 1123 1124 1128
f 1123 1128 1127
f 1125 1126 1130
f 1125 1130 1129
f 1126 1127 1131
f 1126 1131 1130
f 1127 1128 1132
f 1127 1132 1131
f 1129 1130 1134
f 1129 1134 1133
f 1130 1131 1135
f 1130 1135 1134
f 1131 1132 1136
f 1131 1136 1135
f 1133 1134 1138
f 1133 1138 1137
f 1134 1135 1139
f 1134 1139 1138
f 1135 1136 1140
f 1135 1140 1139
f 1137 1138 1142
f 1137 1142 1141
f 1138 1139 1143
f 1138 1143 1142
f 1139 1140 1144
f 1139 1144 1143
f 1141 1142 1146
f 1141 1146 1145
f 1142 1143 1147
f 1142 1147 1146
f 1143 1144 1148
f 1143 1148 1147
f 1145 1146 1150
f 1145 1150 1149
f 1146 1147 1151
f 1146 1151 1150
f 1147 1148 1152
f 1147 1152 1151
f 1149 1150 1154
f 1149 1154 1153
f 1150 1151 1155
f 1150 1155 1154
f 1151 1152 1156
f 1151 1156 1155
f 1153 1154 1158
f 1153 1158 1157
f 1154 1155 1159
f 1154 1159 1158
f 1155 1156 1160
f 1155 1160 1159
f 1157 1158 1162
f 1157 1162 1161
f 1158 1159 1163
f 1158 1163 1162
f 1159 1160 1164
f 1159 1164 1163
f 1161 1162 1166
f 1161 1166 1165
f 1162 1163 1167
f 1162 1167 1166
f 1163 1164 1168
f 1163 1168 1167
f 1165 1166 1170
f 1165 1170 1169
f 1166 1167 1171
f 1166 1171 1170
f 1167 1168 1172
f 1167 1172 1171
f 1169 1170 1174
f 1169 1174 1173
f 1170 1171 1175
f 1170 1175 1174
f 1171 1172 1176
f 1171 1176 1175
f 1173 1174 1178
f 1173 1178 1177
f 1174 1175 1179
f 1174 1179 1178
f 1175 1176 1180
f 1175 1180 1179
f 1177 1178 1182
f 1177 1182 1181
f 1178 1179 1183
f 1178 1183 1182
f 1179 1180 1184
f 1179 1184 1183
f 1181 1182 1186
f 1181 1186 1185
f 1182 1183 1187
f 1182 1187 1186
f 1183 1184 1188
f 1183 1188 1187
f 1185 1186 1190
f 1185 1190 1189
f 1186 1187 1191
f 1186 1191 1190
f 1187 1188 1192
f 1187 1192 1191
f 1189 1190 1194
f 1189 1194 1193
f 1190 1191 1195
f 1190 1195 1194
f 1191 1192 1196
f 1191 1196 1195
f 1193 1194 1198
f 1193 1198 1197
f 1194 1195 1199
f 1194 1199 1198
f 1195 1196 1200
f 1195 1200 1199
f 1197 1198 1202
f 1197 1202 1201
f 1198 1199 1203
f 1198 1203 1202
f 1199 1200 1204
f 1199 1204 1203
f 1201 1202 1206
f 1201 1206 1205
f 1202 1203 1207
f 1202 1207 1206
f 1203 1204 1208
f 1203 1208 1207
f 1205 1206 1210
f 1205 1210 1209
f 1206 1207 1211
f 1206 1211 1210
f 1207 1208 1212
f 1207 1212 1211
f 1209 1210 1214
f 1209 1214 1213
f 1210 1211 1215
f 1210 1215 1214
f 1211 1212 1216
f 1211 1216 1215
f 1213 1214 1218
f 1213 1218 1217
f 1214 1215 1219
f 1214 1219 1218
f 1215 1216 1220
f 1215 1220 1219
f 1217 1218 1222
f 1217 1222 1221
f 1218 1219 1223
f 1218 1223 1222
f 1219 1220 1224
f 1219 1224 1223
f 1221 1222 1226
f 1221 1226 1225
f 1222 1223 1227
f 1222 1227 1226
f 1223 1224 1228
f 1223 1228 1227
f 1225 1226 1230
f 1225 1230 1229
f 1226 1227 1231
f 1226 1231 1230
f 1227 1228 1232
f 1227 1232 1231
f 1229 1230 1234
f 1229 1234 1233
f 1230 1231 1235
f 1230 1235 1234
f 1231 1232 1236
f 1231 1236 1235
f 1233 1234 1238
f 1233 1238 1237
f 1234 1235 1239
f 1234 1239 1238
f 1235 1236 1240
f 1235 1240 1239
f 1237 1238 1242
f 1237 1242 1241
f 1238 1239 1243
f 1238 1243 1242
f 1239 1240 1244
f 1239 1244 1243
f 1241 1242 1246
f 1241 1246 1245
f 1242 1243 1247
f 1242 1247 1246
f 1243 1244 1248
f 1243 1248 1247
f 1245 1246 1250
f 1245 1250 1249
f 1246 1247 1251
f 1246 1251 1250
f 1247 1248 1252
f 1247 1252 1251
f 1249 1250 1254
f 1249 1254 1253
f 1250 1251 1255
f 1250 1255 1254
f 1251 1252 1256
f 1251 1256 1255
f 1253 1254 1258
f 1253 1258 1257
f 1254 1255 1259
f 1254 1259 1258
f 1255 1256 1260
f 1255 1260 1259
f 1257 1258 1262
f 1257 1262 1261
f 1258 1259 1263
f 1258 1263 1262
f 1259 1260 1264
f 1259 1264 1263
f 1261 1262 1266
f 1261 1266 1265
f 1262 1263 1267
f 1262 1267 1266
f 1263 1264 1268
f 1263 1268 1267
f 1265 1266 1270
f 1265 1270 1269
f 1266 1267 1271
f 1266 1271 1270
f 1267 1268 1272
f 1267 1272 1271
f 1269 1270 1274
f 1269 1274 1273
f 1270 1271 1275
f 1270 1275 1274
f 1271 1272 1276
f 1271 1276 1275
f 1273 1274 1278
f 1273 1278 1277
f 1274 1275 1279
f 1274 1279 1278
f 1275 1276 1280
f 1275 1280 1279
f 1277 1278 2
f 1277 2 1
f 1278 1279 3
f 1278 3 2
f 1279 1280 4
f 1279 4 3
