# drawstring trash bag - generated by make_trash_bag.py
v -0.120000 -0.046000 0.387000
v -0.120000 -0.046000 0.391000
v -0.120000 -0.046000 0.395000
v -0.116000 -0.046000 0.387000
v -0.116000 -0.046000 0.391000
v -0.116000 -0.046000 0.395000
v -0.112000 -0.046000 0.387000
v -0.112000 -0.046000 0.391000
v -0.112000 -0.046000 0.395000
v -0.108000 -0.046000 0.387000
v -0.108000 -0.046000 0.391000
v -0.108000 -0.046000 0.395000
v -0.104000 -0.046000 0.387000
v -0.104000 -0.046000 0.391000
v -0.104000 -0.046000 0.395000
v -0.100000 -0.046000 0.387000
v -0.100000 -0.046000 0.391000
v -0.100000 -0.046000 0.395000
v -0.096000 -0.046000 0.387000
v -0.096000 -0.046000 0.391000
v -0.096000 -0.046000 0.395000
v -0.092000 -0.046000 0.387000
v -0.092000 -0.046000 0.391000
v -0.092000 -0.046000 0.395000
v -0.088000 -0.046000 0.387000
v -0.088000 -0.046000 0.391000
v -0.088000 -0.046000 0.395000
v -0.084000 -0.046000 0.387000
v -0.084000 -0.046000 0.391000
v -0.084000 -0.046000 0.395000
v -0.080000 -0.046000 0.387000
v -0.080000 -0.046000 0.391000
v -0.080000 -0.046000 0.395000
v -0.076000 -0.046000 0.387000
v -0.076000 -0.046000 0.391000
v -0.076000 -0.046000 0.395000
v -0.072000 -0.046000 0.387000
v -0.072000 -0.046000 0.391000
v -0.072000 -0.046000 0.395000
v -0.068000 -0.046000 0.387000
v -0.068000 -0.046000 0.391000
v -0.068000 -0.046000 0.395000
v -0.064000 -0.046000 0.387000
v -0.064000 -0.046000 0.391000
v -0.064000 -0.046000 0.395000
v -0.060000 -0.046000 0.387000
v -0.060000 -0.046000 0.391000
v -0.060000 -0.046000 0.395000
v -0.056000 -0.046000 0.387000
v -0.056000 -0.046000 0.391000
v -0.056000 -0.046000 0.395000
v -0.052000 -0.046000 0.387000
v -0.052000 -0.046000 0.391000
v -0.052000 -0.046000 0.395000
v -0.048000 -0.046000 0.387000
v -0.048000 -0.046000 0.391000
v -0.048000 -0.046000 0.395000
v -0.044000 -0.046000 0.387000
v -0.044000 -0.046000 0.391000
v -0.044000 -0.046000 0.395000
v -0.040000 -0.046000 0.387000
v -0.040000 -0.046000 0.391000
v -0.040000 -0.046000 0.395000
v -0.036000 -0.046000 0.387000
v -0.036000 -0.046000 0.391000
v -0.036000 -0.046000 0.395000
v -0.032000 -0.046000 0.387000
v -0.032000 -0.046000 0.391000
v -0.032000 -0.046000 0.395000
v -0.028000 -0.046000 0.387000
v -0.028000 -0.046000 0.391000
v -0.028000 -0.046000 0.395000
v -0.024000 -0.046000 0.387000
v -0.024000 -0.046000 0.391000
v -0.024000 -0.046000 0.395000
v -0.020000 -0.046000 0.387000
v -0.020000 -0.046000 0.391000
v -0.020000 -0.046000 0.395000
v -0.016000 -0.046000 0.387000
v -0.016000 -0.046000 0.391000
v -0.016000 -0.046000 0.395000
v -0.012000 -0.046000 0.387000
v -0.012000 -0.046000 0.391000
v -0.012000 -0.046000 0.395000
v -0.008000 -0.046000 0.387000
v -0.008000 -0.046000 0.391000
v -0.008000 -0.046000 0.395000
v -0.004000 -0.046000 0.387000
v -0.004000 -0.046000 0.391000
v -0.004000 -0.046000 0.395000
v 0.000000 -0.046000 0.387000
v 0.000000 -0.046000 0.391000
v 0.000000 -0.046000 0.395000
v 0.004000 -0.046000 0.387000
v 0.004000 -0.046000 0.391000
v 0.004000 -0.046000 0.395000
v 0.008000 -0.046000 0.387000
v 0.008000 -0.046000 0.391000
v 0.008000 -0.046000 0.395000
v 0.012000 -0.046000 0.387000
v 0.012000 -0.046000 0.391000
v 0.012000 -0.046000 0.395000
v 0.016000 -0.046000 0.387000
v 0.016000 -0.046000 0.391000
v 0.016000 -0.046000 0.395000
v 0.020000 -0.046000 0.387000
v 0.020000 -0.046000 0.391000
v 0.020000 -0.046000 0.395000
v 0.024000 -0.046000 0.387000
v 0.024000 -0.046000 0.391000
v 0.024000 -0.046000 0.395000
v 0.028000 -0.046000 0.387000
v 0.028000 -0.046000 0.391000
v 0.028000 -0.046000 0.395000
v 0.032000 -0.046000 0.387000
v 0.032000 -0.046000 0.391000
v 0.032000 -0.046000 0.395000
v 0.036000 -0.046000 0.387000
v 0.036000 -0.046000 0.391000
v 0.036000 -0.046000 0.395000
v 0.040000 -0.046000 0.387000
v 0.040000 -0.046000 0.391000
v 0.040000 -0.046000 0.395000
v 0.044000 -0.046000 0.387000
v 0.044000 -0.046000 0.391000
v 0.044000 -0.046000 0.395000
v 0.048000 -0.046000 0.387000
v 0.048000 -0.046000 0.391000
v 0.048000 -0.046000 0.395000
v 0.052000 -0.046000 0.387000
v 0.052000 -0.046000 0.391000
v 0.052000 -0.046000 0.395000
v 0.056000 -0.046000 0.387000
v 0.056000 -0.046000 0.391000
v 0.056000 -0.046000 0.395000
v 0.060000 -0.046000 0.387000
v 0.060000 -0.046000 0.391000
v 0.060000 -0.046000 0.395000
v 0.064000 -0.046000 0.387000
v 0.064000 -0.046000 0.391000
v 0.064000 -0.046000 0.395000
v 0.068000 -0.046000 0.387000
v 0.068000 -0.046000 0.391000
v 0.068000 -0.046000 0.395000
v 0.072000 -0.046000 0.387000
v 0.072000 -0.046000 0.391000
v 0.072000 -0.046000 0.395000
v 0.076000 -0.046000 0.387000
v 0.076000 -0.046000 0.391000
v 0.076000 -0.046000 0.395000
v 0.080000 -0.046000 0.387000
v 0.080000 -0.046000 0.391000
v 0.080000 -0.046000 0.395000
v 0.084000 -0.046000 0.387000
v 0.084000 -0.046000 0.391000
v 0.084000 -0.046000 0.395000
v 0.088000 -0.046000 0.387000
v 0.088000 -0.046000 0.391000
v 0.088000 -0.046000 0.395000
v 0.092000 -0.046000 0.387000
v 0.092000 -0.046000 0.391000
v 0.092000 -0.046000 0.395000
v 0.096000 -0.046000 0.387000
v 0.096000 -0.046000 0.391000
v 0.096000 -0.046000 0.395000
v 0.100000 -0.046000 0.387000
v 0.100000 -0.046000 0.391000
v 0.100000 -0.046000 0.395000
v 0.104000 -0.046000 0.387000
v 0.104000 -0.046000 0.391000
v 0.104000 -0.046000 0.395000
v 0.108000 -0.046000 0.387000
v 0.108000 -0.046000 0.391000
v 0.108000 -0.046000 0.395000
v 0.112000 -0.046000 0.387000
v 0.112000 -0.046000 0.391000
v 0.112000 -0.046000 0.395000
v 0.116000 -0.046000 0.387000
v 0.116000 -0.046000 0.391000
v 0.116000 -0.046000 0.395000
v 0.120000 -0.046000 0.387000
v 0.120000 -0.046000 0.391000
v 0.120000 -0.046000 0.395000
v 0.124031 -0.045774 0.387000
v 0.124031 -0.045774 0.391000
v 0.124031 -0.045774 0.395000
v 0.128011 -0.045097 0.387000
v 0.128011 -0.045097 0.391000
v 0.128011 -0.045097 0.395000
v 0.131890 -0.043980 0.387000
v 0.131890 -0.043980 0.391000
v 0.131890 -0.043980 0.395000
v 0.135620 -0.042435 0.387000
v 0.135620 -0.042435 0.391000
v 0.135620 -0.042435 0.395000
v 0.139153 -0.040482 0.387000
v 0.139153 -0.040482 0.391000
v 0.139153 -0.040482 0.395000
v 0.142446 -0.038146 0.387000
v 0.142446 -0.038146 0.391000
v 0.142446 -0.038146 0.395000
v 0.145456 -0.035456 0.387000
v 0.145456 -0.035456 0.391000
v 0.145456 -0.035456 0.395000
v 0.148146 -0.032446 0.387000
v 0.148146 -0.032446 0.391000
v 0.148146 -0.032446 0.395000
v 0.150482 -0.029153 0.387000
v 0.150482 -0.029153 0.391000
v 0.150482 -0.029153 0.395000
v 0.152435 -0.025620 0.387000
v 0.152435 -0.025620 0.391000
v 0.152435 -0.025620 0.395000
v 0.154866 -0.021157 0.387169
v 0.153980 -0.021890 0.391000
v 0.153094 -0.022623 0.394831
v 0.159413 -0.021183 0.389472
v 0.157487 -0.021441 0.392968
v 0.155561 -0.021699 0.396464
v 0.162908 -0.020670 0.391432
v 0.160991 -0.020950 0.394931
v 0.159074 -0.021231 0.398430
v 0.166399 -0.020110 0.393385
v 0.164492 -0.020415 0.396888
v 0.162585 -0.020720 0.400391
v 0.169897 -0.019488 0.395340
v 0.167989 -0.019831 0.398839
v 0.166081 -0.020173 0.402338
v 0.173371 -0.018775 0.397318
v 0.171459 -0.019164 0.400810
v 0.169547 -0.019554 0.404302
v 0.176811 -0.017993 0.399291
v 0.174911 -0.018422 0.402785
v 0.173012 -0.018851 0.406279
v 0.180232 -0.017139 0.401249
v 0.178354 -0.017607 0.404750
v 0.176476 -0.018075 0.408250
v 0.183650 -0.016185 0.403202
v 0.181784 -0.016710 0.406701
v 0.179918 -0.017236 0.410200
v 0.187017 -0.015092 0.405176
v 0.185167 -0.015689 0.408671
v 0.183316 -0.016286 0.412167
v 0.190322 -0.013874 0.407129
v 0.188513 -0.014539 0.410634
v 0.186704 -0.015204 0.414139
v 0.193574 -0.012503 0.409052
v 0.191822 -0.013244 0.412570
v 0.190070 -0.013986 0.416089
v 0.196738 -0.010923 0.410947
v 0.195066 -0.011764 0.414482
v 0.193393 -0.012606 0.418017
v 0.199741 -0.009080 0.412788
v 0.198206 -0.010034 0.416356
v 0.196670 -0.010988 0.419924
v 0.202474 -0.006896 0.414499
v 0.201188 -0.007960 0.418134
v 0.199901 -0.009024 0.421769
v 0.204665 -0.004288 0.415955
v 0.203848 -0.005367 0.419719
v 0.203032 -0.006446 0.423483
v 0.205851 -0.001425 0.416869
v 0.205709 -0.001985 0.420827
v 0.205567 -0.002546 0.424785
v 0.205851 0.001425 0.416869
v 0.205709 0.001985 0.420827
v 0.205567 0.002546 0.424785
v 0.204665 0.004288 0.415955
v 0.203848 0.005367 0.419719
v 0.203032 0.006446 0.423483
v 0.202474 0.006896 0.414499
v 0.201188 0.007960 0.418134
v 0.199901 0.009024 0.421769
v 0.199741 0.009080 0.412788
v 0.198206 0.010034 0.416356
v 0.196670 0.010988 0.419924
v 0.196738 0.010923 0.410947
v 0.195066 0.011764 0.414482
v 0.193393 0.012606 0.418017
v 0.193574 0.012503 0.409052
v 0.191822 0.013244 0.412570
v 0.190070 0.013986 0.416089
v 0.190322 0.013874 0.407129
v 0.188513 0.014539 0.410634
v 0.186704 0.015204 0.414139
v 0.187017 0.015092 0.405176
v 0.185167 0.015689 0.408671
v 0.183316 0.016286 0.412167
v 0.183650 0.016185 0.403202
v 0.181784 0.016710 0.406701
v 0.179918 0.017236 0.410200
v 0.180232 0.017139 0.401249
v 0.178354 0.017607 0.404750
v 0.176476 0.018075 0.408250
v 0.176811 0.017993 0.399291
v 0.174911 0.018422 0.402785
v 0.173012 0.018851 0.406279
v 0.173371 0.018775 0.397318
v 0.171459 0.019164 0.400810
v 0.169547 0.019554 0.404302
v 0.169897 0.019488 0.395340
v 0.167989 0.019831 0.398839
v 0.166081 0.020173 0.402338
v 0.166399 0.020110 0.393385
v 0.164492 0.020415 0.396888
v 0.162585 0.020720 0.400391
v 0.162908 0.020670 0.391432
v 0.160991 0.020950 0.394931
v 0.159074 0.021231 0.398430
v 0.159413 0.021183 0.389472
v 0.157487 0.021441 0.392968
v 0.155561 0.021699 0.396464
v 0.154866 0.021157 0.387169
v 0.153980 0.021890 0.391000
v 0.153094 0.022623 0.394831
v 0.152435 0.025620 0.387000
v 0.152435 0.025620 0.391000
v 0.152435 0.025620 0.395000
v 0.150482 0.029153 0.387000
v 0.150482 0.029153 0.391000
v 0.150482 0.029153 0.395000
v 0.148146 0.032446 0.387000
v 0.148146 0.032446 0.391000
v 0.148146 0.032446 0.395000
v 0.145456 0.035456 0.387000
v 0.145456 0.035456 0.391000
v 0.145456 0.035456 0.395000
v 0.142446 0.038146 0.387000
v 0.142446 0.038146 0.391000
v 0.142446 0.038146 0.395000
v 0.139153 0.040482 0.387000
v 0.139153 0.040482 0.391000
v 0.139153 0.040482 0.395000
v 0.135620 0.042435 0.387000
v 0.135620 0.042435 0.391000
v 0.135620 0.042435 0.395000
v 0.131890 0.043980 0.387000
v 0.131890 0.043980 0.391000
v 0.131890 0.043980 0.395000
v 0.128011 0.045097 0.387000
v 0.128011 0.045097 0.391000
v 0.128011 0.045097 0.395000
v 0.124031 0.045774 0.387000
v 0.124031 0.045774 0.391000
v 0.124031 0.045774 0.395000
v 0.120000 0.046000 0.387000
v 0.120000 0.046000 0.391000
v 0.120000 0.046000 0.395000
v 0.116000 0.046000 0.387000
v 0.116000 0.046000 0.391000
v 0.116000 0.046000 0.395000
v 0.112000 0.046000 0.387000
v 0.112000 0.046000 0.391000
v 0.112000 0.046000 0.395000
v 0.108000 0.046000 0.387000
v 0.108000 0.046000 0.391000
v 0.108000 0.046000 0.395000
v 0.104000 0.046000 0.387000
v 0.104000 0.046000 0.391000
v 0.104000 0.046000 0.395000
v 0.100000 0.046000 0.387000
v 0.100000 0.046000 0.391000
v 0.100000 0.046000 0.395000
v 0.096000 0.046000 0.387000
v 0.096000 0.046000 0.391000
v 0.096000 0.046000 0.395000
v 0.092000 0.046000 0.387000
v 0.092000 0.046000 0.391000
v 0.092000 0.046000 0.395000
v 0.088000 0.046000 0.387000
v 0.088000 0.046000 0.391000
v 0.088000 0.046000 0.395000
v 0.084000 0.046000 0.387000
v 0.084000 0.046000 0.391000
v 0.084000 0.046000 0.395000
v 0.080000 0.046000 0.387000
v 0.080000 0.046000 0.391000
v 0.080000 0.046000 0.395000
v 0.076000 0.046000 0.387000
v 0.076000 0.046000 0.391000
v 0.076000 0.046000 0.395000
v 0.072000 0.046000 0.387000
v 0.072000 0.046000 0.391000
v 0.072000 0.046000 0.395000
v 0.068000 0.046000 0.387000
v 0.068000 0.046000 0.391000
v 0.068000 0.046000 0.395000
v 0.064000 0.046000 0.387000
v 0.064000 0.046000 0.391000
v 0.064000 0.046000 0.395000
v 0.060000 0.046000 0.387000
v 0.060000 0.046000 0.391000
v 0.060000 0.046000 0.395000
v 0.056000 0.046000 0.387000
v 0.056000 0.046000 0.391000
v 0.056000 0.046000 0.395000
v 0.052000 0.046000 0.387000
v 0.052000 0.046000 0.391000
v 0.052000 0.046000 0.395000
v 0.048000 0.046000 0.387000
v 0.048000 0.046000 0.391000
v 0.048000 0.046000 0.395000
v 0.044000 0.046000 0.387000
v 0.044000 0.046000 0.391000
v 0.044000 0.046000 0.395000
v 0.040000 0.046000 0.387000
v 0.040000 0.046000 0.391000
v 0.040000 0.046000 0.395000
v 0.036000 0.046000 0.387000
v 0.036000 0.046000 0.391000
v 0.036000 0.046000 0.395000
v 0.032000 0.046000 0.387000
v 0.032000 0.046000 0.391000
v 0.032000 0.046000 0.395000
v 0.028000 0.046000 0.387000
v 0.028000 0.046000 0.391000
v 0.028000 0.046000 0.395000
v 0.024000 0.046000 0.387000
v 0.024000 0.046000 0.391000
v 0.024000 0.046000 0.395000
v 0.020000 0.046000 0.387000
v 0.020000 0.046000 0.391000
v 0.020000 0.046000 0.395000
v 0.016000 0.046000 0.387000
v 0.016000 0.046000 0.391000
v 0.016000 0.046000 0.395000
v 0.012000 0.046000 0.387000
v 0.012000 0.046000 0.391000
v 0.012000 0.046000 0.395000
v 0.008000 0.046000 0.387000
v 0.008000 0.046000 0.391000
v 0.008000 0.046000 0.395000
v 0.004000 0.046000 0.387000
v 0.004000 0.046000 0.391000
v 0.004000 0.046000 0.395000
v 0.000000 0.046000 0.387000
v 0.000000 0.046000 0.391000
v 0.000000 0.046000 0.395000
v -0.004000 0.046000 0.387000
v -0.004000 0.046000 0.391000
v -0.004000 0.046000 0.395000
v -0.008000 0.046000 0.387000
v -0.008000 0.046000 0.391000
v -0.008000 0.046000 0.395000
v -0.012000 0.046000 0.387000
v -0.012000 0.046000 0.391000
v -0.012000 0.046000 0.395000
v -0.016000 0.046000 0.387000
v -0.016000 0.046000 0.391000
v -0.016000 0.046000 0.395000
v -0.020000 0.046000 0.387000
v -0.020000 0.046000 0.391000
v -0.020000 0.046000 0.395000
v -0.024000 0.046000 0.387000
v -0.024000 0.046000 0.391000
v -0.024000 0.046000 0.395000
v -0.028000 0.046000 0.387000
v -0.028000 0.046000 0.391000
v -0.028000 0.046000 0.395000
v -0.032000 0.046000 0.387000
v -0.032000 0.046000 0.391000
v -0.032000 0.046000 0.395000
v -0.036000 0.046000 0.387000
v -0.036000 0.046000 0.391000
v -0.036000 0.046000 0.395000
v -0.040000 0.046000 0.387000
v -0.040000 0.046000 0.391000
v -0.040000 0.046000 0.395000
v -0.044000 0.046000 0.387000
v -0.044000 0.046000 0.391000
v -0.044000 0.046000 0.395000
v -0.048000 0.046000 0.387000
v -0.048000 0.046000 0.391000
v -0.048000 0.046000 0.395000
v -0.052000 0.046000 0.387000
v -0.052000 0.046000 0.391000
v -0.052000 0.046000 0.395000
v -0.056000 0.046000 0.387000
v -0.056000 0.046000 0.391000
v -0.056000 0.046000 0.395000
v -0.060000 0.046000 0.387000
v -0.060000 0.046000 0.391000
v -0.060000 0.046000 0.395000
v -0.064000 0.046000 0.387000
v -0.064000 0.046000 0.391000
v -0.064000 0.046000 0.395000
v -0.068000 0.046000 0.387000
v -0.068000 0.046000 0.391000
v -0.068000 0.046000 0.395000
v -0.072000 0.046000 0.387000
v -0.072000 0.046000 0.391000
v -0.072000 0.046000 0.395000
v -0.076000 0.046000 0.387000
v -0.076000 0.046000 0.391000
v -0.076000 0.046000 0.395000
v -0.080000 0.046000 0.387000
v -0.080000 0.046000 0.391000
v -0.080000 0.046000 0.395000
v -0.084000 0.046000 0.387000
v -0.084000 0.046000 0.391000
v -0.084000 0.046000 0.395000
v -0.088000 0.046000 0.387000
v -0.088000 0.046000 0.391000
v -0.088000 0.046000 0.395000
v -0.092000 0.046000 0.387000
v -0.092000 0.046000 0.391000
v -0.092000 0.046000 0.395000
v -0.096000 0.046000 0.387000
v -0.096000 0.046000 0.391000
v -0.096000 0.046000 0.395000
v -0.100000 0.046000 0.387000
v -0.100000 0.046000 0.391000
v -0.100000 0.046000 0.395000
v -0.104000 0.046000 0.387000
v -0.104000 0.046000 0.391000
v -0.104000 0.046000 0.395000
v -0.108000 0.046000 0.387000
v -0.108000 0.046000 0.391000
v -0.108000 0.046000 0.395000
v -0.112000 0.046000 0.387000
v -0.112000 0.046000 0.391000
v -0.112000 0.046000 0.395000
v -0.116000 0.046000 0.387000
v -0.116000 0.046000 0.391000
v -0.116000 0.046000 0.395000
v -0.120000 0.046000 0.387000
v -0.120000 0.046000 0.391000
v -0.120000 0.046000 0.395000
v -0.124031 0.045774 0.387000
v -0.124031 0.045774 0.391000
v -0.124031 0.045774 0.395000
v -0.128011 0.045097 0.387000
v -0.128011 0.045097 0.391000
v -0.128011 0.045097 0.395000
v -0.131890 0.043980 0.387000
v -0.131890 0.043980 0.391000
v -0.131890 0.043980 0.395000
v -0.135620 0.042435 0.387000
v -0.135620 0.042435 0.391000
v -0.135620 0.042435 0.395000
v -0.139153 0.040482 0.387000
v -0.139153 0.040482 0.391000
v -0.139153 0.040482 0.395000
v -0.142446 0.038146 0.387000
v -0.142446 0.038146 0.391000
v -0.142446 0.038146 0.395000
v -0.145456 0.035456 0.387000
v -0.145456 0.035456 0.391000
v -0.145456 0.035456 0.395000
v -0.148146 0.032446 0.387000
v -0.148146 0.032446 0.391000
v -0.148146 0.032446 0.395000
v -0.150482 0.029153 0.387000
v -0.150482 0.029153 0.391000
v -0.150482 0.029153 0.395000
v -0.152435 0.025620 0.387000
v -0.152435 0.025620 0.391000
v -0.152435 0.025620 0.395000
v -0.154866 0.021157 0.387169
v -0.153980 0.021890 0.391000
v -0.153094 0.022623 0.394831
v -0.159413 0.021183 0.389472
v -0.157487 0.021441 0.392968
v -0.155561 0.021699 0.396464
v -0.162908 0.020670 0.391432
v -0.160991 0.020950 0.394931
v -0.159074 0.021231 0.398430
v -0.166399 0.020110 0.393385
v -0.164492 0.020415 0.396888
v -0.162585 0.020720 0.400391
v -0.169897 0.019488 0.395340
v -0.167989 0.019831 0.398839
v -0.166081 0.020173 0.402338
v -0.173371 0.018775 0.397318
v -0.171459 0.019164 0.400810
v -0.169547 0.019554 0.404302
v -0.176811 0.017993 0.399291
v -0.174911 0.018422 0.402785
v -0.173012 0.018851 0.406279
v -0.180232 0.017139 0.401249
v -0.178354 0.017607 0.404750
v -0.176476 0.018075 0.408250
v -0.183650 0.016185 0.403202
v -0.181784 0.016710 0.406701
v -0.179918 0.017236 0.410200
v -0.187017 0.015092 0.405176
v -0.185167 0.015689 0.408671
v -0.183316 0.016286 0.412167
v -0.190322 0.013874 0.407129
v -0.188513 0.014539 0.410634
v -0.186704 0.015204 0.414139
v -0.193574 0.012503 0.409052
v -0.191822 0.013244 0.412570
v -0.190070 0.013986 0.416089
v -0.196738 0.010923 0.410947
v -0.195066 0.011764 0.414482
v -0.193393 0.012606 0.418017
v -0.199741 0.009080 0.412788
v -0.198206 0.010034 0.416356
v -0.196670 0.010988 0.419924
v -0.202474 0.006896 0.414499
v -0.201188 0.007960 0.418134
v -0.199901 0.009024 0.421769
v -0.204665 0.004288 0.415955
v -0.203848 0.005367 0.419719
v -0.203032 0.006446 0.423483
v -0.205851 0.001425 0.416869
v -0.205709 0.001985 0.420827
v -0.205567 0.002546 0.424785
v -0.205851 -0.001425 0.416869
v -0.205709 -0.001985 0.420827
v -0.205567 -0.002546 0.424785
v -0.204665 -0.004288 0.415955
v -0.203848 -0.005367 0.419719
v -0.203032 -0.006446 0.423483
v -0.202474 -0.006896 0.414499
v -0.201188 -0.007960 0.418134
v -0.199901 -0.009024 0.421769
v -0.199741 -0.009080 0.412788
v -0.198206 -0.010034 0.416356
v -0.196670 -0.010988 0.419924
v -0.196738 -0.010923 0.410947
v -0.195066 -0.011764 0.414482
v -0.193393 -0.012606 0.418017
v -0.193574 -0.012503 0.409052
v -0.191822 -0.013244 0.412570
v -0.190070 -0.013986 0.416089
v -0.190322 -0.013874 0.407129
v -0.188513 -0.014539 0.410634
v -0.186704 -0.015204 0.414139
v -0.187017 -0.015092 0.405176
v -0.185167 -0.015689 0.408671
v -0.183316 -0.016286 0.412167
v -0.183650 -0.016185 0.403202
v -0.181784 -0.016710 0.406701
v -0.179918 -0.017236 0.410200
v -0.180232 -0.017139 0.401249
v -0.178354 -0.017607 0.404750
v -0.176476 -0.018075 0.408250
v -0.176811 -0.017993 0.399291
v -0.174911 -0.018422 0.402785
v -0.173012 -0.018851 0.406279
v -0.173371 -0.018775 0.397318
v -0.171459 -0.019164 0.400810
v -0.169547 -0.019554 0.404302
v -0.169897 -0.019488 0.395340
v -0.167989 -0.019831 0.398839
v -0.166081 -0.020173 0.402338
v -0.166399 -0.020110 0.393385
v -0.164492 -0.020415 0.396888
v -0.162585 -0.020720 0.400391
v -0.162908 -0.020670 0.391432
v -0.160991 -0.020950 0.394931
v -0.159074 -0.021231 0.398430
v -0.159413 -0.021183 0.389472
v -0.157487 -0.021441 0.392968
v -0.155561 -0.021699 0.396464
v -0.154866 -0.021157 0.387169
v -0.153980 -0.021890 0.391000
v -0.153094 -0.022623 0.394831
v -0.152435 -0.025620 0.387000
v -0.152435 -0.025620 0.391000
v -0.152435 -0.025620 0.395000
v -0.150482 -0.029153 0.387000
v -0.150482 -0.029153 0.391000
v -0.150482 -0.029153 0.395000
v -0.148146 -0.032446 0.387000
v -0.148146 -0.032446 0.391000
v -0.148146 -0.032446 0.395000
v -0.145456 -0.035456 0.387000
v -0.145456 -0.035456 0.391000
v -0.145456 -0.035456 0.395000
v -0.142446 -0.038146 0.387000
v -0.142446 -0.038146 0.391000
v -0.142446 -0.038146 0.395000
v -0.139153 -0.040482 0.387000
v -0.139153 -0.040482 0.391000
v -0.139153 -0.040482 0.395000
v -0.135620 -0.042435 0.387000
v -0.135620 -0.042435 0.391000
v -0.135620 -0.042435 0.395000
v -0.131890 -0.043980 0.387000
v -0.131890 -0.043980 0.391000
v -0.131890 -0.043980 0.395000
v -0.128011 -0.045097 0.387000
v -0.128011 -0.045097 0.391000
v -0.128011 -0.045097 0.395000
v -0.124031 -0.045774 0.387000
v -0.124031 -0.045774 0.391000
v -0.124031 -0.045774 0.395000
f 1 2 5
f 1 5 4
f 2 3 6
f 2 6 5
f 4 5 8
f 4 8 7
f 5 6 9
f 5 9 8
f 7 8 11
f 7 11 10
f 8 9 12
f 8 12 11
f 10 11 14
f 10 14 13
f 11 12 15
f 11 15 14
f 13 14 17
f 13 17 16
f 14 15 18
f 14 18 17
f 16 17 20
f 16 20 19
f 17 18 21
f 17 21 20
f 19 20 23
f 19 23 22
f 20 21 24
f 20 24 23
f 22 23 26
f 22 26 25
f 23 24 27
f 23 27 26
f 25 26 29
f 25 29 28
f 26 27 30
f 26 30 29
f 28 29 32
f 28 32 31
f 29 30 33
f 29 33 32
f 31 32 35
f 31 35 34
f 32 33 36
f 32 36 35
f 34 35 38
f 34 38 37
f 35 36 39
f 35 39 38
f 37 38 41
f 37 41 40
f 38 39 42
f 38 42 41
f 40 41 44
f 40 44 43
f 41 42 45
f 41 45 44
f 43 44 47
f 43 47 46
f 44 45 48
f 44 48 47
f 46 47 50
f 46 50 49
f 47 48 51
f 47 51 50
f 49 50 53
f 49 53 52
f 50 51 54
f 50 54 53
f 52 53 56
f 52 56 55
f 53 54 57
f 53 57 56
f 55 56 59
f 55 59 58
f 56 57 60
f 56 60 59
f 58 59 62
f 58 62 61
f 59 60 63
f 59 63 62
f 61 62 65
f 61 65 64
f 62 63 66
f 62 66 65
f 64 65 68
f 64 68 67
f 65 66 69
f 65 69 68
f 67 68 71
f 67 71 70
f 68 69 72
f 68 72 71
f 70 71 74
f 70 74 73
f 71 72 75
f 71 75 74
f 73 74 77
f 73 77 76
f 74 75 78
f 74 78 77
f 76 77 80
f 76 80 79
f 77 78 81
f 77 81 80
f 79 80 83
f 79 83 82
f 80 81 84
f 80 84 83
f 82 83 86
f 82 86 85
f 83 84 87
f 83 87 86
f 85 86 89
f 85 89 88
f 86 87 90
f 86 90 89
f 88 89 92
f 88 92 91
f 89 90 93
f 89 93 92
f 91 92 95
f 91 95 94
f 92 93 96
f 92 96 95
f 94 95 98
f 94 98 97
f 95 96 99
f 95 99 98
f 97 98 101
f 97 101 100
f 98 99 102
f 98 102 101
f 100 101 104
f 100 104 103
f 101 102 105
f 101 105 104
f 103 104 107
f 103 107 106
f 104 105 108
f 104 108 107
f 106 107 110
f 106 110 109
f 107 108 111
f 107 111 110
f 109 110 113
f 109 113 112
f 110 111 114
f 110 114 113
f 112 113 116
f 112 116 115
f 113 114 117
f 113 117 116
f 115 116 119
f 115 119 118
f 116 117 120
f 116 120 119
f 118 119 122
f 118 122 121
f 119 120 123
f 119 123 122
f 121 122 125
f 121 125 124
f 122 123 126
f 122 126 125
f 124 125 128
f 124 128 127
f 125 126 129
f 125 129 128
f 127 128 131
f 127 131 130
f 128 129 132
f 128 132 131
f 130 131 134
f 130 134 133
f 131 132 135
f 131 135 134
f 133 134 137
f 133 137 136
f 134 135 138
f 134 138 137
f 136 137 140
f 136 140 139
f 137 138 141
f 137 141 140
f 139 140 143
f 139 143 142
f 140 141 144
f 140 144 143
f 142 143 146
f 142 146 145
f 143 144 147
f 143 147 146
f 145 146 149
f 145 149 148
f 146 147 150
f 146 150 149
f 148 149 152
f 148 152 151
f 149 150 153
f 149 153 152
f 151 152 155
f 151 155 154
f 152 153 156
f 152 156 155
f 154 155 158
f 154 158 157
f 155 156 159
f 155 159 158
f 157 158 161
f 157 161 160
f 158 159 162
f 158 162 161
f 160 161 164
f 160 164 163
f 161 162 165
f 161 165 164
f 163 164 167
f 163 167 166
f 164 165 168
f 164 168 167
f 166 167 170
f 166 170 169
f 167 168 171
f 167 171 170
f 169 170 173
f 169 173 172
f 170 171 174
f 170 174 173
f 172 173 176
f 172 176 175
f 173 174 177
f 173 177 176
f 175 176 179
f 175 179 178
f 176 177 180
f 176 180 179
f 178 179 182
f 178 182 181
f 179 180 183
f 179 183 182
f 181 182 185
f 181 185 184
f 182 183 186
f 182 186 185
f 184 185 188
f 184 188 187
f 185 186 189
f 185 189 188
f 187 188 191
f 187 191 190
f 188 189 192
f 188 192 191
f 190 191 194
f 190 194 193
f 191 192 195
f 191 195 194
f 193 194 197
f 193 197 196
f 194 195 198
f 194 198 197
f 196 197 200
f 196 200 199
f 197 198 201
f 197 201 200
f 199 200 203
f 199 203 202
f 200 201 204
f 200 204 203
f 202 203 206
f 202 206 205
f 203 204 207
f 203 207 206
f 205 206 209
f 205 209 208
f 206 207 210
f 206 210 209
f 208 209 212
f 208 212 211
f 209 210 213
f 209 213 212
f 211 212 215
f 211 215 214
f 212 213 216
f 212 216 215
f 214 215 218
f 214 218 217
f 215 216 219
f 215 219 218
f 217 218 221
f 217 221 220
f 218 219 222
f 218 222 221
f 220 221 224
f 220 224 223
f 221 222 225
f 221 225 224
f 223 224 227
f 223 227 226
f 224 225 228
f 224 228 227
f 226 227 230
f 226 230 229
f 227 228 231
f 227 231 230
f 229 230 233
f 229 233 232
f 230 231 234
f 230 234 233
f 232 233 236
f 232 236 235
f 233 234 237
f 233 237 236
f 235 236 239
f 235 239 238
f 236 237 240
f 236 240 239
f 238 239 242
f 238 242 241
f 239 240 243
f 239 243 242
f 241 242 245
f 241 245 244
f 242 243 246
f 242 246 245
f 244 245 248
f 244 248 247
f 245 246 249
f 245 249 248
f 247 248 251
f 247 251 250
f 248 249 252
f 248 252 251
f 250 251 254
f 250 254 253
f 251 252 255
f 251 255 254
f 253 254 257
f 253 257 256
f 254 255 258
f 254 258 257
f 256 257 260
f 256 260 259
f 257 258 261
f 257 261 260
f 259 260 263
f 259 263 262
f 260 261 264
f 260 264 263
f 262 263 266
f 262 266 265
f 263 264 267
f 263 267 266
f 265 266 269
f 265 269 268
f 266 267 270
f 266 270 269
f 268 269 272
f 268 272 271
f 269 270 273
f 269 273 272
f 271 272 275
f 271 275 274
f 272 273 276
f 272 276 275
f 274 275 278
f 274 278 277
f 275 276 279
f 275 279 278
f 277 278 281
f 277 281 280
f 278 279 282
f 278 282 281
f 280 281 284
f 280 284 283
f 281 282 285
f 281 285 284
f 283 284 287
f 283 287 286
f 284 285 288
f 284 288 287
f 286 287 290
f 286 290 289
f 287 288 291
f 287 291 290
f 289 290 293
f 289 293 292
f 290 291 294
f 290 294 293
f 292 293 296
f 292 296 295
f 293 294 297
f 293 297 296
f 295 296 299
f 295 299 298
f 296 297 300
f 296 300 299
f 298 299 302
f 298 302 301
f 299 300 303
f 299 303 302
f 301 302 305
f 301 305 304
f 302 303 306
f 302 306 305
f 304 305 308
f 304 308 307
f 305 306 309
f 305 309 308
f 307 308 311
f 307 311 310
f 308 309 312
f 308 312 311
f 310 311 314
f 310 314 313
f 311 312 315
f 311 315 314
f 313 314 317
f 313 317 316
f 314 315 318
f 314 318 317
f 316 317 320
f 316 320 319
f 317 318 321
f 317 321 320
f 319 320 323
f 319 323 322
f 320 321 324
f 320 324 323
f 322 323 326
f 322 326 325
f 323 324 327
f 323 327 326
f 325 326 329
f 325 329 328
f 326 327 330
f 326 330 329
f 328 329 332
f 328 332 331
f 329 330 333
f 329 333 332
f 331 332 335
f 331 335 334
f 332 333 336
f 332 336 335
f 334 335 338
f 334 338 337
f 335 336 339
f 335 339 338
f 337 338 341
f 337 341 340
f 338 339 342
f 338 342 341
f 340 341 344
f 340 344 343
f 341 342 345
f 341 345 344
f 343 344 347
f 343 347 346
f 344 345 348
f 344 348 347
f 346 347 350
f 346 350 349
f 347 348 351
f 347 351 350
f 349 350 353
f 349 353 352
f 350 351 354
f 350 354 353
f 352 353 356
f 352 356 355
f 353 354 357
f 353 357 356
f 355 356 359
f 355 359 358
f 356 357 360
f 356 360 359
f 358 359 362
f 358 362 361
f 359 360 363
f 359 363 362
f 361 362 365
f 361 365 364
f 362 363 366
f 362 366 365
f 364 365 368
f 364 368 367
f 365 366 369
f 365 369 368
f 367 368 371
f 367 371 370
f 368 369 372
f 368 372 371
f 370 371 374
f 370 374 373
f 371 372 375
f 371 375 374
f 373 374 377
f 373 377 376
f 374 375 378
f 374 378 377
f 376 377 380
f 376 380 379
f 377 378 381
f 377 381 380
f 379 380 383
f 379 383 382
f 380 381 384
f 380 384 383
f 382 383 386
f 382 386 385
f 383 384 387
f 383 387 386
f 385 386 389
f 385 389 388
f 386 387 390
f 386 390 389
f 388 389 392
f 388 392 391
f 389 390 393
f 389 393 392
f 391 392 395
f 391 395 394
f 392 393 396
f 392 396 395
f 394 395 398
f 394 398 397
f 395 396 399
f 395 399 398
f 397 398 401
f 397 401 400
f 398 399 402
f 398 402 401
f 400 401 404
f 400 404 403
f 401 402 405
f 401 405 404
f 403 404 407
f 403 407 406
f 404 405 408
f 404 408 407
f 406 407 410
f 406 410 409
f 407 408 411
f 407 411 410
f 409 410 413
f 409 413 412
f 410 411 414
f 410 414 413
f 412 413 416
f 412 416 415
f 413 414 417
f 413 417 416
f 415 416 419
f 415 419 418
f 416 417 420
f 416 420 419
f 418 419 422
f 418 422 421
f 419 420 423
f 419 423 422
f 421 422 425
f 421 425 424
f 422 423 426
f 422 426 425
f 424 425 428
f 424 428 427
f 425 426 429
f 425 429 428
f 427 428 431
f 427 431 430
f 428 429 432
f 428 432 431
f 430 431 434
f 430 434 433
f 431 432 435
f 431 435 434
f 433 434 437
f 433 437 436
f 434 435 438
f 434 438 437
f 436 437 440
f 436 440 439
f 437 438 441
f 437 441 440
f 439 440 443
f 439 443 442
f 440 441 444
f 440 444 443
f 442 443 446
f 442 446 445
f 443 444 447
f 443 447 446
f 445 446 449
f 445 449 448
f 446 447 450
f 446 450 449
f 448 449 452
f 448 452 451
f 449 450 453
f 449 453 452
f 451 452 455
f 451 455 454
f 452 453 456
f 452 456 455
f 454 455 458
f 454 458 457
f 455 456 459
f 455 459 458
f 457 458 461
f 457 461 460
f 458 459 462
f 458 462 461
f 460 461 464
f 460 464 463
f 461 462 465
f 461 465 464
f 463 464 467
f 463 467 466
f 464 465 468
f 464 468 467
f 466 467 470
f 466 470 469
f 467 468 471
f 467 471 470
f 469 470 473
f 469 473 472
f 470 471 474
f 470 474 473
f 472 473 476
f 472 476 475
f 473 474 477
f 473 477 476
f 475 476 479
f 475 479 478
f 476 477 480
f 476 480 479
f 478 479 482
f 478 482 481
f 479 480 483
f 479 483 482
f 481 482 485
f 481 485 484
f 482 483 486
f 482 486 485
f 484 485 488
f 484 488 487
f 485 486 489
f 485 489 488
f 487 488 491
f 487 491 490
f 488 489 492
f 488 492 491
f 490 491 494
f 490 494 493
f 491 492 495
f 491 495 494
f 493 494 497
f 493 497 496
f 494 495 498
f 494 498 497
f 496 497 500
f 496 500 499
f 497 498 501
f 497 501 500
f 499 500 503
f 499 503 502
f 500 501 504
f 500 504 503
f 502 503 506
f 502 506 505
f 503 504 507
f 503 507 506
f 505 506 509
f 505 509 508
f 506 507 510
f 506 510 509
f 508 509 512
f 508 512 511
f 509 510 513
f 509 513 512
f 511 512 515
f 511 515 514
f 512 513 516
f 512 516 515
f 514 515 518
f 514 518 517
f 515 516 519
f 515 519 518
f 517 518 521
f 517 521 520
f 518 519 522
f 518 522 521
f 520 521 524
f 520 524 523
f 521 522 525
f 521 525 524
f 523 524 527
f 523 527 526
f 524 525 528
f 524 528 527
f 526 527 530
f 526 530 529
f 527 528 531
f 527 531 530
f 529 530 533
f 529 533 532
f 530 531 534
f 530 534 533
f 532 533 536
f 532 536 535
f 533 534 537
f 533 537 536
f 535 536 539
f 535 539 538
f 536 537 540
f 536 540 539
f 538 539 542
f 538 542 541
f 539 540 543
f 539 543 542
f 541 542 545
f 541 545 544
f 542 543 546
f 542 546 545
f 544 545 548
f 544 548 547
f 545 546 549
f 545 549 548
f 547 548 551
f 547 551 550
f 548 549 552
f 548 552 551
f 550 551 554
f 550 554 553
f 551 552 555
f 551 555 554
f 553 554 557
f 553 557 556
f 554 555 558
f 554 558 557
f 556 557 560
f 556 560 559
f 557 558 561
f 557 561 560
f 559 560 563
f 559 563 562
f 560 561 564
f 560 564 563
f 562 563 566
f 562 566 565
f 563 564 567
f 563 567 566
f 565 566 569
f 565 569 568
f 566 567 570
f 566 570 569
f 568 569 572
f 568 572 571
f 569 570 573
f 569 573 572
f 571 572 575
f 571 575 574
f 572 573 576
f 572 576 575
f 574 575 578
f 574 578 577
f 575 576 579
f 575 579 578
f 577 578 581
f 577 581 580
f 578 579 582
f 578 582 581
f 580 581 584
f 580 584 583
f 581 582 585
f 581 585 584
f 583 584 587
f 583 587 586
f 584 585 588
f 584 588 587
f 586 587 590
f 586 590 589
f 587 588 591
f 587 591 590
f 589 590 593
f 589 593 592
f 590 591 594
f 590 594 593
f 592 593 596
f 592 596 595
f 593 594 597
f 593 597 596
f 595 596 599
f 595 599 598
f 596 597 600
f 596 600 599
f 598 599 602
f 598 602 601
f 599 600 603
f 599 603 602
f 601 602 605
f 601 605 604
f 602 603 606
f 602 606 605
f 604 605 608
f 604 608 607
f 605 606 609
f 605 609 608
f 607 608 611
f 607 611 610
f 608 609 612
f 608 612 611
f 610 611 614
f 610 614 613
f 611 612 615
f 611 615 614
f 613 614 617
f 613 617 616
f 614 615 618
f 614 618 617
f 616 617 620
f 616 620 619
f 617 618 621
f 617 621 620
f 619 620 623
f 619 623 622
f 620 621 624
f 620 624 623
f 622 623 626
f 622 626 625
f 623 624 627
f 623 627 626
f 625 626 629
f 625 629 628
f 626 627 630
f 626 630 629
f 628 629 632
f 628 632 631
f 629 630 633
f 629 633 632
f 631 632 635
f 631 635 634
f 632 633 636
f 632 636 635
f 634 635 638
f 634 638 637
f 635 636 639
f 635 639 638
f 637 638 641
f 637 641 640
f 638 639 642
f 638 642 641
f 640 641 644
f 640 644 643
f 641 642 645
f 641 645 644
f 643 644 647
f 643 647 646
f 644 645 648
f 644 648 647
f 646 647 650
f 646 650 649
f 647 648 651
f 647 651 650
f 649 650 653
f 649 653 652
f 650 651 654
f 650 654 653
f 652 653 656
f 652 656 655
f 653 654 657
f 653 657 656
f 655 656 659
f 655 659 658
f 656 657 660
f 656 660 659
f 658 659 662
f 658 662 661
f 659 660 663
f 659 663 662
f 661 662 665
f 661 665 664
f 662 663 666
f 662 666 665
f 664 665 668
f 664 668 667
f 665 666 669
f 665 669 668
f 667 668 671
f 667 671 670
f 668 669 672
f 668 672 671
f 670 671 674
f 670 674 673
f 671 672 675
f 671 675 674
f 673 674 677
f 673 677 676
f 674 675 678
f 674 678 677
f 676 677 680
f 676 680 679
f 677 678 681
f 677 681 680
f 679 680 683
f 679 683 682
f 680 681 684
f 680 684 683
f 682 683 686
f 682 686 685
f 683 684 687
f 683 687 686
f 685 686 689
f 685 689 688
f 686 687 690
f 686 690 689
f 688 689 2
f 688 2 1
f 689 690 3
f 689 3 2
