#usda 1.0
(
    defaultPrim = "root"
    upAxis = "Z"
)

def "root"
{
    def "bag"
    {
        def Mesh "bag"
        {
            int[] faceVertexCounts = [3, 3, 3, 3, 3, 3, 3, 3, 3, 3, 3, 3, 3, 3, 3, 3, 3, 3, 3, 3, 3, 3, 3, 3, 3, 3, 3, 3, 3, 3, 3, 3, 3, 3, 3, 3, 3, 3, 3, 3, 3, 3, 3, 3, 3, 3, 3, 3, 3, 3, 3, 3, 3, 3, 3, 3, 3, 3, 3, 3, 3, 3, 3, 3, 3, 3, 3, 3, 3, 3, 3, 3, 3, 3, 3, 3, 3, 3, 3, 3, 3, 3, 3, 3, 3, 3, 3, 3, 3, 3, 3, 3, 3, 3, 3, 3, 3, 3, 3, 3, 3, 3, 3, 3, 3, 3, 3, 3, 3, 3, 3, 3, 3, 3, 3, 3, 3, 3, 3, 3, 3, 3, 3, 3, 3, 3, 3, 3, 3, 3, 3, 3, 3, 3, 3, 3, 3, 3, 3, 3, 3, 3, 3, 3, 3, 3, 3, 3, 3, 3, 3, 3, 3, 3, 3, 3, 3, 3, 3, 3, 3, 3, 3, 3, 3, 3, 3, 3, 3, 3, 3, 3, 3, 3, 3, 3, 3, 3, 3, 3, 3, 3, 3, 3, 3, 3, 3, 3, 3, 3, 3, 3, 3, 3, 3, 3, 3, 3, 3, 3, 3, 3, 3, 3, 3, 3, 3, 3, 3, 3, 3, 3, 3, 3, 3, 3, 3, 3, 3, 3, 3, 3, 3, 3, 3, 3, 3, 3, 3, 3, 3, 3, 3, 3, 3, 3, 3, 3, 3, 3, 3, 3, 3, 3, 3, 3, 3, 3, 3, 3, 3, 3, 3, 3, 3, 3, 3, 3, 3, 3, 3, 3, 3, 3, 3, 3, 3, 3, 3, 3, 3, 3, 3, 3, 3, 3, 3, 3, 3, 3, 3, 3, 3, 3, 3, 3, 3, 3, 3, 3, 3, 3, 3, 3, 3, 3, 3, 3, 3, 3, 3, 3, 3, 3, 3, 3, 3, 3, 3, 3, 3, 3, 3, 3, 3, 3, 3, 3, 3, 3, 3, 3, 3, 3, 3, 3, 3, 3, 3, 3, 3, 3, 3, 3, 3, 3, 3, 3, 3, 3, 3, 3, 3, 3, 3, 3, 3, 3, 3, 3, 3, 3, 3, 3, 3, 3, 3, 3, 3, 3, 3, 3, 3, 3, 3, 3, 3, 3, 3, 3, 3, 3, 3, 3, 3, 3, 3, 3, 3, 3, 3, 3, 3, 3, 3, 3, 3, 3, 3, 3, 3, 3, 3, 3, 3, 3, 3, 3, 3, 3, 3, 3, 3, 3, 3, 3, 3, 3, 3, 3, 3, 3, 3, 3, 3, 3, 3, 3, 3, 3, 3, 3, 3, 3, 3, 3, 3, 3, 3, 3, 3, 3, 3, 3, 3, 3, 3, 3, 3, 3, 3, 3, 3, 3, 3, 3, 3, 3, 3, 3, 3, 3, 3, 3, 3, 3, 3, 3, 3, 3, 3, 3, 3, 3, 3, 3, 3, 3, 3, 3, 3, 3, 3, 3, 3, 3, 3, 3, 3, 3, 3, 3, 3, 3, 3, 3, 3, 3, 3, 3, 3, 3, 3, 3, 3, 3, 3, 3, 3, 3, 3, 3, 3, 3, 3, 3, 3, 3, 3, 3, 3, 3, 3, 3, 3, 3, 3, 3, 3, 3, 3, 3, 3, 3, 3, 3, 3, 3, 3, 3, 3, 3, 3, 3, 3, 3, 3, 3, 3, 3, 3, 3, 3, 3, 3, 3, 3, 3, 3, 3, 3, 3, 3, 3, 3, 3, 3, 3, 3, 3, 3, 3, 3, 3, 3, 3, 3, 3, 3, 3, 3, 3, 3, 3, 3, 3, 3, 3, 3, 3, 3, 3, 3, 3, 3, 3, 3, 3, 3, 3, 3, 3, 3, 3, 3, 3, 3, 3, 3, 3, 3, 3, 3, 3, 3, 3, 3, 3, 3, 3, 3, 3, 3, 3, 3, 3, 3, 3, 3, 3, 3, 3, 3, 3, 3, 3, 3, 3, 3, 3, 3, 3, 3, 3, 3, 3, 3, 3, 3, 3, 3, 3, 3, 3, 3, 3, 3, 3, 3, 3, 3, 3, 3, 3, 3, 3, 3, 3, 3, 3, 3, 3, 3, 3, 3, 3, 3, 3, 3, 3, 3, 3, 3, 3, 3, 3, 3, 3, 3, 3, 3, 3, 3, 3, 3, 3, 3, 3, 3, 3, 3, 3, 3, 3, 3, 3, 3, 3, 3, 3, 3, 3, 3, 3, 3, 3, 3, 3, 3, 3, 3, 3, 3, 3, 3, 3, 3, 3, 3, 3, 3, 3, 3, 3, 3, 3, 3, 3, 3, 3, 3, 3, 3, 3, 3, 3, 3, 3, 3, 3, 3, 3, 3, 3, 3, 3, 3, 3, 3, 3, 3, 3, 3, 3, 3, 3, 3, 3, 3, 3, 3, 3, 3, 3, 3, 3, 3, 3, 3, 3, 3, 3, 3, 3, 3, 3, 3, 3, 3, 3, 3, 3, 3, 3, 3, 3, 3, 3, 3, 3, 3, 3, 3, 3, 3, 3, 3, 3, 3, 3, 3, 3, 3, 3, 3, 3, 3, 3, 3, 3, 3, 3, 3, 3, 3, 3, 3, 3, 3, 3, 3, 3, 3, 3, 3, 3, 3, 3, 3, 3, 3, 3, 3, 3, 3, 3, 3, 3, 3, 3, 3, 3, 3, 3, 3, 3, 3, 3, 3, 3, 3, 3, 3, 3, 3, 3, 3, 3, 3, 3, 3, 3, 3, 3, 3, 3, 3, 3, 3, 3, 3, 3, 3, 3, 3, 3, 3, 3, 3, 3, 3, 3, 3, 3, 3, 3, 3, 3, 3, 3, 3, 3, 3, 3, 3, 3, 3, 3, 3, 3, 3, 3, 3, 3, 3, 3, 3, 3, 3, 3, 3, 3, 3, 3, 3, 3, 3, 3, 3, 3, 3, 3, 3, 3, 3, 3, 3, 3, 3, 3, 3, 3, 3, 3, 3, 3, 3, 3, 3, 3, 3, 3, 3, 3, 3, 3, 3, 3, 3, 3, 3, 3, 3, 3, 3, 3, 3, 3, 3, 3, 3, 3, 3, 3, 3, 3, 3, 3, 3, 3, 3, 3, 3, 3, 3, 3, 3, 3, 3, 3, 3, 3, 3, 3, 3, 3, 3, 3, 3, 3, 3, 3, 3, 3, 3, 3, 3, 3, 3, 3, 3, 3, 3, 3, 3, 3, 3, 3, 3, 3, 3, 3, 3, 3, 3, 3, 3, 3, 3, 3, 3, 3, 3, 3, 3, 3, 3, 3, 3, 3, 3, 3, 3, 3, 3, 3, 3, 3, 3, 3, 3, 3, 3, 3, 3, 3, 3, 3, 3, 3, 3, 3, 3, 3, 3, 3, 3, 3, 3, 3, 3, 3, 3, 3, 3, 3, 3, 3, 3, 3, 3, 3, 3, 3, 3, 3, 3, 3, 3, 3, 3, 3, 3, 3, 3, 3, 3, 3, 3, 3, 3, 3, 3, 3, 3, 3, 3, 3, 3, 3, 3, 3, 3, 3, 3, 3, 3, 3, 3, 3, 3, 3, 3, 3, 3, 3, 3, 3, 3, 3, 3, 3, 3, 3, 3, 3, 3, 3, 3, 3, 3, 3, 3, 3, 3, 3, 3, 3, 3, 3, 3, 3, 3, 3, 3, 3, 3, 3, 3, 3, 3, 3, 3, 3, 3, 3, 3, 3, 3, 3, 3, 3, 3, 3, 3, 3, 3, 3, 3, 3, 3, 3, 3, 3, 3, 3, 3, 3, 3, 3, 3, 3, 3, 3, 3, 3, 3, 3, 3, 3, 3, 3, 3, 3, 3, 3, 3, 3, 3, 3, 3, 3, 3, 3, 3, 3, 3, 3, 3, 3, 3, 3, 3, 3, 3, 3, 3, 3, 3, 3, 3, 3, 3, 3, 3, 3, 3, 3, 3, 3, 3, 3, 3, 3, 3, 3, 3, 3, 3, 3, 3, 3, 3, 3, 3, 3, 3, 3, 3, 3, 3, 3, 3, 3, 3, 3, 3, 3, 3, 3, 3, 3, 3, 3, 3, 3, 3, 3, 3, 3, 3, 3, 3, 3, 3, 3, 3, 3, 3, 3, 3, 3, 3, 3, 3, 3, 3, 3, 3, 3, 3, 3, 3, 3, 3, 3, 3, 3, 3, 3, 3, 3, 3, 3, 3, 3, 3, 3, 3, 3, 3, 3, 3, 3, 3, 3, 3, 3, 3, 3]
            int[] faceVertexIndices = [15, 18, 56, 14, 15, 56, 18, 48, 16, 16, 48, 66, 56, 18, 55, 18, 16, 55, 16, 66, 63, 62, 63, 66, 16, 63, 61, 400, 43, 391, 43, 48, 391, 48, 43, 46, 43, 52, 46, 48, 46, 392, 54, 15, 14, 14, 56, 393, 54, 44, 15, 64, 195, 194, 61, 63, 195, 28, 78, 29, 28, 17, 78, 78, 61, 64, 61, 195, 64, 17, 61, 78, 64, 194, 394, 422, 14, 393, 59, 33, 246, 246, 44, 54, 43, 49, 52, 49, 75, 52, 77, 76, 52, 52, 75, 77, 75, 395, 77, 78, 394, 3, 74, 40, 9, 198, 197, 392, 56, 55, 396, 45, 17, 28, 49, 397, 398, 83, 395, 398, 51, 397, 49, 38, 42, 41, 41, 42, 83, 397, 38, 41, 66, 65, 62, 63, 62, 195, 52, 76, 82, 43, 51, 49, 52, 82, 46, 76, 649, 82, 36, 397, 51, 59, 401, 33, 33, 36, 400, 82, 649, 198, 44, 246, 33, 251, 50, 34, 34, 50, 35, 57, 50, 251, 249, 251, 34, 34, 35, 59, 249, 34, 59, 7, 2, 586, 7, 586, 207, 47, 20, 414, 45, 27, 396, 4, 2, 1, 4, 1, 5, 3, 4, 5, 8, 6, 406, 2, 406, 405, 29, 79, 407, 79, 1, 408, 7, 406, 2, 625, 403, 589, 26, 25, 24, 23, 26, 588, 77, 68, 649, 67, 68, 77, 72, 68, 67, 72, 409, 68, 649, 68, 184, 399, 410, 411, 9, 411, 412, 284, 32, 271, 32, 26, 23, 219, 218, 172, 219, 172, 13, 172, 218, 12, 58, 29, 60, 58, 45, 28, 30, 29, 407, 79, 408, 31, 13, 0, 219, 214, 0, 13, 214, 13, 213, 217, 11, 175, 175, 11, 10, 217, 175, 218, 218, 173, 12, 414, 20, 587, 21, 413, 22, 25, 21, 24, 186, 417, 541, 74, 416, 40, 40, 416, 70, 69, 415, 67, 70, 69, 40, 40, 83, 42, 83, 40, 69, 418, 590, 23, 31, 418, 30, 60, 23, 588, 53, 31, 214, 39, 94, 410, 252, 94, 50, 50, 94, 35, 57, 252, 50, 207, 209, 8, 37, 39, 399, 39, 37, 401, 36, 37, 397, 19, 422, 393, 204, 421, 208, 200, 421, 204, 65, 197, 62, 196, 197, 649, 255, 420, 422, 345, 423, 367, 593, 426, 424, 380, 318, 593, 314, 626, 650, 427, 319, 426, 384, 314, 650, 230, 227, 431, 246, 249, 59, 237, 251, 249, 242, 249, 245, 242, 237, 249, 237, 431, 251, 327, 388, 594, 592, 593, 594, 339, 323, 380, 323, 322, 428, 339, 363, 323, 424, 432, 327, 353, 432, 319, 108, 111, 651, 110, 109, 111, 116, 117, 109, 453, 115, 111, 111, 115, 110, 433, 115, 254, 115, 433, 110, 115, 122, 254, 254, 122, 123, 85, 389, 372, 371, 335, 653, 372, 335, 371, 435, 92, 437, 92, 378, 437, 437, 439, 438, 354, 442, 443, 352, 354, 443, 325, 444, 441, 421, 203, 201, 208, 201, 446, 208, 421, 201, 208, 206, 80, 204, 208, 80, 8, 210, 447, 209, 210, 8, 451, 450, 262, 451, 268, 450, 613, 453, 452, 123, 122, 243, 122, 613, 243, 254, 123, 243, 241, 455, 454, 90, 454, 455, 243, 457, 456, 248, 458, 456, 257, 459, 596, 257, 460, 459, 129, 253, 84, 230, 226, 227, 253, 129, 116, 116, 433, 253, 253, 433, 226, 228, 461, 433, 461, 228, 462, 433, 254, 228, 228, 458, 462, 464, 657, 463, 190, 193, 657, 199, 657, 193, 192, 419, 193, 467, 199, 203, 201, 419, 466, 200, 465, 421, 62, 197, 468, 467, 469, 463, 469, 465, 468, 376, 375, 296, 374, 375, 376, 186, 376, 296, 186, 296, 473, 295, 381, 183, 296, 471, 473, 508, 188, 183, 188, 295, 183, 508, 187, 188, 164, 127, 163, 119, 127, 366, 164, 366, 127, 119, 125, 127, 366, 164, 367, 144, 475, 143, 474, 358, 124, 358, 128, 124, 474, 124, 125, 128, 97, 124, 124, 96, 125, 119, 474, 125, 130, 96, 572, 124, 97, 96, 359, 474, 363, 531, 497, 358, 359, 358, 474, 97, 107, 545, 97, 128, 107, 128, 496, 107, 321, 377, 622, 650, 315, 477, 479, 478, 480, 377, 315, 344, 481, 340, 578, 482, 328, 483, 381, 330, 183, 295, 347, 381, 484, 542, 370, 331, 183, 330, 333, 382, 486, 355, 472, 486, 328, 485, 483, 189, 183, 331, 91, 660, 378, 378, 92, 91, 660, 93, 378, 247, 240, 234, 238, 236, 553, 240, 232, 234, 315, 490, 344, 428, 423, 489, 490, 334, 481, 481, 334, 341, 490, 387, 334, 650, 490, 315, 490, 481, 344, 387, 317, 491, 489, 492, 491, 114, 494, 107, 495, 493, 494, 336, 338, 357, 498, 114, 338, 358, 496, 128, 358, 497, 496, 357, 497, 336, 390, 121, 599, 114, 498, 495, 599, 121, 498, 338, 599, 498, 113, 390, 93, 121, 390, 113, 225, 220, 224, 174, 225, 224, 173, 225, 172, 172, 225, 174, 224, 346, 215, 346, 161, 215, 174, 224, 215, 369, 499, 386, 222, 362, 346, 386, 362, 222, 362, 212, 346, 212, 161, 346, 216, 346, 224, 346, 216, 222, 212, 152, 161, 383, 181, 365, 212, 181, 152, 362, 365, 212, 365, 181, 212, 324, 369, 221, 6, 447, 500, 219, 591, 500, 369, 386, 222, 221, 369, 222, 570, 221, 222, 220, 222, 216, 220, 216, 224, 218, 219, 220, 225, 218, 220, 11, 217, 10, 225, 223, 501, 501, 10, 217, 280, 288, 174, 280, 174, 215, 171, 160, 170, 170, 279, 171, 171, 279, 505, 288, 213, 174, 502, 171, 503, 280, 503, 504, 172, 12, 173, 280, 504, 288, 288, 53, 213, 271, 504, 505, 507, 160, 171, 168, 276, 506, 279, 170, 506, 276, 282, 279, 186, 187, 417, 649, 184, 196, 184, 185, 652, 183, 189, 508, 600, 601, 602, 252, 241, 86, 512, 515, 412, 170, 604, 506, 134, 299, 289, 134, 289, 283, 134, 290, 301, 290, 517, 301, 134, 135, 294, 135, 155, 294, 155, 293, 294, 134, 294, 290, 294, 147, 290, 147, 349, 166, 290, 518, 517, 155, 135, 156, 150, 182, 155, 155, 182, 293, 153, 150, 155, 153, 155, 156, 639, 565, 278, 156, 135, 148, 135, 134, 148, 134, 283, 565, 520, 180, 521, 180, 182, 150, 176, 291, 158, 180, 520, 522, 292, 294, 522, 147, 294, 292, 293, 182, 180, 335, 434, 537, 438, 523, 524, 378, 93, 390, 390, 599, 523, 337, 338, 336, 273, 284, 282, 505, 282, 284, 281, 273, 282, 273, 25, 284, 21, 25, 525, 274, 272, 281, 274, 281, 276, 213, 13, 172, 213, 172, 174, 214, 213, 53, 175, 10, 223, 173, 218, 175, 173, 175, 223, 609, 610, 611, 95, 631, 641, 457, 613, 527, 413, 21, 525, 263, 22, 413, 264, 529, 272, 530, 270, 451, 388, 532, 594, 368, 339, 592, 328, 388, 327, 388, 538, 532, 531, 358, 359, 368, 531, 339, 339, 531, 359, 353, 485, 432, 371, 653, 328, 542, 536, 370, 370, 371, 328, 370, 536, 371, 336, 351, 337, 653, 537, 538, 245, 249, 246, 258, 247, 233, 234, 235, 247, 244, 255, 233, 132, 540, 266, 266, 236, 261, 265, 255, 422, 244, 420, 255, 258, 233, 255, 303, 132, 270, 646, 374, 376, 646, 376, 186, 484, 370, 482, 347, 543, 542, 533, 85, 536, 470, 658, 543, 89, 373, 543, 9, 515, 416, 88, 535, 541, 241, 252, 57, 544, 241, 57, 544, 57, 251, 109, 117, 651, 117, 116, 129, 98, 651, 546, 647, 546, 117, 647, 117, 129, 545, 118, 547, 546, 548, 547, 230, 431, 237, 233, 247, 235, 240, 247, 238, 201, 466, 549, 550, 446, 549, 333, 485, 332, 332, 382, 333, 382, 356, 355, 382, 332, 356, 355, 356, 618, 618, 354, 619, 332, 353, 442, 102, 105, 239, 102, 239, 106, 103, 106, 104, 103, 102, 106, 101, 102, 103, 102, 100, 105, 100, 554, 555, 563, 556, 142, 190, 191, 193, 192, 211, 202, 192, 193, 191, 191, 211, 192, 190, 360, 191, 211, 352, 202, 550, 205, 445, 312, 311, 552, 231, 253, 226, 232, 558, 231, 84, 558, 557, 105, 240, 239, 100, 559, 557, 362, 386, 499, 179, 316, 177, 499, 329, 179, 365, 499, 383, 329, 499, 369, 329, 316, 179, 316, 648, 177, 369, 324, 329, 385, 325, 324, 221, 561, 324, 440, 320, 444, 445, 352, 440, 238, 239, 240, 309, 104, 236, 106, 553, 104, 131, 104, 309, 104, 553, 236, 306, 131, 309, 307, 299, 300, 305, 307, 300, 307, 133, 269, 307, 305, 133, 289, 307, 269, 299, 307, 289, 133, 449, 269, 289, 267, 283, 289, 269, 267, 269, 449, 267, 300, 299, 301, 584, 300, 297, 297, 167, 165, 268, 270, 132, 272, 274, 264, 277, 264, 274, 285, 264, 277, 453, 111, 632, 118, 112, 98, 120, 493, 631, 267, 564, 565, 275, 168, 169, 169, 277, 275, 169, 286, 285, 169, 278, 286, 169, 285, 277, 125, 96, 566, 142, 130, 563, 137, 142, 656, 479, 441, 430, 342, 348, 567, 342, 350, 348, 348, 350, 349, 342, 567, 621, 567, 348, 291, 291, 176, 379, 291, 348, 292, 379, 340, 567, 367, 343, 345, 366, 367, 322, 323, 568, 322, 144, 361, 343, 339, 359, 363, 361, 144, 569, 343, 367, 475, 101, 103, 104, 101, 104, 562, 209, 552, 210, 221, 571, 561, 311, 312, 571, 572, 476, 563, 157, 648, 573, 576, 149, 516, 379, 574, 623, 580, 584, 579, 303, 302, 304, 168, 275, 276, 275, 277, 274, 275, 274, 276, 144, 143, 581, 309, 540, 582, 310, 311, 570, 133, 305, 530, 303, 270, 302, 304, 302, 580, 383, 179, 181, 133, 451, 449, 564, 267, 449, 136, 139, 579, 266, 597, 132, 298, 167, 297, 166, 146, 167, 349, 146, 166, 345, 583, 492, 299, 134, 301, 300, 301, 297, 297, 301, 298, 310, 210, 311, 162, 138, 136, 297, 165, 584, 361, 145, 350, 349, 145, 146, 350, 145, 349, 656, 308, 141, 138, 585, 624, 624, 137, 141, 585, 138, 581, 163, 140, 143, 44, 391, 15, 391, 44, 400, 18, 391, 48, 391, 18, 15, 48, 392, 66, 55, 16, 61, 61, 17, 55, 64, 394, 78, 83, 69, 395, 77, 649, 76, 395, 67, 77, 67, 395, 69, 3, 394, 200, 392, 197, 65, 45, 396, 17, 396, 55, 17, 397, 41, 398, 83, 398, 41, 395, 75, 398, 49, 398, 75, 43, 400, 51, 66, 392, 65, 82, 198, 46, 401, 36, 33, 400, 36, 51, 46, 198, 392, 44, 33, 400, 207, 586, 206, 4, 81, 2, 81, 4, 3, 204, 81, 3, 81, 204, 80, 7, 207, 8, 47, 596, 20, 19, 20, 265, 393, 56, 402, 396, 402, 56, 26, 587, 404, 20, 625, 587, 589, 58, 588, 58, 589, 27, 408, 405, 214, 1, 405, 408, 405, 1, 2, 0, 406, 591, 407, 79, 31, 7, 8, 406, 26, 404, 588, 589, 588, 404, 418, 287, 590, 288, 287, 53, 418, 53, 287, 184, 409, 185, 409, 184, 68, 399, 411, 40, 40, 411, 9, 410, 412, 411, 28, 29, 58, 29, 30, 60, 214, 405, 0, 406, 0, 405, 30, 407, 31, 408, 214, 31, 24, 587, 26, 21, 414, 24, 587, 24, 414, 22, 414, 21, 414, 22, 47, 416, 73, 70, 71, 72, 415, 417, 71, 541, 71, 417, 72, 69, 70, 415, 415, 72, 67, 417, 185, 409, 417, 409, 72, 19, 393, 403, 27, 403, 402, 27, 402, 396, 418, 23, 60, 418, 60, 30, 418, 31, 53, 74, 9, 416, 39, 410, 399, 94, 39, 35, 399, 40, 42, 38, 399, 42, 37, 399, 38, 35, 401, 59, 401, 35, 39, 36, 401, 37, 397, 37, 38, 203, 419, 201, 245, 54, 420, 54, 245, 246, 14, 420, 54, 200, 394, 194, 422, 420, 14, 423, 322, 367, 425, 593, 318, 593, 425, 426, 424, 426, 319, 425, 318, 317, 387, 626, 317, 314, 426, 425, 319, 427, 353, 427, 326, 353, 326, 427, 384, 384, 427, 314, 426, 314, 427, 318, 428, 317, 429, 384, 430, 477, 430, 384, 242, 230, 237, 227, 229, 431, 251, 431, 544, 432, 424, 319, 380, 323, 318, 323, 428, 318, 433, 116, 110, 115, 453, 122, 372, 436, 335, 434, 335, 436, 436, 435, 437, 85, 595, 389, 437, 434, 436, 91, 92, 615, 389, 436, 372, 390, 523, 439, 438, 439, 523, 437, 438, 434, 352, 320, 440, 313, 441, 479, 326, 442, 353, 442, 326, 443, 429, 443, 326, 352, 443, 320, 320, 443, 429, 444, 320, 441, 429, 441, 320, 445, 205, 202, 202, 352, 445, 429, 326, 384, 208, 446, 206, 8, 447, 6, 448, 22, 263, 22, 448, 47, 257, 596, 47, 451, 262, 449, 450, 268, 597, 47, 448, 257, 262, 450, 260, 448, 259, 257, 452, 453, 95, 95, 453, 632, 122, 453, 613, 241, 454, 86, 90, 455, 250, 457, 243, 613, 457, 250, 456, 250, 457, 90, 248, 456, 250, 254, 243, 458, 456, 458, 243, 258, 265, 459, 20, 596, 265, 257, 256, 460, 459, 460, 258, 256, 257, 259, 227, 226, 461, 433, 461, 226, 227, 462, 229, 462, 227, 461, 458, 248, 462, 229, 462, 248, 254, 458, 228, 464, 190, 657, 463, 657, 467, 652, 464, 196, 419, 199, 193, 199, 419, 203, 192, 466, 419, 466, 192, 202, 194, 465, 200, 421, 467, 203, 62, 468, 195, 197, 196, 469, 463, 469, 196, 197, 469, 468, 469, 467, 465, 468, 465, 194, 471, 470, 347, 470, 296, 375, 296, 470, 471, 471, 347, 295, 187, 473, 188, 186, 473, 187, 509, 472, 190, 471, 188, 473, 188, 471, 295, 189, 331, 472, 366, 568, 119, 474, 119, 568, 475, 164, 163, 475, 163, 143, 130, 572, 563, 97, 545, 654, 321, 316, 329, 477, 315, 478, 377, 478, 315, 313, 479, 480, 479, 430, 478, 480, 478, 377, 344, 578, 364, 578, 344, 481, 484, 483, 330, 483, 484, 482, 347, 484, 381, 484, 330, 381, 482, 370, 328, 332, 485, 353, 486, 382, 355, 486, 330, 333, 472, 331, 486, 330, 486, 331, 485, 333, 483, 330, 483, 333, 360, 472, 355, 627, 487, 598, 628, 87, 629, 598, 488, 630, 317, 428, 489, 428, 322, 423, 489, 423, 345, 481, 341, 340, 387, 490, 650, 334, 491, 621, 491, 334, 387, 317, 489, 491, 489, 345, 492, 491, 492, 621, 493, 120, 112, 493, 113, 631, 494, 112, 118, 118, 107, 494, 496, 338, 114, 114, 495, 494, 495, 113, 493, 494, 493, 112, 357, 338, 497, 496, 497, 338, 498, 121, 495, 113, 495, 121, 107, 118, 545, 362, 499, 365, 447, 310, 500, 500, 220, 219, 501, 223, 10, 225, 501, 218, 217, 218, 501, 310, 447, 210, 288, 504, 287, 503, 171, 504, 161, 503, 215, 503, 161, 502, 215, 503, 280, 505, 504, 171, 170, 160, 604, 282, 505, 279, 505, 284, 271, 504, 271, 287, 507, 171, 502, 506, 276, 279, 576, 633, 573, 464, 509, 190, 508, 189, 509, 417, 187, 185, 185, 187, 508, 184, 652, 196, 185, 508, 652, 509, 189, 472, 630, 602, 634, 629, 635, 600, 637, 88, 638, 634, 511, 603, 252, 86, 514, 513, 514, 86, 94, 514, 410, 514, 94, 252, 410, 603, 412, 412, 515, 9, 516, 154, 168, 168, 506, 516, 517, 298, 301, 166, 518, 147, 147, 518, 290, 518, 298, 517, 168, 605, 169, 169, 605, 278, 148, 639, 606, 168, 154, 605, 134, 565, 148, 291, 520, 158, 521, 158, 520, 158, 521, 151, 180, 150, 521, 151, 521, 150, 151, 150, 153, 516, 149, 154, 149, 519, 154, 292, 520, 291, 520, 292, 522, 293, 522, 294, 522, 293, 180, 434, 438, 524, 524, 523, 337, 537, 434, 640, 437, 378, 439, 390, 439, 378, 272, 525, 281, 281, 525, 273, 525, 25, 273, 276, 281, 282, 642, 643, 641, 608, 610, 644, 615, 611, 643, 645, 628, 609, 644, 627, 90, 526, 608, 612, 413, 525, 272, 263, 413, 529, 272, 529, 413, 260, 263, 529, 564, 262, 529, 262, 564, 449, 270, 268, 451, 133, 530, 451, 351, 531, 368, 532, 368, 594, 368, 532, 351, 640, 532, 538, 532, 640, 351, 497, 531, 336, 328, 327, 485, 432, 485, 327, 541, 646, 186, 85, 533, 87, 510, 635, 534, 511, 601, 637, 533, 89, 534, 658, 535, 614, 645, 528, 595, 615, 435, 528, 536, 372, 371, 524, 337, 351, 335, 537, 653, 538, 537, 640, 653, 538, 388, 539, 244, 233, 540, 236, 266, 242, 245, 539, 244, 539, 245, 265, 422, 19, 420, 244, 245, 616, 71, 415, 89, 533, 373, 484, 347, 542, 85, 372, 536, 373, 533, 536, 536, 542, 373, 375, 658, 470, 470, 543, 347, 89, 543, 658, 543, 373, 542, 374, 658, 375, 416, 515, 73, 73, 638, 616, 544, 229, 248, 250, 455, 248, 544, 455, 241, 455, 544, 248, 118, 98, 547, 99, 547, 548, 547, 99, 545, 98, 546, 547, 231, 230, 235, 242, 235, 230, 233, 235, 539, 242, 539, 235, 238, 247, 617, 232, 231, 235, 232, 235, 234, 466, 205, 549, 205, 466, 202, 446, 550, 552, 446, 552, 551, 552, 209, 551, 207, 551, 209, 205, 550, 549, 549, 446, 201, 206, 551, 207, 551, 206, 446, 356, 442, 354, 442, 356, 332, 553, 106, 239, 102, 554, 100, 101, 554, 102, 554, 101, 476, 476, 555, 554, 360, 211, 191, 211, 360, 619, 552, 550, 312, 445, 312, 550, 231, 226, 230, 240, 558, 232, 558, 253, 231, 100, 557, 105, 557, 129, 84, 240, 105, 558, 557, 558, 105, 548, 647, 559, 84, 253, 558, 557, 559, 647, 499, 179, 383, 177, 648, 157, 157, 560, 177, 324, 325, 329, 312, 385, 561, 324, 561, 385, 385, 444, 325, 444, 385, 440, 312, 440, 385, 440, 312, 445, 553, 239, 238, 540, 309, 236, 131, 562, 104, 563, 562, 556, 131, 556, 562, 556, 131, 306, 266, 261, 256, 108, 632, 111, 632, 108, 120, 108, 112, 120, 112, 108, 98, 120, 631, 95, 286, 565, 285, 267, 565, 283, 564, 285, 565, 285, 564, 264, 278, 565, 286, 142, 620, 130, 163, 566, 140, 566, 163, 125, 656, 142, 556, 306, 656, 556, 477, 478, 430, 441, 313, 325, 430, 441, 429, 583, 361, 350, 341, 567, 340, 379, 567, 291, 321, 480, 377, 568, 366, 322, 568, 323, 363, 361, 569, 145, 568, 363, 474, 475, 367, 164, 343, 475, 144, 476, 101, 562, 321, 622, 316, 571, 221, 570, 561, 571, 312, 570, 311, 571, 126, 572, 96, 572, 126, 476, 563, 476, 562, 178, 573, 648, 573, 178, 159, 178, 574, 159, 176, 575, 574, 519, 149, 575, 159, 576, 573, 576, 159, 149, 604, 160, 633, 364, 577, 648, 379, 623, 340, 577, 578, 623, 574, 379, 176, 623, 178, 577, 480, 321, 313, 579, 141, 304, 136, 579, 165, 304, 580, 579, 580, 305, 584, 581, 569, 144, 569, 655, 145, 308, 306, 582, 582, 303, 308, 304, 308, 303, 141, 308, 304, 540, 132, 582, 303, 582, 132, 302, 530, 305, 530, 302, 270, 580, 302, 305, 560, 181, 177, 181, 560, 152, 579, 139, 141, 583, 342, 492, 210, 552, 311, 157, 507, 560, 502, 560, 507, 583, 343, 361, 343, 583, 345, 165, 579, 584, 584, 305, 300, 162, 581, 138, 141, 137, 656, 138, 139, 136, 140, 585, 143, 581, 143, 585, 165, 659, 136, 81, 80, 586, 586, 2, 81, 27, 45, 58, 589, 404, 625, 590, 271, 32, 25, 26, 32, 284, 25, 32, 0, 591, 219, 590, 32, 23, 626, 387, 650, 594, 368, 592, 592, 380, 593, 594, 593, 424, 109, 110, 116, 435, 595, 528, 263, 260, 448, 259, 597, 256, 96, 97, 654, 364, 622, 344, 622, 377, 344, 598, 487, 488, 599, 338, 337, 93, 660, 113, 222, 661, 570, 591, 6, 500, 488, 600, 602, 600, 510, 601, 602, 601, 511, 511, 512, 603, 410, 514, 513, 604, 516, 506, 607, 519, 606, 452, 612, 608, 608, 527, 452, 528, 609, 611, 609, 487, 610, 611, 610, 526, 613, 452, 527, 564, 529, 264, 592, 339, 380, 614, 510, 534, 435, 615, 92, 71, 616, 541, 618, 356, 354, 352, 619, 354, 355, 618, 360, 619, 360, 618, 617, 460, 261, 460, 617, 258, 256, 597, 266, 566, 620, 140, 621, 567, 341, 648, 622, 364, 364, 578, 577, 623, 574, 178, 597, 268, 132, 624, 585, 137, 138, 624, 139, 141, 139, 624, 3, 200, 204, 586, 80, 206, 587, 625, 404, 625, 19, 403, 589, 403, 27, 625, 20, 19, 588, 58, 60, 591, 406, 6, 590, 287, 271, 402, 403, 393, 626, 425, 317, 314, 425, 626, 431, 229, 544, 327, 594, 424, 595, 435, 389, 436, 389, 435, 450, 597, 259, 259, 260, 450, 260, 259, 448, 196, 464, 463, 468, 194, 195, 472, 360, 190, 90, 627, 454, 598, 454, 627, 487, 628, 488, 629, 488, 628, 454, 598, 86, 630, 86, 598, 334, 621, 341, 632, 120, 95, 222, 220, 661, 633, 157, 573, 157, 633, 507, 513, 86, 634, 630, 488, 602, 634, 602, 511, 488, 629, 600, 629, 87, 635, 600, 635, 510, 637, 601, 636, 601, 510, 636, 636, 614, 535, 511, 637, 512, 638, 512, 637, 513, 603, 410, 603, 513, 634, 603, 512, 412, 512, 638, 515, 605, 639, 278, 639, 148, 565, 156, 148, 606, 607, 605, 154, 606, 639, 607, 605, 607, 639, 606, 153, 156, 158, 519, 575, 519, 158, 151, 519, 153, 606, 153, 519, 151, 337, 523, 599, 640, 434, 524, 612, 95, 641, 612, 641, 526, 631, 642, 641, 642, 91, 643, 641, 643, 526, 527, 608, 644, 608, 526, 610, 644, 610, 487, 91, 615, 643, 615, 528, 611, 643, 611, 526, 528, 645, 609, 645, 87, 628, 609, 628, 487, 527, 644, 90, 644, 487, 627, 642, 631, 660, 91, 642, 660, 90, 457, 527, 95, 612, 452, 529, 262, 260, 87, 533, 635, 534, 635, 533, 534, 89, 614, 636, 88, 637, 88, 636, 535, 535, 658, 374, 87, 645, 85, 595, 85, 645, 73, 415, 70, 415, 73, 616, 535, 646, 541, 515, 638, 73, 88, 616, 638, 616, 88, 541, 546, 647, 548, 99, 548, 555, 617, 247, 258, 211, 619, 352, 126, 99, 555, 325, 313, 329, 261, 460, 256, 620, 566, 130, 125, 163, 127, 137, 620, 142, 147, 292, 349, 622, 648, 316, 575, 176, 158, 507, 633, 160, 516, 604, 576, 633, 576, 604, 623, 578, 340, 648, 577, 178, 321, 329, 313, 582, 306, 309, 342, 621, 492, 585, 140, 620, 29, 5, 79, 79, 5, 1, 649, 197, 198, 384, 650, 477, 651, 111, 109, 465, 467, 421, 652, 509, 464, 261, 236, 617, 265, 258, 255, 651, 98, 108, 651, 117, 546, 126, 654, 99, 566, 96, 130, 167, 146, 655, 656, 306, 308, 78, 5, 29, 78, 3, 5, 596, 459, 265, 657, 199, 467, 654, 545, 99, 496, 114, 107, 652, 508, 509, 154, 519, 607, 531, 351, 336, 653, 388, 328, 524, 351, 640, 236, 238, 617, 555, 476, 126, 100, 548, 559, 557, 647, 129, 583, 350, 342, 569, 581, 162, 145, 655, 146, 167, 659, 165, 659, 167, 655, 659, 162, 136, 162, 659, 655, 96, 654, 126, 660, 631, 113, 661, 310, 570, 152, 502, 161, 159, 574, 575, 166, 167, 298, 152, 560, 502, 220, 500, 661, 310, 661, 500, 173, 223, 225, 86, 630, 634, 636, 510, 614, 518, 166, 298, 89, 658, 614, 535, 374, 646, 555, 548, 100, 292, 348, 349, 159, 575, 149, 655, 569, 162, 179, 177, 181, 585, 620, 137]
            point3f[] points = [(7.008103, -0.37046263, 24.255653), (8.495835, -2.5905814, 20.297285), (6.8626504, -2.201271, 20.102856), (8.459373, -4.9567604, 16.530148), (7.757307, -4.014476, 17.883646), (9.684681, -4.0625253, 18.758995), (4.025167, 0.4376882, 22.99252), (5.401568, -1.2684491, 20.588577), (4.0073795, 0.34894428, 22.462172), (9.066325, -5.9521213, 0.012414786), (2.182954, 0.48058102, 27.417946), (1.9603142, 0.48271796, 26.676332), (5.5413423, 0.077383615, 26.980972), (8.00377, -0.094796784, 25.638453), (3.350917, -6.581272, 11.547568), (4.4758205, -6.699199, 10.463289), (8.872695, -6.228654, 11.524492), (9.571341, -6.2714477, 15.469054), (6.679174, -6.358769, 10.961379), (1.4681811, -5.0089517, 14.811613), (0.044590015, -3.8063438, 16.25341), (0.57105535, -0.4695454, 21.203327), (-1.6962472, -1.9541856, 19.371819), (6.330022, -1.9280761, 21.765673), (1.814568, -0.97108316, 20.61054), (2.5125337, -0.43036035, 22.227072), (3.776611, -1.5710361, 20.57577), (5.5939894, -4.7896323, 16.868635), (9.564041, -5.0277424, 17.587862), (9.760117, -4.082714, 18.983843), (9.542386, -3.0488899, 20.896053), (9.682012, -2.497372, 21.997206), (4.7220383, -0.9918625, 22.886036), (4.7779956, -6.6879816, 5.8934474), (1.2207859, -6.7145414, 3.9185348), (3.09498, -6.665956, 2.5661457), (6.8461995, -6.536643, 4.4611664), (7.14195, -6.502363, 2.3310993), (9.188867, -6.152318, 1.0668495), (5.125297, -6.414516, 1.5089368), (9.589254, -6.3361983, 0.2539628), (9.483449, -6.139264, 0.7679355), (9.613149, -6.039877, 0.549066), (8.442256, -6.2840033, 6.872402), (4.331643, -6.8392587, 7.792491), (7.3521056, -5.063111, 16.65574), (9.651586, -6.079508, 6.4875693), (-2.0680346, -3.0183442, 17.774431), (8.256105, -6.1332717, 9.036006), (9.586279, -6.088388, 5.903954), (1.0185372, -6.3973627, 1.4626807), (8.487431, -6.1584196, 5.4999614), (9.666853, -6.101629, 6.105623), (9.697135, -1.2551426, 24.433907), (2.7665124, -6.8732758, 9.461671), (7.308038, -6.560603, 13.6723995), (5.272952, -6.4725575, 13.010536), (-0.0978062, -6.0413446, 0.6675928), (7.5886703, -4.488134, 18.396595), (2.6239178, -6.8718123, 5.3813543), (7.9937177, -2.9066472, 20.73571), (9.737392, -6.2007675, 13.561409), (9.63311, -4.794937, 11.357182), (9.702496, -6.0972357, 11.836936), (9.574782, -5.835341, 14.481152), (9.535033, -5.6335683, 11.126048), (9.679209, -6.196292, 10.749616), (10.006257, -2.8827724, 2.7358108), (10.032838, -1.606233, 4.4376016), (9.783579, -4.7782254, 1.0733188), (9.5764265, -4.3147063, 0.4617533), (9.563595, 0.39647436, 0.5554971), (9.851137, -0.21888028, 2.159989), (9.617057, -2.3149424, 0.06202188), (9.628135, -6.214228, 0.11428091), (9.576966, -5.672177, 5.1750546), (9.610472, -5.276471, 5.9584494), (9.875873, -3.921726, 5.16719), (9.732305, -6.175383, 15.264247), (9.754557, -2.7301629, 20.965448), (7.1270833, -1.8703238, 17.772589), (7.084247, -3.342083, 18.043076), (9.736441, -5.16267, 6.311333), (9.597974, -5.953715, 0.49364328), (-9.328775, -6.130869, 6.4149556), (0.20072797, 6.277197, 0.04270111), (0.89543504, -4.162025, 0.0018860481), (0.7900905, 4.887789, 0.0021003955), (8.559158, 1.0385733, 0.0026530423), (5.9370384, 6.39215, 0.026126262), (-4.3222837, -4.371105, 0.002204239), (-7.0691624, 5.315535, 0.0040655998), (-5.7852283, 6.3606644, 0.041301563), (-9.477508, 6.5550523, 0.1828764), (2.8944867, -6.088473, 0.06861928), (-9.565697, -0.46377322, 0.072395764), (-10.038054, 2.6389663, 12.591259), (-10.108264, 3.043533, 10.0019655), (-9.977216, -0.4857031, 5.862227), (-10.069945, -0.32914573, 10.136821), (-9.302841, -5.6109533, 11.217222), (-9.678217, -4.3405914, 13.745284), (-9.305149, -5.664789, 11.994258), (-9.371523, -5.8477025, 14.625489), (-9.520781, -6.1537337, 15.450918), (-9.415288, -6.1152487, 11.381177), (-9.426932, -5.942527, 12.0435095), (-9.849873, 3.7294347, 7.2971888), (-9.916569, -0.69254684, 3.2967167), (-9.798871, -3.5444689, 4.9147196), (-9.618391, -4.9027762, 3.826992), (-9.87961, -3.0107055, 2.4722497), (-10.035315, 1.5435842, 4.1566563), (-9.818494, 4.2949405, 1.1731356), (-9.758649, 5.2829385, 5.321282), (-9.545141, -5.237577, 1.3874971), (-9.457745, -6.129247, 5.87572), (-9.764109, -3.4245858, 5.982975), (-10.028692, 1.5256978, 6.2534966), (-9.644127, 6.0991707, 15.172218), (-9.81423, 1.0353445, 1.5465524), (-9.520283, 5.8590198, 1.1779667), (-9.468176, -6.117282, 0.12954767), (-9.41615, -6.405653, 0.30751485), (-9.850094, 4.4683967, 11.963499), (-9.743476, 4.888758, 14.484513), (-10.114484, 0.40744314, 11.784227), (-9.552892, 5.9934125, 15.2660885), (-9.794216, 4.949854, 9.749781), (-9.579764, -5.983393, 6.1746197), (-9.100093, 1.7773461, 15.040384), (-9.354128, -5.174863, 15.6561575), (-9.43908, -4.4105353, 18.421494), (-9.458211, -1.13371, 24.433926), (-9.53139, -0.21928987, 27.638233), (-9.630993, 0.33891845, 27.785542), (-4.634024, 0.3413537, 23.17124), (-6.5995975, 0.27661553, 18.141266), (-5.6215224, 1.1746218, 21.082584), (-5.4674363, -0.7315839, 20.951967), (-7.5531716, 3.3730555, 17.523415), (-6.1472354, -1.9840469, 19.776176), (-8.317455, -0.15642141, 16.214409), (-7.469178, 3.2003422, 18.66878), (-9.513405, 2.974142, 19.730465), (-9.388931, 1.0753851, 23.387974), (-9.4848175, 0.5217695, 24.930685), (-9.604078, 0.15625192, 27.26818), (-9.432194, 0.12344813, 27.82121), (-1.8011451, 0.9888068, 25.842194), (-9.225561, 1.2712948, 25.376966), (-6.7983103, 1.1018502, 25.275728), (9.248264, 1.037511, 25.225834), (-7.287034, 0.8565915, 26.907536), (-2.5270965, 0.66701096, 27.84157), (-9.626094, 1.0990186, 26.159138), (-9.492977, 0.49415088, 27.752806), (4.1123104, 0.7499676, 24.995195), (-6.078897, 0.9952844, 25.004925), (-1.4803271, 0.9678867, 25.03643), (2.9396472, 0.5564244, 27.894745), (9.652043, 0.1455463, 27.695457), (-6.2295265, 1.4978055, 21.677334), (-8.354942, 4.8011217, 16.312574), (-9.402418, 4.8577957, 16.580107), (-5.055287, 0.30798247, 24.227251), (-9.587223, -0.008937946, 27.184927), (-7.324334, 0.31538263, 25.536736), (-2.5356212, 0.44603908, 27.864199), (-3.824726, 0.029889733, 27.72257), (2.858894, 0.32799953, 27.899332), (5.3060575, 0.3225732, 27.922266), (7.43747, -0.21841913, 26.78434), (5.5681634, 0.11650587, 27.336536), (9.601123, -0.41212633, 26.601225), (2.98229, 0.17759994, 27.377735), (-4.732251, 0.9046441, 24.93841), (5.161643, 0.6335827, 24.965393), (0.9120029, 0.80797493, 24.934635), (6.3118124, 0.59857607, 25.100554), (-9.360403, 1.1015266, 25.135735), (9.200288, 0.8468843, 25.224226), (-9.338988, 1.1494529, 25.173334), (9.660829, 6.170615, 5.940348), (9.934046, -0.27579835, 6.0200305), (9.924644, 2.081555, 5.369987), (9.802544, 4.7675962, 0.94058335), (9.709909, 3.8701794, 3.6487641), (9.576736, 5.6126065, 4.990464), (9.646305, 6.214676, 6.6021395), (9.96384, 3.8596277, 10.323402), (9.565564, 5.586683, 11.727812), (9.819479, 5.0396233, 14.00448), (9.919239, 3.3807573, 12.29352), (9.7949, -4.055205, 12.914092), (9.485541, -5.6394296, 11.875203), (10.026721, -0.87911654, 8.215486), (9.827979, -3.606156, 9.552254), (9.80449, -4.3323674, 7.370351), (9.880877, 1.4768099, 12.36012), (9.540511, -3.4801457, 14.253549), (8.658683, 0.6550105, 15.730191), (9.720153, 6.0790944, 15.01772), (9.120998, 0.17196622, 14.081652), (8.682688, -2.794607, 16.173166), (9.106878, 5.4895887, 15.66832), (6.5724826, -0.11366347, 18.278881), (5.4183803, 0.07578587, 20.373678), (8.134202, -0.4833831, 16.573944), (5.933949, 1.8154587, 20.65757), (6.01831, 1.8296459, 21.092617), (9.6225395, 5.7815967, 14.239133), (9.670275, 0.7331095, 25.896185), (9.733948, -0.25646892, 26.098322), (9.823454, -1.2076226, 24.218914), (9.654065, -0.21311505, 27.760538), (9.701044, -0.100128524, 27.276218), (2.968295, 0.3802834, 25.815556), (5.6089783, 0.21958388, 26.663755), (6.1407843, 0.18203396, 25.618242), (8.010858, 0.30141374, 25.306877), (9.698971, 1.8314079, 22.50358), (9.74371, 0.687205, 24.705551), (3.7353008, 0.2714142, 27.476484), (9.40316, -0.13163155, 27.438559), (7.7649617, -0.02962684, 27.379185), (-7.1190987, -6.420076, 5.0110497), (-5.674413, -6.63442, 3.756723), (-8.427467, -6.242158, 1.4908495), (-3.7840388, -6.623853, 2.6175623), (-4.8702254, -6.602077, 6.2359576), (-6.963218, -6.4579434, 7.619027), (-7.2613425, -6.3645697, 9.5283), (-3.5920148, -6.871641, 10.865143), (-6.9715557, -6.2876897, 10.746084), (-4.7749867, -6.643744, 8.724719), (-9.365996, -6.325913, 15.578972), (-2.27647, -6.819071, 5.613942), (-8.167747, -6.2359247, 13.36117), (-9.416548, -6.102652, 11.862503), (-9.220776, -6.2203083, 11.4297085), (-0.5396724, -6.2139244, 0.124900706), (-2.459172, -6.7939205, 7.0542836), (-8.396141, -6.3084636, 0.12703706), (-1.5431268, -6.776272, 10.132596), (0.07433024, -6.6841516, 8.541524), (1.7871734, -6.922084, 7.374505), (-6.364999, -6.414717, 11.384594), (-4.53054, -6.178946, 0.5873564), (-0.11144802, -6.55784, 5.851773), (-4.2199616, -6.162983, 0.046498343), (-0.7651775, -6.5108447, 3.520754), (0.32375368, -6.1140313, 0.03169981), (-8.519961, -5.994938, 6.1128054), (-9.533265, -6.082992, 0.5207174), (-1.4142417, -6.381607, 11.799238), (-6.6484876, -4.4144435, 17.834595), (-4.4556684, -4.2398634, 17.47456), (-4.1321516, -6.199398, 13.256469), (-6.1935782, -3.3308136, 19.749332), (-5.203204, -1.9869957, 21.316763), (-7.112738, -5.3262396, 16.323057), (-6.3576517, -1.5531114, 22.853918), (-3.2645154, -1.6876465, 20.789293), (-3.5079262, 0.036131356, 25.249128), (-1.8953241, -5.7650313, 13.478716), (-8.5249195, -4.790357, 17.810484), (-7.8822017, -0.28439993, 25.722181), (-9.258384, -2.9047189, 21.040194), (-9.353402, -0.7388998, 25.592264), (-9.443988, -2.812465, 20.995224), (5.818528, -0.28957054, 25.273506), (-1.5979795, -0.06480012, 24.012236), (2.1495159, 0.01769824, 24.224653), (-1.5509133, 0.012846033, 26.600094), (-1.9018573, 0.22173823, 27.714039), (-0.03900848, 0.24815094, 27.754196), (-3.069688, -0.024337664, 27.554028), (-6.1438274, 0.017030394, 27.732365), (2.7405589, -0.047339242, 27.548563), (9.4593725, -0.53087735, 27.48647), (0.47661963, -0.0038261511, 25.232489), (2.372465, -0.09662648, 26.39935), (-9.113417, -0.4783185, 27.309488), (3.7530878, -0.19987398, 24.693163), (-4.1286025, 0.017772784, 26.750849), (-4.1619587, -0.042178217, 27.517603), (8.05028, -0.374758, 25.667711), (9.7361145, -0.472039, 26.070461), (-9.520772, -0.42999, 26.03707), (-9.06434, 0.09033787, 27.445465), (-5.591078, 0.71428066, 24.984104), (-6.7335095, 0.47752753, 27.065838), (-9.525387, 0.9500923, 25.860136), (-9.378233, 0.33946973, 27.48083), (9.586736, 6.2442856, 5.721942), (9.603362, 6.219915, 1.7633586), (-5.9550133, 0.31216618, 25.947306), (-5.546567, 0.2950079, 27.27824), (-9.394428, -0.17398281, 26.041708), (-8.255989, -0.0611091, 25.871126), (-8.2676, -0.17543352, 26.961035), (-9.287921, -2.3008943, 21.5086), (-9.312809, -3.1942387, 19.98535), (-7.174642, -2.3442788, 20.367138), (-9.414817, -1.0143403, 24.250076), (-8.102225, -4.5044136, 17.246212), (-9.475185, -0.6661627, 25.216131), (-6.994061, -3.2201605, 18.458345), (-9.282223, -5.883129, 15.747253), (7.488939, 1.3599747, 22.453266), (7.8551483, 2.6180475, 20.447123), (9.715972, 3.939061, 18.917866), (6.2877493, 2.7302682, 20.841347), (0.040558208, 4.7651377, 15.633971), (0.7596408, 3.0035336, 19.679497), (5.1232452, 0.9548191, 23.936995), (-3.855889, 4.741662, 16.89666), (-4.2353544, 5.7015057, 14.237182), (1.0584186, 6.282737, 12.530651), (7.2902203, 5.0414615, 16.563274), (5.1906652, 1.9867132, 22.175106), (-7.360547, 5.4958267, 15.979812), (-6.8976655, 6.575521, 13.57789), (9.579598, 2.6364565, 21.34619), (7.662159, 3.033124, 20.402517), (4.2129793, 5.7425003, 13.965519), (0.2768088, 6.8904862, 8.855569), (1.5744965, 6.8352685, 6.2425337), (7.2706323, 1.4869022, 22.800396), (7.0113482, 6.627854, 6.858978), (8.995562, 6.2760015, 7.163858), (4.482528, 6.7175245, 11.096504), (5.000241, 6.712584, 8.867412), (-2.514137, 2.9272015, 20.157145), (-1.8044239, 6.7965198, 3.2030709), (-8.82237, 6.1521335, 6.1201468), (-7.407149, 6.5468793, 5.3355904), (-9.646317, 6.235791, 5.9625163), (-6.347115, 6.5052505, 11.278302), (-2.662015, 1.2827499, 23.33513), (-3.5508678, 2.0440075, 21.682629), (-6.677214, 1.6554193, 22.208227), (-9.491644, 3.1556275, 19.787228), (1.0989085, 2.0980964, 21.941599), (-8.209852, 3.6435804, 18.88106), (9.63754, 0.17773674, 27.076496), (7.417064, 6.5366383, 4.1505976), (-7.0457654, 0.77654284, 24.451214), (-9.450742, 0.6746605, 25.301664), (-9.208384, 1.1351088, 23.732607), (-6.637877, 6.6178217, 7.0865817), (9.642731, 6.194473, 15.230527), (3.604255, 6.8493767, 11.389229), (7.446281, 6.49796, 13.726319), (8.685556, 6.162504, 10.719024), (7.260716, 6.3136134, 11.225094), (-9.479008, 6.261301, 6.3040633), (-9.491485, 6.2440023, 10.689304), (-9.229169, 6.340942, 11.365853), (9.651724, 6.174279, 11.3606615), (-9.437592, 2.3491905, 21.255514), (9.460152, 0.2792216, 26.69957), (-8.401371, 6.2546835, 12.254135), (1.0097315, 0.8352286, 23.97346), (8.976677, 0.24794236, 26.930422), (-9.448215, 6.1778626, 15.332305), (-9.495725, 4.733504, 17.2165), (-4.916075, 6.742837, 8.983329), (9.6140375, 1.2827146, 23.6026), (3.2958822, 6.7809668, 4.1062217), (0.678084, 6.661438, 3.5778017), (-0.32394055, 6.3632073, 1.3815657), (4.8978662, 6.4622197, 0.86509097), (9.599697, 6.6048145, 0.081736475), (9.222976, 6.3373656, 0.5033498), (9.579858, 6.297526, 0.34174785), (2.9357107, 2.6018724, 21.178139), (-8.278094, 6.445247, 0.13282162), (-2.6921062, 0.7392097, 24.930851), (-4.45193, 6.7906313, 12.01328), (8.156444, 6.234202, 5.849753), (6.4517455, 6.3266892, 10.479746), (6.9054317, 0.40015194, 26.453527), (2.4268808, 5.039409, 15.746747), (9.567595, 4.0688906, 19.068972), (9.644718, 0.82803905, 24.711893), (-2.2189083, 4.0190854, 18.165678), (-1.2801286, 6.9758368, 6.963813), (-0.9009849, 6.358679, 0.17035255), (-9.626388, 6.281454, 0.54191947), (6.368758, -6.5060015, 8.689878), (9.665398, -6.1379, 8.618592), (3.183973, -5.8726854, 13.806256), (9.763602, -5.115294, 14.0891695), (9.683378, -5.219165, 2.977796), (6.7659526, -5.8852644, 14.9488945), (9.534864, -6.113826, 3.3359447), (9.592127, -6.0210514, 3.1987987), (7.3367715, -6.174403, 0.39425367), (6.611288, -6.499877, 6.624694), (5.0003138, -6.7126784, 3.9562716), (4.731973, -5.4342465, 15.251282), (3.6765783, -4.842918, 16.104666), (4.2588353, -3.0862288, 18.735052), (7.696612, -1.4242373, 22.152996), (5.783399, -0.7313753, 22.411686), (9.721064, -3.2900429, 20.490524), (9.789005, -1.9688928, 22.592182), (9.897152, 0.37489036, 3.8844583), (5.207237, -6.1462817, 0.03917269), (7.783704, -6.2508745, 0.14165999), (7.374636, -5.3271255, 0.007457451), (-1.2043046, -0.7116332, 21.337572), (0.25779426, -1.8646121, 19.112656), (9.570011, -1.959116, 0.5086252), (9.622596, -4.2645855, 0.088151395), (9.889869, 2.164191, 2.4476771), (8.18843, -1.6400174, 23.192968), (9.355338, 2.4272153, 14.319335), (0.78743255, -6.5390553, 10.7647705), (9.129857, -1.3560072, 14.4496355), (0.96841747, -5.993517, 12.569609), (-7.5595245, 4.558022, 17.41413), (-0.78184015, 6.7313805, 11.411659), (-2.2842515, 5.3633738, 15.015348), (-0.27183208, 5.7972164, 13.680297), (2.039789, 5.8170314, 13.783141), (-5.70407, 5.2542295, 15.987566), (4.8580985, 5.073368, 16.087603), (3.8834789, 4.469265, 17.404976), (-3.4434714, -6.729906, 4.3876243), (1.2747035, 6.7831755, 10.606728), (-9.452719, -6.1358843, 3.329714), (-4.330393, 6.7521996, 2.6197581), (-3.2198186, 6.3248925, 0.04190137), (-2.5930407, 6.4453197, 0.818339), (-5.5709805, 6.4051304, 0.4008592), (-6.389331, 6.5807533, 1.7384539), (-6.7953844, 6.3299513, 0.54088414), (9.605163, 5.1316814, 17.14975), (6.0511923, 4.0239315, 18.30184), (5.525268, 6.6736684, 12.557774), (6.6905403, 5.844738, 14.8836565), (7.579692, 4.185586, 18.281275), (9.718062, 5.0090775, 16.967793), (7.6714187, 1.7104439, 17.25836), (5.0217385, 1.133667, 22.042568), (-4.134909, -2.9035869, 19.246498), (-7.401566, -1.0600775, 24.276333), (-7.1601253, -2.4815426, 21.48305), (-9.122947, -1.844982, 23.134909), (-8.674145, -2.7041724, 0.010572712), (-9.516936, -3.2905276, 0.10097171), (-1.8229297, -4.574094, 0.0018073301), (-2.379817, -6.1884537, 0.08569953), (-6.308051, -6.2357235, 0.0867677), (-6.514554, -5.12769, 0.009193083), (-6.708725, -6.1042624, 0.6247177), (-3.294966, -5.185291, 15.065759), (-5.0426707, -5.1941385, 15.602601), (-7.4087753, -6.41048, 2.743562), (-6.188318, -6.410972, 1.9176314), (10.017502, -0.46886033, 9.947504), (10.040822, 1.4951628, 8.767844), (9.874074, -2.47407, 12.597261), (9.200882, 3.3943639, 15.343659), (9.913899, -0.8186222, 12.18733), (9.686479, -4.1149535, 10.996812), (9.920002, -1.8924053, 10.539993), (8.099879, 6.468387, 1.9522463), (9.595049, 6.2321005, 3.7426503), (9.649014, 6.1944776, 8.9814005), (9.577991, 5.504754, 3.0737796), (-9.633734, 6.1719956, 12.616955), (-9.4579115, 3.915969, 18.155285), (-9.758093, -1.9609077, 13.012034), (1.9502268, 4.035649, 18.066174), (2.9093928, 3.4424155, 19.478954), (4.6705475, 3.4724588, 19.379223), (4.610188, 2.7205846, 20.900414), (-1.1985935, 2.1532583, 21.813066), (3.3953598, 6.6458573, 5.821214), (4.2259703, 6.7928214, 6.8706727), (5.6581774, 6.4694037, 5.7720823), (2.7454164, 6.9049087, 8.618528), (7.601454, 6.4165, 9.053647), (-1.8669187, 0.018127387, 0.0020027368), (0.45621568, 0.19782041, 0.0019749475), (-6.1215415, 4.128833, 18.017044), (-0.9331846, 3.117327, 19.634436), (-4.286901, 3.4275246, 19.122), (-6.4676337, 2.8927467, 20.070621), (-9.889919, 2.8165267, 2.170035), (-9.924213, 3.4103844, 4.7543874), (-9.796371, 4.6981397, 3.187769), (-9.583608, 6.1504936, 8.846912), (-9.485247, 6.2526517, 8.496684), (-9.553689, 5.8432274, 4.189087), (8.060026, 0.60707825, 25.23459), (6.664949, 0.53231895, 24.040318), (4.973958, 0.22547708, 27.398565), (7.4790506, 0.23405975, 27.80886), (7.4800615, 0.05472908, 27.841402), (7.3000226, -0.4902819, 27.054548), (5.0056305, -0.3318731, 26.921629), (0.16163647, 0.3870193, 27.881765), (4.846075, 0.67704725, 26.710936), (9.778355, 4.056118, 5.99293), (9.923573, 4.0507555, 8.274698), (4.456368, 2.824834, 0.0021368063), (4.5801005, -2.003443, 0.0020188869), (7.135239, -2.7495744, 0.0031769222), (2.9931593, -4.8785114, 0.0029461011), (2.4085796, -5.648319, 0.008871565), (8.768801, -3.1818092, 0.0074334773), (-0.18812633, 0.6506928, 27.863571), (-7.4437284, 0.158081, 27.388527), (-7.5753226, 0.22562993, 27.27321), (-4.5835686, 0.92191136, 26.398918), (-7.4757404, 0.9079037, 25.05992), (-7.7196503, 1.0484055, 25.07033), (-8.247538, 0.8005932, 26.115683), (-8.085686, 6.4873614, 2.594892), (-6.249987, 6.6516275, 3.9590256), (0.54303783, -0.097725585, 22.96533), (-5.7622695, 0.6499717, 0.0031900152), (-6.3903303, -2.9112267, 0.0046306737), (-3.1237664, 5.196131, 0.0030573572), (-3.6075118, -0.89888346, 22.933706), (-9.451099, -1.9730875, 22.714575), (-7.8106666, 6.444561, 8.801704), (-3.9579318, 6.8238792, 7.15205), (3.0688832, 6.3346734, 0.034413688), (4.417489, 4.9842343, 0.0033395134), (8.185632, 3.3096929, 0.0038808868), (2.4246752, 6.5910344, 1.652111), (-2.847231, 6.8307548, 4.7929373), (-2.6372323, 6.7631025, 6.0393147), (-2.356771, -6.8607044, 8.78273), (-9.402538, -5.368224, 17.000233), (9.6021, 1.873333, 0.052842416), (4.6711807, 6.7167845, 3.133191), (6.139558, 6.5943336, 2.052023), (-1.9811505, -6.476137, 1.9892671), (-10.054467, 1.4587922, 8.451011), (-9.9378, -2.142149, 6.7658215), (-10.076727, -0.32434085, 8.474279), (-9.814075, -2.717465, 9.374221), (8.6867, 2.9330237, 15.99869), (8.217208, 4.4578633, 17.012703), (6.3812714, 1.6255579, 19.176245), (6.9791403, 3.0234683, 18.932207), (-9.410438, -6.179222, 14.1571245), (-9.6317215, -3.6443007, 12.014521), (-9.802338, -2.1390526, 11.113101), (-8.787548, -2.6529913, 16.093212), (-9.439905, -6.0716195, 9.0048485), (-9.2747755, -6.1755886, 8.922332), (-9.560273, -4.6541543, 8.973123), (6.6802874, 0.8937393, 25.110516), (9.707472, 2.8852344, 20.710724), (-9.3002825, -3.6725287, 14.73493), (-8.882688, -0.9607366, 14.980516), (-5.5325255, -0.28934398, 25.041178), (-6.6376877, -0.26024836, 27.413546), (-9.18118, 3.2098742, 15.331058), (-4.8132114, 1.1384659, 23.496387), (-8.17294, 6.376692, 14.455097), (-9.451168, 2.0247636, 21.55922), (9.612247, 1.8488556, 22.14389), (9.647482, 3.0604167, 20.343777), (-9.358791, 0.40291315, 13.761313), (2.0824199, 0.8543608, 25.021065), (-1.9101241, 0.85630953, 24.936523), (-3.779612, 0.9815855, 25.020678), (0.86209124, 0.9100275, 25.748714), (0.39986777, 0.6467885, 24.93589), (-0.626132, 1.0377109, 23.653023), (-6.0228252, -1.1564693, 21.978762), (-7.9585023, -1.5913895, 22.30429), (-6.8493524, 2.349074, 20.173058), (-9.297516, -4.538684, 17.866302), (-7.849019, 2.5750659, 20.691288), (-7.2548785, -0.5396946, 24.079031), (-6.587347, 2.2738385, 19.303), (6.127007, -1.8192877, 19.17816), (2.4215336, -2.4755135, 18.674389), (6.098841, -2.8967512, 20.06871), (5.1503587, -3.9866295, 18.0533), (6.66913, -1.1050507, 23.74129), (5.082328, 0.3078251, 24.305708), (-4.0970283, 6.816396, 10.535027), (-2.5941625, 6.435569, 12.278976), (-2.3228219, 6.9814067, 9.40398), (-1.5095453, 6.3010445, 0.042301238), (-2.1600916, -4.547638, 15.792804), (-8.220965, -3.6664593, 19.644363), (-1.1074784, -2.2653875, 0.0018803927), (-9.6340685, 6.2526207, 3.4280882), (2.5339687, 1.5283942, 0.00205817), (4.511671, 0.4294506, 0.0020781585), (2.4955957, -0.93293077, 0.001995621), (5.4799395, -4.033223, 0.0033121614), (1.375736, 0.6038478, 27.881973), (-4.259764, 0.36539134, 27.85345), (-6.880772, 0.55897343, 27.786093), (-4.2685666, 0.6237959, 27.819378), (-6.0077853, -1.104828, 0.0038169227), (-2.4540398, 2.7032936, 0.0025335865), (-3.8489203, 0.36025175, 0.0025437973), (-4.419775, 2.882003, 0.003047172), (-7.637227, -0.4106192, 0.0058088885), (-8.351741, -4.5760083, 0.013347061), (6.4940147, 3.9587822, 0.0035753578), (-5.199792, 5.3487873, 0.0035945836), (9.609578, -0.22080469, 0.05743215), (-6.525004, -6.359572, 14.31084), (8.314768, 6.1643295, 12.220462), (9.647227, 6.184376, 13.295594), (-7.617369, 1.7310258, 16.982494), (-5.0031614, 2.1729915, 21.221088), (3.30064, 1.3849648, 23.078642), (-1.1461192, 0.6929991, 24.93337), (-6.0010214, 0.5979441, 19.67279), (2.9349525, -3.9158778, 16.918678), (-1.6803752, 4.6332884, 16.715645), (-2.81469, -2.548193, 0.0018699389), (-0.5255578, 2.5921524, 0.002038939), (0.8189026, 2.6490977, 0.0020450347), (0.61955786, -2.2491138, 0.001917604), (-9.575074, 1.8987203, 0.10703815), (-9.71107, -0.95078695, 0.86352706), (2.5604787, 0.8152773, 26.374651), (2.9747097, -3.2870343, 0.0021037185), (2.6575522, 3.9532428, 0.0021218522), (6.024414, 1.384027, 0.0021383953), (6.6035457, -0.47397387, 0.002105785), (8.673466, -0.9063901, 0.0036937294), (-6.845979, 0.24441974, 27.837332), (-4.7554674, 6.7685766, 5.088434), (-7.2013016, 1.576684, 0.0048940917), (-8.048668, 3.8192697, 0.008406303), (-6.3075285, 3.0782697, 0.0035439183), (-4.1187053, -1.4935656, 0.0023448903), (-1.1517712, 5.0410995, 0.0025456136), (9.599812, 4.2390704, 0.0676248), (-9.682653, -4.340002, 7.4624457), (2.7188482, 0.5774726, 24.93967), (9.942711, -2.8077114, 6.912815), (0.48513797, 4.094442, 17.363947), (-9.957582, -2.0705054, 4.8156314), (10.011347, 1.7704247, 7.201777), (-0.42725715, 6.667743, 5.5897574), (-10.13202, 1.5328656, 10.494039), (-7.9384737, 0.9461709, 23.230011), (-7.5828614, -2.090049, 17.433367), (10.024784, 1.1151166, 10.920985), (7.769844, 6.4467635, 0.05768837), (-6.365985, 0.740836, 23.414654), (-9.542425, 4.227232, 0.11700347), (8.602399, 0.8819518, 23.579782)]
            uniform token subdivisionScheme = "none"
        }
    }
}

